<svg width="20" height="20" viewBox="0 0 20 20" fill="none" xmlns="http://www.w3.org/2000/svg">
<path d="M19.4141 15.8595H18.7891V14.1017C18.7891 13.7781 18.5267 13.5157 18.2031 13.5157H12.3438C11.3864 13.5157 10.535 13.9774 10 14.6897C9.46504 13.9774 8.61359 13.5157 7.65625 13.5157H1.79688C1.47328 13.5157 1.21094 13.7781 1.21094 14.1017V15.8595H0.585938C0.262344 15.8595 0 16.1218 0 16.4454C0 16.769 0.262344 17.0314 0.585938 17.0314H6.12441C7.31695 17.0314 8.2509 17.2956 8.90027 17.8168C9.53844 18.329 10.4547 18.3345 11.0997 17.8168C11.7491 17.2956 12.683 17.0314 13.8756 17.0314H19.4141C19.7377 17.0314 20 16.769 20 16.4454C20 16.1218 19.7377 15.8595 19.4141 15.8595ZM6.12441 15.8595H2.38281V14.6876H7.65625C8.62551 14.6876 9.41406 15.4762 9.41406 16.4454V16.7401C8.57449 16.1561 7.47004 15.8595 6.12441 15.8595ZM10.5859 16.7401V16.4454C10.5859 15.4762 11.3745 14.6876 12.3438 14.6876H17.6172V15.8595H13.8756C12.53 15.8595 11.4255 16.1561 10.5859 16.7401Z" fill="black"/>
<path d="M1.63575 5.29007L5.89829 6.50792V9.41417C5.89829 9.63613 6.02368 9.83898 6.22219 9.93828L8.81336 11.2339C9.10051 11.3775 9.36348 11.5625 9.59493 11.7837C9.82141 12.0003 10.1782 12.0003 10.4047 11.7837C10.6362 11.5625 10.8991 11.3775 11.1863 11.2339L13.7775 9.93828C13.976 9.83902 14.1014 9.63613 14.1014 9.41417V6.50792L15.2732 6.17312V10.586C15.2732 10.9096 15.5356 11.172 15.8592 11.172C16.1828 11.172 16.4451 10.9096 16.4451 10.586V5.83828L18.3639 5.29007C18.9282 5.12886 18.9292 4.3248 18.3639 4.16328L10.1608 1.81953C10.0556 1.78945 9.94407 1.78945 9.83887 1.81953L1.63575 4.16328C1.07145 4.32449 1.07047 5.12855 1.63575 5.29007ZM12.9295 9.05202L10.6622 10.1857C10.4291 10.3022 10.2076 10.4388 9.99985 10.594C9.79211 10.4388 9.57059 10.3022 9.33743 10.1856L7.07016 9.05202V6.84273L9.83887 7.63378C9.94368 7.6637 10.0552 7.66398 10.1608 7.63378L12.9295 6.84273V9.05202ZM9.99985 2.9923L16.0701 4.72667L9.99985 6.46105L3.92957 4.72667L9.99985 2.9923Z" fill="black"/>
</svg>
