<?xml version="1.0" encoding="UTF-8"?>
<svg width="20px" height="20px" viewBox="0 0 20 20" version="1.1" xmlns="http://www.w3.org/2000/svg" xmlns:xlink="http://www.w3.org/1999/xlink">
    <!-- Generator: Sketch 64 (93537) - https://sketch.com -->
    <title>add</title>
    <desc>Created with Sketch.</desc>
    <g id="Page-1" stroke="none" stroke-width="1" fill="none" fill-rule="evenodd">
        <g id="UI" transform="translate(-19.000000, -180.000000)" fill="#FFFFFF">
            <g id="UL">
                <g id="Button" transform="translate(14.000000, 164.000000)">
                    <g id="text" transform="translate(5.000000, 16.000000)">
                        <g id="add">
                            <path d="M18.2142857,8.21428571 L12.1428571,8.21428571 C11.9456264,8.21428571 11.7857143,8.05437362 11.7857143,7.85714286 L11.7857143,1.78571429 C11.7857143,0.799560536 10.9861537,0 10,0 C9.01384625,0 8.21428571,0.799560536 8.21428571,1.78571429 L8.21428571,7.85714286 C8.21428571,8.05437362 8.05437362,8.21428571 7.85714286,8.21428571 L1.78571429,8.21428571 C0.799560536,8.21428571 0,9.01384625 0,10 C0,10.9861537 0.799560536,11.7857143 1.78571429,11.7857143 L7.85714286,11.7857143 C8.05437362,11.7857143 8.21428571,11.9456264 8.21428571,12.1428571 L8.21428571,18.2142857 C8.21428571,19.2004395 9.01384625,20 10,20 C10.9861537,20 11.7857143,19.2004395 11.7857143,18.2142857 L11.7857143,12.1428571 C11.7857143,11.9456264 11.9456264,11.7857143 12.1428571,11.7857143 L18.2142857,11.7857143 C19.2004395,11.7857143 20,10.9861537 20,10 C20,9.01384625 19.2004395,8.21428571 18.2142857,8.21428571 Z"></path>
                        </g>
                    </g>
                </g>
            </g>
        </g>
    </g>
</svg>