<?xml version="1.0" encoding="UTF-8"?>
<svg width="20px" height="17px" viewBox="0 0 20 17" version="1.1" xmlns="http://www.w3.org/2000/svg" xmlns:xlink="http://www.w3.org/1999/xlink">
    <!-- Generator: Sketch 64 (93537) - https://sketch.com -->
    <title>arrow-undo</title>
    <desc>Created with Sketch.</desc>
    <g id="Page-1" stroke="none" stroke-width="1" fill="none" fill-rule="evenodd">
        <g id="Projects" transform="translate(-460.000000, -19.000000)" fill="#FFFFFF">
            <g id="top-nav">
                <g id="undo" transform="translate(460.000000, 19.000000)">
                    <path d="M19.9658383,9.6478067 C19.6120956,6.17995136 16.3996618,3.64341431 12.8122358,3.64341431 L7.49984535,3.64341431 L7.49984535,0.607826659 C7.49984535,0.374693527 7.36234818,0.162202391 7.14610264,0.0602066455 C6.92860713,-0.0405748646 6.67236241,-0.0138616933 6.48486628,0.133060749 L0.234995154,4.990001 C0.0862482215,5.10656756 0,5.28020318 0,5.46476691 C0,5.64933064 0.0862482215,5.82296625 0.23374518,5.93953282 L6.4836163,10.7964731 C6.59736396,10.883898 6.7361111,10.9288247 6.87485824,10.9288247 C6.96735633,10.9288247 7.05985442,10.9093969 7.14610264,10.8693272 C7.36234818,10.7673314 7.49984535,10.5548403 7.49984535,10.3217072 L7.49984535,7.2861195 L12.9447331,7.2861195 C14.5796994,7.2861195 16.0696686,8.42750046 16.2334153,10.0072203 C16.4221614,11.8237159 14.9559416,13.3572948 13.1247294,13.3572948 L8.12483246,13.3572948 C7.77983957,13.3572948 7.49984535,13.6292835 7.49984535,13.9644123 L7.49984535,16.3928825 C7.49984535,16.7280113 7.77983957,17 8.12483246,17 L13.1247294,17 C17.1408965,17 20.36958,13.6280692 19.9658383,9.6478067 Z" id="arrow-undo"></path>
                </g>
            </g>
        </g>
    </g>
</svg>