<?xml version="1.0" encoding="UTF-8"?>
<svg width="28px" height="23px" viewBox="0 0 28 23" version="1.1" xmlns="http://www.w3.org/2000/svg" xmlns:xlink="http://www.w3.org/1999/xlink">
    <!-- Generator: Sketch 61 (89581) - https://sketch.com -->
    <title>arrow-left</title>
    <desc>Created with Sketch.</desc>
    <g id="Page-1" stroke="none" stroke-width="1" fill="none" fill-rule="evenodd">
        <g id="Custom-Preset-8" transform="translate(-866.000000, -224.000000)" fill="#FFFFFF">
            <g id="Header" transform="translate(559.000000, 0.000000)">
                <g id="Active" transform="translate(124.000000, 24.000000)">
                    <g id="Button" transform="translate(0.000000, 189.000000)">
                        <g id="Text" transform="translate(183.000000, 10.000000)">
                            <g id="left-arrow-(1)" transform="translate(0.000000, 1.000000)">
                                <path d="M26.4260816,9.32850445 L26.469789,9.33795993 L7.73346783,9.33795993 L13.6234828,3.50010278 C13.9119055,3.21508765 14.0701169,2.82898897 14.0701169,2.4237542 C14.0701169,2.01851942 13.9119055,1.6351223 13.6234828,1.34943179 L12.7069952,0.442606423 C12.4188001,0.1575913 12.0347677,0 11.6252393,0 C11.2154833,0 10.8312233,0.156465648 10.5430282,0.441480771 L0.446412506,10.4257902 C0.157079235,10.7119309 -0.00113211229,11.0930767 0,11.4985367 C-0.00113211229,11.9062479 0.157079235,12.2876188 0.446412506,12.5733093 L10.5430282,22.5585192 C10.8312233,22.8433092 11.2152557,23 11.6252393,23 C12.0347677,23 12.4188001,22.8430841 12.7069952,22.5585192 L13.6234828,21.6516939 C13.9119055,21.367129 14.0701169,20.9871088 14.0701169,20.5818741 C14.0701169,20.1768644 13.9119055,19.8168809 13.6234828,19.5320909 L7.6669963,13.6615898 L26.4470247,13.6615898 C27.2908945,13.6615898 28,12.9422981 28,12.1081899 L28,10.8256218 C28,9.99151356 27.2699514,9.32850445 26.4260816,9.32850445 Z" id="arrow-left"></path>
                            </g>
                        </g>
                    </g>
                </g>
            </g>
        </g>
    </g>
</svg>