<?xml version="1.0" encoding="UTF-8"?>
<svg width="40px" height="33px" viewBox="0 0 40 33" version="1.1" xmlns="http://www.w3.org/2000/svg" xmlns:xlink="http://www.w3.org/1999/xlink">
    <!-- Generator: Sketch 64 (93537) - https://sketch.com -->
    <title>bar-chart</title>
    <desc>Created with Sketch.</desc>
    <g id="Page-1" stroke="none" stroke-width="1" fill="none" fill-rule="evenodd">
        <g id="Class-Hub" transform="translate(-1331.000000, -494.000000)" fill="#FFFFFF" fill-rule="nonzero">
            <g id="Normal" transform="translate(396.000000, 271.000000)">
                <g id="Button" transform="translate(744.000000, 210.000000)">
                    <g id="bar-chart" transform="translate(191.000000, 13.000000)">
                        <path d="M9.09090909,32.7272727 L1.81818182,32.7272727 C0.814027728,32.7272727 0,31.913245 0,30.9090909 L0,20 C0,18.9958459 0.814027728,18.1818182 1.81818182,18.1818182 L9.09090909,18.1818182 C10.0950632,18.1818182 10.9090909,18.9958459 10.9090909,20 L10.9090909,30.9090909 C10.9090909,31.913245 10.0950632,32.7272727 9.09090909,32.7272727 Z M3.63636364,29.0909091 L7.27272727,29.0909091 L7.27272727,21.8181818 L3.63636364,21.8181818 L3.63636364,29.0909091 Z" id="Shape"></path>
                        <path d="M23.6363636,32.7272727 L16.3636364,32.7272727 C15.3594823,32.7272727 14.5454545,31.913245 14.5454545,30.9090909 L14.5454545,1.81818182 C14.5454545,0.814027728 15.3594823,0 16.3636364,0 L23.6363636,0 C24.6405177,0 25.4545455,0.814027728 25.4545455,1.81818182 L25.4545455,30.9090909 C25.4545455,31.913245 24.6405177,32.7272727 23.6363636,32.7272727 Z M18.1818182,29.0909091 L21.8181818,29.0909091 L21.8181818,3.63636364 L18.1818182,3.63636364 L18.1818182,29.0909091 Z" id="Shape"></path>
                        <path d="M38.1818182,32.7272727 L30.9090909,32.7272727 C29.9049368,32.7272727 29.0909091,31.913245 29.0909091,30.9090909 L29.0909091,10.9090909 C29.0909091,9.90493682 29.9049368,9.09090909 30.9090909,9.09090909 L38.1818182,9.09090909 C39.1859723,9.09090909 40,9.90493682 40,10.9090909 L40,30.9090909 C40,31.913245 39.1859723,32.7272727 38.1818182,32.7272727 Z M32.7272727,29.0909091 L36.3636364,29.0909091 L36.3636364,12.7272727 L32.7272727,12.7272727 L32.7272727,29.0909091 Z" id="Shape"></path>
                    </g>
                </g>
            </g>
        </g>
    </g>
</svg>