<svg xmlns="http://www.w3.org/2000/svg" width="20.465" height="17.736" viewBox="0 0 20.465 17.736">
  <g id="bin" transform="translate(-5144.603 -529.718)">
    <g id="Group_360" data-name="Group 360" transform="translate(5144.603 532.596)">
      <rect id="Rectangle_337" data-name="Rectangle 337" width="20.465" height="2.579" rx="1.29" transform="translate(0 0)" fill="#404040"/>
    </g>
    <g id="Group_361" data-name="Group 361" transform="translate(5148.013 533.886)">
      <path id="Path_2635" data-name="Path 2635" d="M5152.215,539.02v11.752a1.817,1.817,0,0,0,1.817,1.817h10.008a1.818,1.818,0,0,0,1.818-1.817V539.02Zm5.458,10.158a.682.682,0,1,1-1.364,0v-5.457a.682.682,0,1,1,1.364,0Zm4.093,0a.682.682,0,1,1-1.364,0v-5.457a.682.682,0,1,1,1.364,0Z" transform="translate(-5152.215 -539.02)" fill="#404040"/>
    </g>
    <g id="Group_362" data-name="Group 362" transform="translate(5148.696 529.718)">
      <path id="Path_2636" data-name="Path 2636" d="M5166.017,531.914V530.72a1,1,0,0,0-1-1H5154.74a1,1,0,0,0-1,1v1.194Z" transform="translate(-5153.738 -529.718)" fill="#404040"/>
    </g>
  </g>
</svg>
