<svg id="black-point" xmlns="http://www.w3.org/2000/svg" width="32" height="32" viewBox="0 0 32 32">
  <path id="Path_449" data-name="Path 449" d="M8,15.971a7.971,7.971,0,1,1,7.971,7.971A7.971,7.971,0,0,1,8,15.971Zm7.971,1.993a1.993,1.993,0,1,1,1.993-1.993A1.993,1.993,0,0,1,15.971,17.963Z" transform="translate(0.029 0.029)" fill="#38f2a3" fill-rule="evenodd"/>
  <path id="Path_450" data-name="Path 450" d="M3,19A16,16,0,1,1,19,35,16,16,0,0,1,3,19ZM19,31.444A12.444,12.444,0,1,1,31.444,19,12.444,12.444,0,0,1,19,31.444Z" transform="translate(-3 -3)" fill="#38f2a3" fill-rule="evenodd"/>
</svg>
