<?xml version="1.0" encoding="UTF-8"?>
<svg width="36px" height="39px" viewBox="0 0 36 39" version="1.1" xmlns="http://www.w3.org/2000/svg" xmlns:xlink="http://www.w3.org/1999/xlink">
    <!-- Generator: Sketch 64 (93537) - https://sketch.com -->
    <title>blockly</title>
    <desc>Created with Sketch.</desc>
    <g id="Page-1" stroke="none" stroke-width="1" fill="none" fill-rule="evenodd">
        <g id="blockly" transform="translate(0.000000, -1.000000)" fill-rule="nonzero">
            <g id="g6939" transform="translate(0.601155, 0.230677)">
                <path d="M3.604934,0.770871828 C1.830367,0.769373 0.3912639,2.208513 0.392726285,3.98308 L0.392726285,31.689918 C0.3912674,33.464486 1.830367,34.903587 3.604934,34.902123 L4.855504,34.902123 C5.472202,37.215063 7.566359,38.824796 9.960102,38.825915 C12.352307,38.822915 14.444265,37.213579 15.060566,34.902123 L16.341624,34.902123 L20.502611,34.902123 C21.671613,34.902123 22.619277,33.95446 22.619277,32.785457 L22.619277,2.88754 L20.502611,0.770871828 L3.604934,0.770871828 Z" id="path906" fill="#4285F4"></path>
                <path d="M19.444794,0.769323 C19.441994,5.453175 19.442694,10.136204 19.442694,14.822729 L15.042443,12.336059 C14.408142,11.978144 13.623152,12.435599 13.621858,13.163915 L13.621858,23.91158 C13.623158,24.639891 14.408143,25.09735 15.042443,24.739435 L19.442691,22.252249 L19.442691,32.198413 L19.442691,32.785457 L19.442691,34.902123 L21.559358,34.902123 L21.936596,34.902123 L31.476064,34.902123 C33.15933,34.902123 34.52394,33.537514 34.52394,31.854248 L34.52394,3.808414 C34.51824,2.129185 33.155339,0.770932 31.4761,0.770873 L19.444794,0.769323 Z" id="path908" fill="#C8D1DB"></path>
            </g>
        </g>
    </g>
</svg>