<?xml version="1.0" encoding="UTF-8"?>
<svg width="42px" height="35px" viewBox="0 0 42 35" version="1.1" xmlns="http://www.w3.org/2000/svg" xmlns:xlink="http://www.w3.org/1999/xlink">
    <!-- Generator: Sketch 53.2 (72643) - https://sketchapp.com -->
    <title>blockquote</title>
    <desc>Created with Sketch.</desc>
    <g id="Home" stroke="none" stroke-width="1" fill="none" fill-rule="evenodd">
        <g id="Desktop-HD" transform="translate(-346.000000, -1213.000000)" fill="#000000">
            <g id="Problem-Section-Content" transform="translate(299.000000, 1106.000000)">
                <g id="Problems" transform="translate(0.000000, 87.000000)">
                    <g id="left-side">
                        <g id="Problem">
                            <g id="blockquote" transform="translate(47.000000, 20.000000)">
                                <path d="M13.71842,15.8619715 C12.6627321,15.5647876 11.6070443,15.4139975 10.5801316,15.4139975 C8.99435186,15.4139975 7.67114519,15.7683322 6.64513173,16.2022383 C7.63427705,12.6615294 10.0104739,6.55211395 14.7439838,5.86410682 C15.182355,5.80036175 15.5415946,5.49042882 15.6611913,5.07322833 L16.6957473,1.45514608 C16.782972,1.14916974 16.7312667,0.821651971 16.5527709,0.556120783 C16.3742751,0.290589595 16.087423,0.113422262 15.7659508,0.0703393875 C15.4166026,0.0237395433 15.0605103,0 14.7075653,0 C9.02582466,0 3.39893666,5.79860326 1.02453829,14.1012887 C-0.369257378,18.9722913 -0.777954237,26.2955008 2.65527923,30.9049288 C4.57646919,33.4841862 7.37934732,34.8615193 10.9861308,34.9991208 C11.000968,34.9995604 11.0153556,35 11.0301928,35 C15.4804474,35 19.4266876,32.0694853 20.6271504,27.8741804 C21.3442807,25.3661416 21.0201108,22.7358882 19.7135398,20.466124 C18.4209067,18.221858 16.2919962,16.5860276 13.71842,15.8619715 Z" id="Path"></path>
                                <path d="M40.7133804,20.4663066 C39.4207313,18.2216291 37.2917942,16.5858193 34.7181859,15.8617723 C33.662485,15.5645921 32.606784,15.4138039 31.5803081,15.4138039 C29.9945086,15.4138039 28.6708358,15.7681341 27.6448096,16.2020348 C28.6339672,12.6613703 31.0101936,6.55203165 35.7442122,5.86403316 C36.1825888,5.80028889 36.5413833,5.49035986 36.6614311,5.0731646 L37.696,1.4551278 C37.7832257,1.14915531 37.7315198,0.82164165 37.5530218,0.556113798 C37.3749734,0.290585945 37.0881177,0.113420838 36.7661918,0.0703385041 C36.417289,0.0237392451 36.0611922,0 35.7077932,0 C30.0259818,0 24.3990237,5.79853043 22.0241461,14.1011116 C20.6307827,18.972053 20.2220808,26.2951705 23.6558066,30.9054198 C25.5765709,33.4842052 28.3799336,34.8619607 31.9863124,34.9991208 C32.0011497,34.9995604 32.0155375,35 32.0308245,35 C36.480685,35 40.427424,32.0695221 41.6279016,27.8742699 C42.3441417,25.3662626 42.0195181,22.7356026 40.7133804,20.4663066 Z" id="Path"></path>
                            </g>
                        </g>
                    </g>
                </g>
            </g>
        </g>
    </g>
</svg>