<?xml version="1.0" encoding="UTF-8"?>
<svg width="31px" height="25px" viewBox="0 0 31 25" version="1.1" xmlns="http://www.w3.org/2000/svg" xmlns:xlink="http://www.w3.org/1999/xlink">
    <!-- Generator: Sketch 64 (93537) - https://sketch.com -->
    <title>blueprint</title>
    <desc>Created with Sketch.</desc>
    <g id="Page-1" stroke="none" stroke-width="1" fill="none" fill-rule="evenodd">
        <g id="UI" transform="translate(-14.000000, -435.000000)" fill="#FFFFFF">
            <g id="UL">
                <g id="Main]" transform="translate(0.000000, 233.000000)">
                    <g id="li-inactive" transform="translate(0.000000, 184.000000)">
                        <g id="Text" transform="translate(14.000000, 18.000000)">
                            <g id="blueprint">
                                <path d="M22.3889023,19.5679023 L19.1985059,19.5679023 L19.1985059,22.7582988 L22.3889023,22.7582988 L22.3889023,19.5679023 Z M21.4806992,21.8500957 L20.106709,21.8500957 L20.106709,20.4761055 L21.4806992,20.4761055 L21.4806992,21.8500957 Z" id="Shape" fill-rule="nonzero"></path>
                                <path d="M18.5120859,22.7582988 L18.5120859,19.5679023 L15.3216895,19.5679023 L15.3216895,22.7582988 L18.5120859,22.7582988 Z M16.2298926,20.4761055 L17.6038828,20.4761055 L17.6038828,21.8500957 L16.2298926,21.8500957 L16.2298926,20.4761055 Z" id="Shape" fill-rule="nonzero"></path>
                                <rect id="Rectangle" x="4.60640625" y="2.85902344" width="1" height="1"></rect>
                                <rect id="Rectangle" x="4.60640625" y="5.88636719" width="1" height="9.22613281"></rect>
                                <rect id="Rectangle" x="4.60640625" y="4.37269531" width="1" height="1"></rect>
                                <rect id="Rectangle" x="28.1240234" y="8.48988281" width="1" height="12.951582"></rect>
                                <rect id="Rectangle" x="28.1240234" y="5.46253906" width="1" height="1"></rect>
                                <rect id="Rectangle" x="28.1240234" y="6.97621094" width="1" height="1"></rect>
                                <path d="M0.908203125,3.78914453 C0.908203125,3.02080469 1.20791016,2.297875 1.75101562,1.75416406 C2.29533203,1.21045312 3.01826172,0.911351562 3.78660156,0.910746094 C3.8653125,0.910746094 3.94462891,0.914378906 4.02212891,0.920433594 L4.02515625,0.921039063 L4.09841797,0.0152578125 L4.09539062,0.0152578125 C3.99427734,0.00678125 3.89013672,0.00254296875 3.78660156,0.00254296875 C3.27498047,0.0031484375 2.77910156,0.103050781 2.31228516,0.300433594 C1.86181641,0.49115625 1.45675781,0.764222656 1.10921875,1.11176172 C0.761074219,1.45930078 0.488613281,1.86435938 0.297890625,2.31543359 C0.100507812,2.78225 -1.42108547e-14,3.27812891 -1.42108547e-14,3.78914453 L-1.42108547e-14,13.6891641 L0.908203125,13.6921914 L0.908203125,3.78914453 L0.908203125,3.78914453 Z" id="Path"></path>
                                <path d="M5.13134766,20.5508809 C5.13134766,19.8092422 4.52799805,19.2059531 3.78641992,19.2059531 C3.0448418,19.2059531 2.44149219,19.8093027 2.44149219,20.5508809 C2.44149219,21.292459 3.0448418,21.8958086 3.78641992,21.8958086 C4.52799805,21.8958086 5.13134766,21.2925195 5.13134766,20.5508809 Z M3.34963477,20.5508809 C3.34963477,20.3100254 3.54556445,20.1141563 3.78635938,20.1141563 C4.0271543,20.1141563 4.22308398,20.3100859 4.22308398,20.5508809 C4.22308398,20.7916758 4.0271543,20.9876055 3.78635937,20.9876055 C3.54556445,20.9876055 3.34963477,20.7917363 3.34963477,20.5508809 Z" id="Shape" fill-rule="nonzero"></path>
                                <path d="M3.78641992,18.0101523 C3.68458008,18.0101523 3.58195312,18.0162676 3.48132422,18.0283164 L3.58952148,18.9301016 C3.65430664,18.922291 3.72060547,18.9183555 3.78641992,18.9183555 C4.68663086,18.9183555 5.41894531,19.6507305 5.41894531,20.5508809 C5.41894531,21.4510313 4.68657031,22.1834063 3.78641992,22.1834063 L3.78641992,23.0916094 C5.18741406,23.0916094 6.32714844,21.9518145 6.32714844,20.5508809 C6.32714844,19.1499473 5.18735352,18.0101523 3.78641992,18.0101523 Z" id="Path"></path>
                                <path d="M1.24563086,20.5508809 L2.15383398,20.5508809 L2.15383398,20.5508809 C2.15383398,20.3102676 2.20481445,20.0787969 2.30538281,19.8627656 L1.48200586,19.4794434 C1.32512891,19.8163867 1.24563086,20.1768828 1.24563086,20.5508809 Z" id="Path"></path>
                                <path d="M3.13481445,19.0534355 L2.77183594,18.220916 C2.43580078,18.3674395 2.12919141,18.590373 1.88506641,18.865498 L2.56452344,19.4681816 C2.72170312,19.2910215 2.91884375,19.1475859 3.13481445,19.0534355 Z" id="Path"></path>
                                <polygon id="Path" points="14.6735352 3.33504297 14.6705078 4.24324609 30.0917969 4.24324609 30.0917969 21.2175625 31 21.2205898 31 3.33504297"></polygon>
                                <path d="M30.0917969,23.425707 L6.24662109,23.425707 C6.25866992,23.4154141 6.26987109,23.4043945 6.28173828,23.3939199 C6.31128516,23.3680059 6.34046875,23.341668 6.36928906,23.3147852 C6.3889668,23.2964395 6.40846289,23.2779121 6.42765625,23.2592031 C6.43964453,23.2475176 6.45205664,23.236498 6.46392383,23.2246914 C6.48057422,23.208041 6.49625586,23.1906035 6.51260352,23.1736504 C6.52973828,23.1558496 6.54699414,23.1381094 6.56370508,23.1200059 C6.59476563,23.0865234 6.62491797,23.0523145 6.65470703,23.0178027 C6.66663477,23.003998 6.67886523,22.990375 6.69055078,22.9763887 C6.73039063,22.9288594 6.76908008,22.8804824 6.8064375,22.8311973 C6.80752734,22.8297441 6.80867773,22.8284121 6.80976758,22.826959 C6.93164844,22.6656621 7.03990625,22.495041 7.13441992,22.316125 C7.13623633,22.3126738 7.13793164,22.3091016 7.13980859,22.3056504 C7.16826563,22.2514004 7.19539062,22.1964238 7.22124414,22.1406602 C7.22511914,22.1323047 7.2288125,22.1238281 7.23262695,22.1154121 C7.24691602,22.0839883 7.26175,22.0528672 7.27525195,22.0210195 C7.28391016,22.0006152 7.29129688,21.9798477 7.29953125,21.9592617 C7.30370898,21.9488477 7.30776563,21.9384336 7.31182227,21.9280195 C7.33265039,21.8748594 7.35226758,21.8213965 7.37061328,21.7675703 C7.37339844,21.7593359 7.37618359,21.7511621 7.3789082,21.7429277 C7.39779883,21.6862559 7.41523633,21.6292812 7.4313418,21.5718828 C7.4331582,21.5654648 7.43497461,21.5591074 7.43673047,21.5526895 C7.45295703,21.4937773 7.46760938,21.434502 7.48092969,21.3749238 C7.48226172,21.3688691 7.48371484,21.3628145 7.48504688,21.3567598 C7.49788281,21.297666 7.50926563,21.2382695 7.51925586,21.1785098 C7.52052734,21.1710625 7.52198047,21.1636758 7.52319141,21.1562285 C7.53245508,21.0988906 7.54020508,21.0413105 7.54680469,20.9834883 C7.54795508,20.9732559 7.5495293,20.9631445 7.55061914,20.9529121 C7.55649219,20.8976934 7.56079102,20.8421113 7.56424219,20.7864687 C7.5650293,20.7739961 7.56636133,20.7616445 7.56702734,20.7491719 C7.57047852,20.6833574 7.57235547,20.6173008 7.57241602,20.5509414 L7.57271875,20.5509414 C7.57271875,20.5482168 7.57253711,20.5454922 7.57253711,20.5427676 L7.57253711,4.24324609 L13.7652715,4.24324609 L13.7682988,3.33807031 L7.54547266,3.33540625 C7.47124219,2.71183398 7.24413086,2.11974609 6.87745898,1.60219141 C6.65888477,1.29340234 6.39550586,1.019125 6.09579883,0.788441406 C5.79245898,0.554730469 5.45763477,0.369457031 5.1004082,0.236859375 L5.09738086,0.236253906 L4.78320312,1.08512109 L4.78199219,1.08754297 L4.78501953,1.08875391 C5.90998047,1.50531641 6.665,2.59092187 6.66439453,3.78914453 L6.66439453,18.0944941 C5.96937695,17.2814102 4.93741602,16.7645215 3.78641992,16.7645215 C2.63530273,16.7645215 1.6032207,17.2815312 0.908203125,18.0947363 L0.908203125,14.5973672 L0,14.5943398 L0,20.5473086 C0,20.5479141 0,20.5485195 0,20.549125 C0,20.5497305 0,20.5503359 0,20.5508809 C0,20.5915078 0.00181640625,20.6317715 0.00308789063,20.6720957 C0.00381445313,20.6944375 0.00369335938,20.7169004 0.00478320313,20.7391816 C0.00756835938,20.7953691 0.0120488281,20.8511328 0.0172558594,20.9067148 C0.017921875,20.9139199 0.0181640625,20.921125 0.018890625,20.9283301 C0.0250058594,20.9898457 0.0326953125,21.0508164 0.0417773438,21.1114238 C0.0419589844,21.1126953 0.0420800781,21.1139668 0.0422617188,21.1152383 C0.315570313,22.9363066 1.89033398,24.3373008 3.78641992,24.3373008 L3.78641992,24.3339102 C3.78648047,24.3339102 3.78654102,24.3339102 3.78660156,24.3339102 C3.82625977,24.3338496 3.86567578,24.3320938 3.90515234,24.3308828 L31,24.3339102 L31,22.1257656 L30.0917969,22.1227383 L30.0917969,23.425707 Z M3.78660156,23.425707 C3.01826172,23.4251016 2.29533203,23.126 1.75101563,22.5822891 C1.58221094,22.4133027 1.43695898,22.2269395 1.31689453,22.0273164 C1.31211133,22.0193848 1.30769141,22.0112109 1.3030293,22.0031582 C1.28462305,21.9718555 1.26651953,21.9403711 1.24938477,21.9084629 C1.24157422,21.8939316 1.23430859,21.8790371 1.22674023,21.8643242 C1.21323828,21.838168 1.19967578,21.8120117 1.18702148,21.7854922 C1.17836328,21.7673281 1.17037109,21.7488008 1.16207617,21.7303945 C1.15129883,21.7064785 1.1402793,21.682623 1.13016797,21.6584043 C1.12211523,21.6390898 1.11472852,21.6194727 1.10709961,21.599916 C1.0976543,21.5758184 1.08790625,21.5517812 1.07912695,21.5273809 C1.07240625,21.5088535 1.06641211,21.4899629 1.06011523,21.4712539 C1.05133594,21.4452187 1.04231445,21.4193047 1.03426172,21.3930273 C1.02917578,21.3765586 1.02481641,21.3597871 1.0200332,21.3431367 C1.01173828,21.3141348 1.00332227,21.2851934 0.995935547,21.2558887 C0.992484375,21.2422656 0.989638672,21.2283398 0.986369141,21.2146562 C0.978679688,21.182082 0.970990234,21.1495078 0.964390625,21.1166309 C0.962332031,21.1062168 0.960697266,21.0956211 0.958759766,21.0851465 C0.951917969,21.0488789 0.945318359,21.0124902 0.939869141,20.9758594 C0.93871875,20.9682305 0.937992188,20.9604199 0.936902344,20.9527305 C0.931392578,20.913375 0.926246094,20.8738984 0.922310547,20.8341191 C0.921644531,20.8275195 0.921402344,20.8207988 0.920796875,20.8141992 C0.917042969,20.7735117 0.913833984,20.7327031 0.911835938,20.6917129 C0.911048828,20.6748809 0.911048828,20.6578672 0.910564453,20.6410352 C0.909595703,20.6103984 0.908324219,20.5798223 0.908324219,20.5490645 C0.909232422,18.962918 2.19991016,17.6727246 3.78641992,17.6727246 C5.37075,17.6727246 6.65997461,18.9594668 6.66439453,20.5427676 L6.66439453,20.5473086 C6.66439453,21.3156484 6.3646875,22.0385781 5.82158203,22.5822891 C5.27726563,23.126 4.55494141,23.4251016 3.78660156,23.425707 Z" id="Shape" fill-rule="nonzero"></path>
                                <polygon id="Path" points="1.60449219 16.0777383 2.51269531 16.0807656 2.51269531 13.0503945 1.60449219 13.0473672"></polygon>
                                <polygon id="Path" points="22.270957 9.93223047 21.3627539 9.92920312 21.3627539 17.8941445 11.614707 17.8941445 11.614707 13.4742227 12.9770117 13.4742227 12.9800391 12.5660195 11.614707 12.5660195 11.614707 8.14609766 16.0346289 8.14609766 16.0346289 12.5660195 13.8852148 12.5660195 13.8821875 13.4711953 16.942832 13.4742227 16.942832 8.14609766 21.3627539 8.14609766 21.3627539 9.02402734 22.270957 9.02705469 22.270957 7.24092187 10.7095312 7.23789453 10.7065039 7.23789453 10.7065039 18.7993203 22.270957 18.8023477"></polygon>
                                <rect id="Rectangle" x="11.9580078" y="19.8624023" width="1" height="1"></rect>
                                <rect id="Rectangle" x="13.4716797" y="19.8624023" width="1" height="1"></rect>
                                <rect id="Rectangle" x="10.4443359" y="19.8624023" width="1" height="1"></rect>
                                <rect id="Rectangle" x="13.4716797" y="21.6358203" width="1" height="1"></rect>
                                <rect id="Rectangle" x="11.9580078" y="21.6358203" width="1" height="1"></rect>
                                <rect id="Rectangle" x="10.4443359" y="21.6358203" width="1" height="1"></rect>
                                <polygon id="Path" points="9.19283203 10.9245937 9.19283203 5.72422266 8.28462891 5.72119531 8.28462891 10.9215664"></polygon>
                                <polygon id="Path" points="22.9775391 18.3385586 22.9745117 19.2437344 24.8575195 19.2467617 24.8575195 18.3385586 24.3701172 18.3385586 24.3701172 7.64095508 24.8575195 7.64174219 24.8575195 6.73353906 22.9775391 6.73353906 22.9745117 7.63871484 23.4619141 7.63950195 23.4619141 18.3385586"></polygon>
                                <polygon id="Path" points="22.6796484 4.78574609 21.7714453 4.78271875 21.7714453 5.27012109 11.0752344 5.27012109 11.0752344 4.78574609 10.1670313 4.78271875 10.1670313 6.66269922 11.0752344 6.66572656 11.0752344 6.17541797 21.7714453 6.17820312 21.7714453 6.66269922 22.6796484 6.66572656"></polygon>
                                <rect id="Rectangle" x="13.3203125" y="15.6241211" width="1" height="1"></rect>
                                <rect id="Rectangle" x="16.3476562" y="15.6241211" width="3.60253906" height="1"></rect>
                                <rect id="Rectangle" x="14.8339844" y="15.6241211" width="1" height="1"></rect>
                                <polygon id="Path" points="24.2562891 22.7554531 26.4819922 22.7584805 26.4819922 21.8502773 24.2593164 21.8502773"></polygon>
                            </g>
                        </g>
                    </g>
                </g>
            </g>
        </g>
    </g>
</svg>