<?xml version="1.0" encoding="UTF-8"?>
<svg width="31px" height="24px" viewBox="0 0 31 24" version="1.1" xmlns="http://www.w3.org/2000/svg" xmlns:xlink="http://www.w3.org/1999/xlink">
    <!-- Generator: Sketch 64 (93537) - https://sketch.com -->
    <title>Shape</title>
    <desc>Created with Sketch.</desc>
    <g id="Page-1" stroke="none" stroke-width="1" fill="none" fill-rule="evenodd">
        <g id="UI" transform="translate(-17.000000, -374.000000)" fill="#FFFFFF" fill-rule="nonzero">
            <g id="UL">
                <g id="Main]" transform="translate(0.000000, 233.000000)">
                    <g id="li" transform="translate(0.000000, 123.000000)">
                        <g id="Text" transform="translate(17.000000, 18.000000)">
                            <g id="book">
                                <path d="M28.5505524,7.25029152 C28.4262303,6.31566391 28.4087059,4.70589495 29.2767585,4.16535978 C29.2922644,4.15545012 29.303825,4.14113617 29.3174041,4.12884085 C30.0270951,3.90183627 30.5182362,3.5832591 30.1327001,3.15457461 L19.6637707,0 L2.71220118,2.35693886 C2.71220118,2.35693886 0.771033289,2.6344093 0.944441963,5.65043221 C1.0385781,7.29194878 1.55339084,8.09811785 2.00361113,8.49487122 L0.612579966,8.91410482 C0.226493352,9.34278931 0.717542676,9.66145823 1.42732548,9.88809579 C1.44081282,9.90075813 1.4521899,9.91498033 1.46797101,9.92488999 C2.33547313,10.4658839 2.31877452,12.0754694 2.19399367,13.0102805 C-0.922499678,13.8952681 0.196215647,14.1836575 0.196215647,14.1836575 L0.879849525,14.3490937 C0.39898452,14.7836506 -0.0785774638,15.6077121 0.0108793919,17.1705937 C0.184379817,20.1860661 1.77882211,20.3941689 1.77882211,20.3941689 L12.8718392,24 L29.6154101,19.944197 C29.6154101,19.944197 30.7344924,19.6553488 27.6171733,18.7702695 C27.491842,17.8369265 27.4744093,16.2275245 28.34393,15.6851542 C28.3598946,15.6755199 28.3715469,15.6609306 28.3844837,15.6488188 C29.0942666,15.4218142 29.5849489,15.1035123 29.199321,14.6748279 L28.4715551,14.455072 C28.9569159,14.1623701 29.6859663,13.3973995 29.8001958,11.4103294 C29.8790096,10.0435306 29.5224667,9.24305043 29.1097724,8.77179112 L30.5482386,8.42366849 C30.5483304,8.42421902 31.6674127,8.13537083 28.5505524,7.25029152 Z M14.545554,7.2116622 L17.3611971,6.6329565 L26.8764705,4.67745056 L28.2941094,4.38584968 C27.8411366,5.21495777 27.8601289,6.34961367 27.9350892,7.07889113 C27.9515126,7.24386859 27.9704132,7.3945321 27.9887633,7.50904371 L26.4370768,7.8948781 L14.4271957,10.8827319 L14.545554,7.2116622 Z M2.45071191,10.1462975 L3.86816726,10.4378983 L13.0062539,12.3165127 L13.804576,12.480022 L13.804576,12.480022 L13.804576,12.480022 L16.198625,12.97211 L16.316708,16.6432714 L3.97312997,13.5721031 L2.75624148,13.269675 C2.77413285,13.1549799 2.79303348,13.0044999 2.81019084,12.8390636 C2.88469235,12.1103367 2.90405173,10.9754055 2.45071191,10.1462975 Z M1.90002468,5.50527406 C1.88286732,4.70305051 2.02581478,4.12287671 2.31473749,3.82797261 C2.49860574,3.6396891 2.71559595,3.60050925 2.86441546,3.60050925 C2.94304574,3.60050925 2.99965588,3.61142822 3.0035094,3.61142822 L10.3075011,5.99277421 L13.9515605,7.18092391 L13.8320095,10.8776853 L3.60897175,8.01140834 L3.0694781,7.86028605 C3.04965997,7.85468893 3.02277703,7.85083517 3.00204139,7.84991761 C2.95992786,7.84688966 1.94920302,7.75384898 1.90002468,5.50527406 Z M12.8982634,22.3983973 L2.13600728,19.3809063 C2.1160974,19.3751257 2.08948972,19.3712719 2.06875407,19.3702626 C2.02590653,19.3674182 1.01472294,19.2744692 0.965819857,17.0264449 C0.948387239,16.223212 1.09206871,15.6435887 1.38044091,15.3484094 C1.56476791,15.1601259 1.78184988,15.120946 1.93039414,15.120946 C2.00920792,15.120946 2.06563455,15.131498 2.06976333,15.131498 C2.06976333,15.131498 2.07022208,15.131498 2.06976333,15.131498 L13.0170805,18.7015442 L12.8982634,22.3983973 Z M27.0007926,18.5990526 C27.0177665,18.7645806 27.0366671,18.9149689 27.0550172,19.029664 L13.4931744,22.4036274 L13.6117162,18.732466 L16.5111276,18.1363266 L16.9393278,18.2399193 L18.5442296,17.7182858 L25.942174,16.1979791 L27.3603633,15.9061947 C26.9069317,16.735211 26.9257406,17.8703257 27.0007926,18.5990526 Z M27.7478262,13.6098148 C27.7231453,13.6103654 27.6984644,13.6136686 27.6752514,13.6210091 L26.6524155,13.9073799 L16.9132706,16.6384083 L16.7941783,12.9416469 L19.9894854,11.8993894 L27.72654,9.37600502 C27.7275493,9.37554624 28.1335458,9.28534999 28.4315518,9.58842038 C28.7200158,9.88332448 28.8631467,10.4634983 28.8462646,11.2657218 C28.7958018,13.5135627 27.7846182,13.6069704 27.7478262,13.6098148 Z" id="Shape"></path>
                            </g>
                        </g>
                    </g>
                </g>
            </g>
        </g>
    </g>
</svg>