<svg width="20" height="20" viewBox="0 0 20 20" fill="none" xmlns="http://www.w3.org/2000/svg">
<path d="M4.72656 12.832H5.89844C5.89844 12.1643 6.44168 11.6211 7.10938 11.6211V10.4492C5.79547 10.4492 4.72656 11.5181 4.72656 12.832Z" fill="black"/>
<path d="M14.8438 7.20703V6.03516C13.5298 6.03516 12.4609 7.10406 12.4609 8.41797H13.6328C13.6328 7.75027 14.1761 7.20703 14.8438 7.20703Z" fill="black"/>
<path d="M20 10.332C20 9.33551 19.4627 8.45508 18.6405 7.98844C19.1305 7.34527 19.4141 6.54699 19.4141 5.70312C19.4141 3.62461 17.723 1.93359 15.6445 1.93359C15.2974 1.93359 14.9563 1.98152 14.6296 2.07301C14.2434 1.05656 13.2596 0.332031 12.1094 0.332031C11.2558 0.332031 10.4942 0.731328 10 1.35242C9.50578 0.731328 8.74418 0.332031 7.89062 0.332031C6.74035 0.332031 5.7566 1.05656 5.37039 2.07301C5.04367 1.98152 4.70258 1.93359 4.35547 1.93359C2.27695 1.93359 0.585938 3.62461 0.585938 5.70312C0.585938 6.54699 0.869531 7.34527 1.35953 7.98844C0.537266 8.45508 0 9.33551 0 10.332C0 11.0271 0.271211 11.688 0.73668 12.1823C0.444414 12.6131 0.273438 13.1327 0.273438 13.6914C0.273438 15.1776 1.48254 16.3867 2.96875 16.3867C3.00535 16.3867 3.0418 16.3858 3.07812 16.3843C3.31723 18.2342 4.9025 19.668 6.81641 19.668C8.15387 19.668 9.33074 18.9677 10 17.9147C10.6693 18.9677 11.8461 19.668 13.1836 19.668C15.0975 19.668 16.6828 18.2342 16.9219 16.3843C16.9582 16.3858 16.9946 16.3867 17.0312 16.3867C18.5175 16.3867 19.7266 15.1776 19.7266 13.6914C19.7266 13.1327 19.5556 12.6131 19.2633 12.1823C19.7288 11.688 20 11.0271 20 10.332ZM6.81641 18.4961C5.4434 18.4961 4.31648 17.4252 4.22539 16.0748C4.74937 15.7984 5.17961 15.3518 5.43066 14.7897L4.36066 14.3118C4.1157 14.8604 3.56934 15.2148 2.96875 15.2148C2.12871 15.2148 1.44531 14.5314 1.44531 13.6914C1.44531 12.8514 2.12871 12.168 2.96875 12.168V10.9961C2.46469 10.9961 1.9927 11.1355 1.58871 11.3773C1.32566 11.0979 1.17188 10.7248 1.17188 10.332C1.17188 9.63457 1.63691 9.03777 2.29676 8.86109C2.53945 9.0198 2.80285 9.15187 3.08359 9.2525L3.47895 8.14934C2.44949 7.78039 1.75781 6.79734 1.75781 5.70312C1.75781 4.27078 2.92313 3.10547 4.35547 3.10547C5.20539 3.10547 6.00312 3.52266 6.48941 4.22141L7.45129 3.55199C7.1757 3.15602 6.8309 2.82273 6.43973 2.5632C6.63652 1.94949 7.21238 1.50391 7.89062 1.50391C8.73066 1.50391 9.41406 2.1873 9.41406 3.02734V8.33984H9.26957C8.19262 8.33984 7.31645 7.46367 7.31645 6.38672H6.14457C6.14457 8.10984 7.54644 9.51172 9.26957 9.51172H9.41406V15.8984C9.41406 17.3308 8.24875 18.4961 6.81641 18.4961ZM17.0312 15.2148C16.4307 15.2148 15.8843 14.8604 15.6393 14.3118L14.5693 14.7897C14.8204 15.3519 15.2506 15.7984 15.7746 16.0748C15.6835 17.4252 14.5566 18.4961 13.1836 18.4961C11.7512 18.4961 10.5859 17.3308 10.5859 15.8984V3.02734C10.5859 2.1873 11.2693 1.50391 12.1093 1.50391C12.7876 1.50391 13.3634 1.94949 13.5602 2.5632C13.1691 2.82273 12.8242 3.15602 12.5487 3.55199L13.5105 4.22141C13.9969 3.52266 14.7946 3.10547 15.6445 3.10547C17.0769 3.10547 18.2422 4.27078 18.2422 5.70312C18.2422 6.79734 17.5505 7.78039 16.5211 8.14934L16.9164 9.2525C17.1971 9.15187 17.4605 9.0198 17.7032 8.86109C18.3631 9.03777 18.8281 9.63457 18.8281 10.332C18.8281 10.7248 18.6743 11.0979 18.4113 11.3773C18.0073 11.1355 17.5354 10.9961 17.0312 10.9961V12.168C17.8713 12.168 18.5547 12.8514 18.5547 13.6914C18.5547 14.5314 17.8713 15.2148 17.0312 15.2148Z" fill="black"/>
<path d="M13.6417 11.6556C13.2679 11.4118 12.8223 11.2695 12.3438 11.2695V12.4414C13.0114 12.4414 13.5547 12.9846 13.5547 13.6523H14.7266C14.7266 13.265 14.633 12.8992 14.4683 12.5755C15.2038 12.1694 15.7031 11.3862 15.7031 10.4883H14.5312C14.5312 11.0447 14.1539 11.5144 13.6417 11.6556Z" fill="black"/>
</svg>
