<svg id="briefcase" xmlns="http://www.w3.org/2000/svg" width="34" height="29" viewBox="0 0 34 29">
  <path id="Path_165" data-name="Path 165" d="M14,11H10v2h4Z" transform="translate(5 3.294)" fill="#fff"/>
  <path id="Path_166" data-name="Path 166" d="M10.273,6.579V5.053A3.072,3.072,0,0,1,13.364,2h9.273a3.072,3.072,0,0,1,3.091,3.053V6.579h4.636A4.608,4.608,0,0,1,35,11.158V26.421A4.608,4.608,0,0,1,30.364,31H5.636A4.608,4.608,0,0,1,1,26.421V11.158A4.608,4.608,0,0,1,5.636,6.579Zm3.091-1.526h9.273V6.579H13.364ZM5.636,9.632a1.536,1.536,0,0,0-1.545,1.526v9.158H31.909V11.158a1.536,1.536,0,0,0-1.545-1.526ZM4.091,26.421V23.368H31.909v3.053a1.536,1.536,0,0,1-1.545,1.526H5.636A1.536,1.536,0,0,1,4.091,26.421Z" transform="translate(-1 -2)" fill="#fff" fill-rule="evenodd"/>
</svg>
