<svg enable-background="new 0 0 438.53 438.53" viewBox="0 0 438.53 438.53" xmlns="http://www.w3.org/2000/svg"><path d="m409.13 109.2c-19.61-33.59-46.21-60.19-79.8-79.8-33.59-19.6-70.27-29.4-110.06-29.4-39.78 0-76.47 9.8-110.06 29.41-33.6 19.6-60.19 46.2-79.8 79.8-19.61 33.59-29.41 70.28-29.41 110.06s9.8 76.46 29.41 110.06c19.61 33.59 46.2 60.19 79.8 79.8s70.28 29.41 110.06 29.41 76.47-9.8 110.07-29.41c33.59-19.6 60.19-46.21 79.8-79.8 19.6-33.6 29.4-70.28 29.4-110.06-.01-39.78-9.81-76.48-29.41-110.07zm-47.68 76.66-155.03 155.03c-3.62 3.62-7.99 5.43-13.13 5.43-4.95 0-9.23-1.81-12.85-5.43l-103.36-103.35c-3.42-3.43-5.14-7.7-5.14-12.85 0-5.33 1.71-9.71 5.14-13.14l25.98-25.69c3.62-3.62 7.9-5.42 12.85-5.42s9.24 1.81 12.85 5.42l64.52 64.52 116.48-116.2c3.62-3.62 7.9-5.43 12.85-5.43s9.23 1.81 12.85 5.43l25.98 25.7c3.43 3.42 5.14 7.8 5.14 13.13.01 5.14-1.7 9.43-5.13 12.85z" fill="#c7eeff"/></svg>