<?xml version="1.0" encoding="UTF-8"?>
<svg width="28px" height="34px" viewBox="0 0 28 34" version="1.1" xmlns="http://www.w3.org/2000/svg" xmlns:xlink="http://www.w3.org/1999/xlink">
    <!-- Generator: Sketch 64 (93537) - https://sketch.com -->
    <title>classes</title>
    <desc>Created with Sketch.</desc>
    <g id="Page-1" stroke="none" stroke-width="1" fill="none" fill-rule="evenodd">
        <g id="UI" transform="translate(-19.000000, -309.000000)" fill="#FFFFFF">
            <g id="UL">
                <g id="Main]" transform="translate(0.000000, 233.000000)">
                    <g id="li-hover" transform="translate(0.000000, 62.000000)">
                        <g id="Text" transform="translate(19.000000, 14.000000)">
                            <g id="classes">
                                <circle id="Oval" cx="14" cy="5.53488372" r="5.53488372"></circle>
                                <path d="M18.0670977,11.8195814 C16.8952,12.5805953 15.4983907,13.0232558 14,13.0232558 C12.5016093,13.0232558 11.1048,12.5805953 9.93290233,11.8195814 C8.63741395,12.3146605 7.43627907,13.0450698 6.39187907,13.9824837 L14,16.8355535 L21.6081209,13.9824837 C20.5637209,13.0450698 19.362586,12.3145953 18.0670977,11.8195814 Z" id="Path"></path>
                                <path d="M25.7209302,20.1860465 L25.0697674,20.1860465 C24.5303442,20.1860465 24.0930233,20.6233674 24.0930233,21.1627907 L24.0930233,23.7674419 C24.0930233,24.3068651 24.5303442,24.744186 25.0697674,24.744186 L25.7209302,24.744186 C26.9796279,24.744186 28,23.723814 28,22.4651163 C28,21.2064186 26.9796279,20.1860465 25.7209302,20.1860465 Z" id="Path"></path>
                                <path d="M3.02504186,15.2551814 C2.76171163,15.4377023 2.60465116,15.7376279 2.60465116,16.058 L2.60465116,18.2325581 L2.93023256,18.2325581 C4.54596279,18.2325581 5.86046512,19.5470605 5.86046512,21.1627907 L5.86046512,23.7674419 C5.86046512,25.3831721 4.54596279,26.6976744 2.93023256,26.6976744 L2.60465116,26.6976744 L2.60465116,28.7556744 C2.60465116,29.1628465 2.85723721,29.5273023 3.23842791,29.6702326 L13.0232558,33.3395349 L13.0232558,18.5555349 L3.92436279,15.1434419 C3.62437209,15.0308558 3.28830698,15.0725953 3.02504186,15.2551814 Z" id="Path"></path>
                                <path d="M22.1395349,23.7674419 L22.1395349,21.1627907 C22.1395349,19.5470605 23.4540372,18.2325581 25.0697674,18.2325581 L25.3953488,18.2325581 L25.3953488,16.058 C25.3953488,15.7376279 25.2382884,15.4377023 24.9749581,15.2551814 C24.7116279,15.0725953 24.3754977,15.0308558 24.0756372,15.1434419 L14.9767442,18.5555349 L14.9767442,33.3395349 L24.7615721,29.6702326 C25.1427628,29.5273023 25.3953488,29.1628465 25.3953488,28.7556744 L25.3953488,26.6976744 L25.0697674,26.6976744 C23.4540372,26.6976744 22.1395349,25.3831721 22.1395349,23.7674419 L22.1395349,23.7674419 Z" id="Path"></path>
                                <path d="M3.90697674,23.7674419 L3.90697674,21.1627907 C3.90697674,20.6233674 3.46965581,20.1860465 2.93023256,20.1860465 L2.27906977,20.1860465 C1.02037209,20.1860465 0,21.2064186 0,22.4651163 C0,23.723814 1.02037209,24.744186 2.27906977,24.744186 L2.93023256,24.744186 C3.46965581,24.744186 3.90697674,24.3068651 3.90697674,23.7674419 Z" id="Path"></path>
                            </g>
                        </g>
                    </g>
                </g>
            </g>
        </g>
    </g>
</svg>