<?xml version="1.0" encoding="UTF-8"?>
<svg width="30px" height="33px" viewBox="0 0 30 33" version="1.1" xmlns="http://www.w3.org/2000/svg" xmlns:xlink="http://www.w3.org/1999/xlink">
    <!-- Generator: Sketch 64 (93537) - https://sketch.com -->
    <title>cogwheels</title>
    <desc>Created with Sketch.</desc>
    <g id="Page-1" stroke="none" stroke-width="1" fill="none" fill-rule="evenodd">
        <g id="Class-Hub" transform="translate(-1604.000000, -494.000000)" fill="#FFFFFF">
            <g id="Normal" transform="translate(396.000000, 271.000000)">
                <g id="Button" transform="translate(1007.000000, 210.000000)">
                    <g id="text" transform="translate(11.000000, 13.000000)">
                        <g id="cogwheels" transform="translate(190.000000, 0.000000)">
                            <circle id="Oval" cx="14.8009901" cy="14.9888614" r="4.53341584"></circle>
                            <path d="M7.75297426,24.8383485 C7.02004752,25.9835465 6.63267327,27.3075327 6.63267327,28.6670673 L6.63267327,33 L22.9693069,33 L22.9693069,28.6670673 C22.9693069,27.3074673 22.5819327,25.9835465 21.8490059,24.8382832 C20.5369782,22.7882317 18.3005584,21.5643564 15.866596,21.5643564 L13.7353842,21.5643564 C11.3014218,21.5643564 9.06500198,22.7882317 7.75297426,24.8383485 Z" id="Path"></path>
                            <path d="M29.4386139,17.6553921 L29.4386139,11.7505485 L25.8691248,10.9007168 C25.7081109,10.4295683 25.5165802,9.96789505 25.296297,9.51987921 L27.2198376,6.39409307 L23.0444554,2.21871089 L19.9186693,4.14231683 C19.4707188,3.92203366 19.0090455,3.73050297 18.537897,3.56948911 L17.6880653,0 L11.7832871,0 L10.9333901,3.56948911 C10.4622416,3.73050297 10.0005683,3.92203366 9.55261782,4.14231683 L6.42683168,2.21871089 L2.25138416,6.39409307 L4.17492475,9.51987921 C3.95464158,9.96789505 3.76311089,10.4295683 3.60209703,10.9007168 L0.0326732673,11.7504832 L0.0326732673,17.6553267 L3.60216238,18.5052238 C3.76317624,18.9763723 3.95470693,19.4380455 4.1749901,19.8860614 L2.24236634,23.0265505 L5.13747921,25.799596 C5.37292277,25.0939188 5.69566931,24.4161446 6.10179802,23.7815644 C7.22608515,22.0248535 8.8827505,20.7445842 10.7900198,20.0924257 C9.27907723,18.9024 8.30724356,17.0570139 8.30724356,14.9888614 C8.30724356,11.408198 11.2203921,8.4950495 14.8010554,8.4950495 C18.3817188,8.4950495 21.2948673,11.408198 21.2948673,14.9888614 C21.2948673,17.0570139 20.3230337,18.9024 18.8120911,20.0924257 C20.7193604,20.7445842 22.3759604,22.0248535 23.5002475,23.7815644 C23.9245426,24.444505 24.2570257,25.1546911 24.4948218,25.8944792 C24.4947564,25.8944792 24.4947564,25.8942178 24.4946911,25.8941525 L27.2057228,22.9887802 L25.2964277,19.8861921 C25.5167109,19.4381762 25.7082416,18.976503 25.8692554,18.5053545 L29.4386139,17.6553921 Z" id="Path"></path>
                        </g>
                    </g>
                </g>
            </g>
        </g>
    </g>
</svg>