<svg width="20" height="20" viewBox="0 0 20 20" fill="none" xmlns="http://www.w3.org/2000/svg">
<path d="M17.0711 2.92891C15.1823 1.04016 12.6711 0 10 0C7.32891 0 4.81766 1.04016 2.92891 2.92891C1.0402 4.81766 0 7.32891 0 10C0 12.6711 1.0402 15.1823 2.92891 17.0711C4.81766 18.9598 7.32891 20 10 20C12.6711 20 15.1823 18.9598 17.0711 17.0711C18.9598 15.1823 20 12.6711 20 10C20 7.32891 18.9598 4.81766 17.0711 2.92891ZM10 18.8281C5.13215 18.8281 1.17188 14.8679 1.17188 10C1.17188 5.13215 5.13215 1.17188 10 1.17188C14.8679 1.17188 18.8281 5.13215 18.8281 10C18.8281 14.8679 14.8679 18.8281 10 18.8281Z" fill="#333333"/>
<path d="M10.6276 9.41407H9.3724C8.65728 9.41407 8.07553 8.83231 8.07553 8.11723C8.07553 7.40212 8.65732 6.82036 9.3724 6.82036H11.8828C12.2064 6.82036 12.4688 6.55801 12.4688 6.23442C12.4688 5.91083 12.2064 5.64848 11.8828 5.64848H10.586V4.35161C10.586 4.02801 10.3236 3.76567 10 3.76567C9.67643 3.76567 9.41408 4.02801 9.41408 4.35161V5.64848H9.37244C8.01115 5.64848 6.90369 6.75598 6.90369 8.11723C6.90369 9.47848 8.01119 10.5859 9.37244 10.5859H10.6277C11.3428 10.5859 11.9245 11.1677 11.9245 11.8828C11.9245 12.5979 11.3428 13.1797 10.6277 13.1797H8.11724C7.79365 13.1797 7.53131 13.442 7.53131 13.7656C7.53131 14.0892 7.79365 14.3516 8.11724 14.3516H9.41408V15.6485C9.41408 15.9721 9.67643 16.2344 10 16.2344C10.3236 16.2344 10.586 15.9721 10.586 15.6485V14.3516H10.6276C11.9889 14.3516 13.0964 13.2441 13.0964 11.8828C13.0964 10.5216 11.9889 9.41407 10.6276 9.41407Z" fill="#333333"/>
</svg>
