<svg xmlns="http://www.w3.org/2000/svg" width="24.117" height="18.931" viewBox="0 0 24.117 18.931"><g transform="translate(0 -55.042)"><rect width="1.069" height="1.069" transform="translate(12.626 70.969)" fill="#fff"/><circle cx="0.34" cy="0.34" r="0.34" transform="translate(2.606 70.688)" fill="#fff"/><rect width="1.069" height="1.069" transform="translate(15.642 70.969)" fill="#fff"/><path d="M19.48,349.118a2.239,2.239,0,0,0-4.478,0c0,.024,0,.048,0,.072s0,.026,0,.039c0,.032,0,.064.007.1,0,.005,0,.01,0,.016,0,.031.007.062.011.092,0,.006,0,.012,0,.018,0,.029.009.057.015.085l0,.024c.005.026.011.051.017.076l.007.032c.006.023.012.045.019.068s.007.026.011.039.013.041.02.061.01.029.015.044.014.038.022.056l.018.046c.008.019.016.037.025.056l.019.043c.01.021.02.041.031.061l.018.034c.013.025.027.049.042.074l.011.019a2.254,2.254,0,0,0,.338.432,2.239,2.239,0,0,0,3.822-1.583Zm-3.028-1.806.282.648a1.283,1.283,0,0,0-.444.323l-.529-.469A2,2,0,0,1,16.452,347.312Zm-.481,1.813h-.707a1.96,1.96,0,0,1,.184-.833l.641.3A1.259,1.259,0,0,0,15.971,349.124Zm.224,0a1.046,1.046,0,1,1,1.046,1.046A1.047,1.047,0,0,1,16.195,349.124Zm1.046,1.977v-.707a1.27,1.27,0,1,0,0-2.54,1.286,1.286,0,0,0-.153.009l-.084-.7a1.977,1.977,0,1,1,.237,3.939Z" transform="translate(-14.295 -278.096)" fill="#fff"/><path d="M319.567,378.186h-2.482v2.482h2.482Zm-.707,1.775h-1.069v-1.069h1.069Z" transform="translate(-302.149 -307.923)" fill="#fff"/><path d="M255.537,380.668v-2.482h-2.482v2.482Zm-1.775-1.775h1.069v1.069h-1.069Z" transform="translate(-241.135 -307.923)" fill="#fff"/><rect width="0.707" height="0.707" transform="translate(3.584 57.264)" fill="#fff"/><rect width="0.707" height="7.178" transform="translate(3.584 59.619)" fill="#fff"/><rect width="0.707" height="0.707" transform="translate(3.584 58.442)" fill="#fff"/><rect width="0.707" height="10.076" transform="translate(21.879 61.645)" fill="#fff"/><rect width="0.707" height="0.707" transform="translate(21.879 59.29)" fill="#fff"/><rect width="0.707" height="0.707" transform="translate(21.879 60.467)" fill="#fff"/><path d="M.707,57.988a2.239,2.239,0,0,1,2.239-2.239c.061,0,.123,0,.183.008h0l.057-.7h0c-.079-.007-.16-.01-.24-.01A2.944,2.944,0,0,0,0,57.988v7.7l.707,0Z" transform="translate(0 0)" fill="#fff"/><path d="M42.417,373.254A1.046,1.046,0,1,0,41.37,374.3,1.047,1.047,0,0,0,42.417,373.254Zm-1.386,0a.34.34,0,1,1,.34.34A.34.34,0,0,1,41.03,373.254Z" transform="translate(-38.425 -302.227)" fill="#fff"/><path d="M57.735,352.458a2,2,0,0,0-.237.014l.084.7a1.286,1.286,0,0,1,.153-.009,1.27,1.27,0,1,1,0,2.54v.707a1.977,1.977,0,0,0,0-3.953Z" transform="translate(-54.79 -283.407)" fill="#fff"/><path d="M20.573,377.558h.707a1.259,1.259,0,0,1,.118-.535l-.641-.3A1.961,1.961,0,0,0,20.573,377.558Z" transform="translate(-19.604 -306.531)" fill="#fff"/><path d="M32.106,356.587l-.282-.648a2,2,0,0,0-.69.5l.529.469A1.281,1.281,0,0,1,32.106,356.587Z" transform="translate(-29.668 -286.724)" fill="#fff"/><path d="M242.3,110.082l0,.707h12v13.205l.707,0V110.082Z" transform="translate(-230.887 -52.447)" fill="#fff"/><path d="M23.41,76.942H4.86l.027-.025.068-.062L5,76.813l.028-.027.038-.04.04-.042c.024-.026.048-.053.071-.08l.028-.032q.046-.055.09-.113l0,0a2.923,2.923,0,0,0,.253-.4l0-.008q.033-.063.063-.128l.009-.02c.011-.024.023-.049.033-.073s.012-.032.019-.048l.01-.024q.024-.062.046-.125l.006-.019q.022-.066.041-.133l0-.015q.019-.069.034-.138l0-.014q.015-.069.027-.139l0-.017c.007-.045.013-.089.018-.134,0-.008,0-.016,0-.024,0-.043.008-.086.011-.129,0-.01,0-.019,0-.029q0-.077,0-.154h0s0,0,0-.006V62.019h4.818l0-.7-4.841,0a2.95,2.95,0,0,0-1.9-2.411h0l-.244.66v0h0a2.248,2.248,0,0,1,1.462,2.1V72.795a2.94,2.94,0,0,0-4.478,0V70.074l-.707,0V74.7H0c0,.032,0,.063,0,.094s0,.035,0,.052c0,.044.006.087.01.13,0,.006,0,.011,0,.017q.007.072.018.142v0a2.95,2.95,0,0,0,2.913,2.507v0h0l.092,0,21.079,0V75.931l-.707,0Zm-20.464,0a2.229,2.229,0,0,1-1.584-.656,2.256,2.256,0,0,1-.338-.432l-.011-.019C1,75.811.985,75.787.972,75.762l-.018-.034c-.011-.02-.021-.041-.031-.061L.9,75.623C.9,75.6.887,75.586.879,75.567l-.018-.046C.854,75.5.846,75.484.84,75.466s-.01-.029-.015-.044-.014-.04-.02-.061S.8,75.335.794,75.322s-.013-.045-.019-.068l-.007-.032C.761,75.2.755,75.172.75,75.146l0-.024c-.005-.028-.01-.057-.015-.085,0-.006,0-.012,0-.018,0-.031-.008-.061-.011-.092,0-.005,0-.01,0-.015,0-.032-.005-.063-.007-.1,0-.013,0-.026,0-.039s0-.048,0-.072a2.239,2.239,0,0,1,4.478,0v0a2.239,2.239,0,0,1-2.239,2.239Z" transform="translate(0 -3.678)" fill="#fff"/><path d="M26.5,272.85l.707,0v-2.357l-.707,0Z" transform="translate(-25.252 -205.302)" fill="#fff"/><path d="M185.827,176.638l-.707,0v6.2h-7.583v-3.439h1.06l0-.707h-1.062v-3.438h3.438v3.438H179.3l0,.7,2.381,0v-4.145h3.438v.683l.707,0v-1.389l-8.994,0h0v8.994l9,0Z" transform="translate(-168.501 -113.871)" fill="#fff"/><rect width="0.707" height="0.707" transform="translate(9.303 70.492)" fill="#fff"/><rect width="0.707" height="0.707" transform="translate(10.48 70.492)" fill="#fff"/><rect width="0.707" height="0.707" transform="translate(8.125 70.492)" fill="#fff"/><rect width="0.707" height="0.707" transform="translate(10.48 71.872)" fill="#fff"/><rect width="0.707" height="0.707" transform="translate(9.303 71.872)" fill="#fff"/><rect width="0.707" height="0.707" transform="translate(8.125 71.872)" fill="#fff"/><path d="M137.537,153.54v-4.046l-.707,0v4.046Z" transform="translate(-130.385 -90.001)" fill="#fff"/><path d="M379.452,175.24l0,.7,1.465,0v-.707h-.379v-8.322h.379v-.707h-1.463l0,.7h.379v8.323Z" transform="translate(-361.577 -105.934)" fill="#fff"/><path d="M177.654,133.994l-.707,0v.379h-8.321v-.377l-.707,0v1.463l.707,0v-.381l8.321,0v.377l.707,0Z" transform="translate(-160.011 -75.231)" fill="#fff"/><rect transform="translate(11.141 68.042)" fill="#fff"/><rect width="2.803" height="0.707" transform="translate(12.718 67.195)" fill="#fff"/><rect transform="translate(12.141 68.042)" fill="#fff"/><path d="M400.62,416.586l1.732,0v-.707h-1.729Z" transform="translate(-381.75 -343.844)" fill="#fff"/><rect width="8" height="8" transform="translate(9.142 61.042)" fill="#fff"/></g></svg>