<svg xmlns="http://www.w3.org/2000/svg" width="19.692" height="32" viewBox="0 0 19.692 32"><g transform="translate(-60 -263)"><path d="M76,263H63.692A3.7,3.7,0,0,0,60,266.692v16.154a2.31,2.31,0,0,0,2.308,2.308h.154v1.231a2.464,2.464,0,0,0,2.462,2.462h1.231v4.923a1.231,1.231,0,0,0,1.883,1.044l4.923-3.077a1.232,1.232,0,0,0,.578-1.044v-1.846h1.231a2.464,2.464,0,0,0,2.462-2.462v-1.231h.154a2.31,2.31,0,0,0,2.308-2.308V266.692A3.7,3.7,0,0,0,76,263Zm-12.308,2.462H76a1.231,1.231,0,0,1,0,2.462H63.692a1.231,1.231,0,0,1,0-2.462Zm7.385,24.548-2.462,1.538v-2.7h2.462Zm3.692-3.625H64.923v-1.231h9.846Zm-12.308-3.692V270.158a3.651,3.651,0,0,0,1.231.226H76a3.651,3.651,0,0,0,1.231-.226v12.534Z" fill="#fff"/><path d="M66.231,270A1.23,1.23,0,0,0,65,271.231v7.385a1.231,1.231,0,1,0,2.462,0v-7.385A1.23,1.23,0,0,0,66.231,270Z" transform="translate(1.154 1.615)" fill="#fff"/><path d="M70.231,270A1.23,1.23,0,0,0,69,271.231v7.385a1.231,1.231,0,0,0,2.462,0v-7.385A1.23,1.23,0,0,0,70.231,270Z" transform="translate(2.077 1.615)" fill="#fff"/></g></svg>