<svg id="dollar" xmlns="http://www.w3.org/2000/svg" width="15.211" height="26" viewBox="0 0 15.211 26">
  <path id="dollar-2" data-name="dollar" d="M12.338,23.98v3.879h2.535V23.98h1.268a5.173,5.173,0,0,0,0-10.344H14.873V8.465h2.535v2.586h2.535V5.879h-5.07V2H12.338V5.879H11.07a5.173,5.173,0,0,0,0,10.344h1.268v5.172H9.8V18.808H7.268V23.98Zm2.535-2.586h1.268a2.586,2.586,0,0,0,0-5.172H14.873Zm-2.535-7.758V8.465H11.07a2.586,2.586,0,0,0,0,5.172Z" transform="translate(-6 -2)" fill="#fff" fill-rule="evenodd"/>
</svg>
