<svg height="75" viewBox="0 0 58 75" width="58" xmlns="http://www.w3.org/2000/svg"><g fill="#fff" fill-rule="evenodd"><path d="m19.4465733 26.9114294c-.5954311.5956081-.5954311 1.5618573 0 2.1574653l9.4756512 9.4841081c.2973108.2979813.6879581.4469972 1.0777961.4469972.3898379 0 .7804346-.1490159 1.0781501-.4469972l9.4756512-9.4841081c.5930534-.5939878.5954311-1.5566925.0039459-2.1530601-.5914851-.5971778-1.542809-.6027475-2.1406178-.0135193l-6.8724992 6.7747318v-32.15134254c0-.84270214-.7013642-1.52570456-1.5429608-1.52570456-.8419507 0-1.5429608.68300242-1.5429608 1.52570456v32.26496524l-6.8650627-6.8792404c-.5954311-.5959625-1.5516621-.5959625-2.1470932 0z"/><path d="m37.8643324 19.0932293c-1.0364671-.3276732-2.1415882.2361695-2.4723936 1.2560481-.3318496 1.0214251.2376134 2.1146354 1.2720574 2.4423086 10.4088525 3.2963208 17.4030803 12.769715 17.4030803 23.5734556 0 13.6480208-11.2445783 24.7515969-25.0670765 24.7515969-13.8219761 0-25.06707653-11.1035761-25.06707653-24.7515969 0-10.8037406 6.99370573-20.2770704 17.40308033-23.5734556 1.0339219-.3276732 1.603385-1.4208835 1.2720574-2.4423086-.3323716-1.0209096-1.4410168-1.5832057-2.4734378-1.2560481-12.04297517 3.8140894-20.1346234 14.7735795-20.1346234 27.2717479 0 15.7894629 13.0092872 28.6350228 29 28.6350228s29-12.8455599 29-28.6350228c0-12.4981684-8.0921703-23.4576585-20.1356676-27.2717479z"/><path d="m41.5969057 51.6627131-2.0274836-1.9436247v-6.4448685c0-.4100692-.3159842-.7425631-.7057966-.7425631h-4.8803887c-.3897655 0-.7057966.3324446-.7057966.7425631v.412979l-2.4485616-2.3473321c-.4726405-.4531722-1.1853746-.4531228-1.6578275-.0000493l-10.7680271 10.3229449c-.3785624.3629717-.5036717.9222243-.318703 1.4247133.1850155.5024889.6354841.8271415 1.147687.8271415h1.7197962v10.3427703c0 .4100693.3159843.7426125.7057966.7426125h5.9021697c.3897654 0 .7057966-.3324939.7057966-.7426125v-6.2798051h3.4687955v6.2798544c0 .4100693.3159843.7425632.7057966.7425632h5.9019353c.3897654 0 .7057966-.3324446.7057497-.7425632v-10.3427703h1.7201712c.5121561 0 .9626715-.3247019 1.1476871-.8271415.1849218-.5025383.0598593-1.0617909-.3187968-1.4248119zm-3.3404476 1.1025888c-.392135 0-.7100875.328745-.7100875.7342996v10.2276712h-4.5175937v-6.2099693c0-.4055058-.3179524-.7342996-.7100875-.7342996h-4.9101061c-.392135 0-.7100875.328745-.7100875.7342996v6.2099693h-4.5179238v-10.2276712c0-.4055058-.3179053-.7342996-.7100875-.7342996h-1.9704845l10.3636835-9.7653019 3.5292626 3.3255379c.2078811.1958522.5079599.2463271.7651231.1289425.2572104-.1175308.4231663-.3809755.4231663-.6717302v-1.3365843h3.4899312v5.9631545c0 .20663.0841333.4036039.2318383.5427877l1.9242677 1.8131938z" fill-rule="nonzero"/></g></svg>