<?xml version="1.0" encoding="UTF-8"?>
<svg width="31px" height="30px" viewBox="0 0 31 30" version="1.1" xmlns="http://www.w3.org/2000/svg" xmlns:xlink="http://www.w3.org/1999/xlink">
    <!-- Generator: Sketch 63.1 (92452) - https://sketch.com -->
    <title>edit</title>
    <desc>Created with Sketch.</desc>
    <g id="Page-1" stroke="none" stroke-width="1" fill="none" fill-rule="evenodd">
        <g id="Project-Page" transform="translate(-512.000000, -234.000000)" fill="#ED5252">
            <g id="Header" transform="translate(0.000000, 84.000000)">
                <g id="Header-Content" transform="translate(151.000000, 34.000000)">
                    <g id="CODE-BTN" transform="translate(342.000000, 110.000000)">
                        <g id="edit" transform="translate(19.000000, 6.000000)">
                            <path d="M27.7942383,18.8229492 C27.3799805,18.8229492 27.0442383,19.1586914 27.0442383,19.5729492 L27.0442383,26.2321289 C27.0427734,27.4743164 26.0364258,28.4809571 24.7942383,28.4821289 L3.75,28.4821289 C2.5078125,28.4809571 1.50146483,27.4743164 1.5,26.2321289 L1.5,6.68789062 C1.50146483,5.44599608 2.5078125,4.43935545 3.75,4.43789062 L10.4091796,4.43789062 C10.8234375,4.43789062 11.1591797,4.1021484 11.1591797,3.68789063 C11.1591797,3.2739258 10.8234375,2.93789063 10.4091796,2.93789063 L3.75,2.93789063 C1.67988285,2.94023438 0.00234375,4.6177734 0,6.68789062 L0,26.2324219 C0.00234375,28.3025391 1.67988285,29.9800781 3.75,29.9824219 L24.7942383,29.9824219 C26.8643554,29.9800781 28.5418946,28.3025391 28.5442383,26.2324219 L28.5442383,19.5729492 C28.5442383,19.1586914 28.2084961,18.8229492 27.7942383,18.8229492 Z" id="Path"></path>
                            <path d="M28.247168,1.00810545 C26.9291016,-0.3099609 24.7921875,-0.3099609 23.4741211,1.00810545 L10.0936523,14.3885742 C10.0019531,14.4802734 9.93574215,14.5939454 9.90117188,14.71875 L8.1416016,21.0711914 C8.0692383,21.3316406 8.1427734,21.6105469 8.3337891,21.8018555 C8.52509768,21.9928711 8.80400393,22.0664063 9.06445313,21.9943359 L15.4168946,20.2344727 C15.5416992,20.1999023 15.6553711,20.1336914 15.7470704,20.0419921 L29.1272461,6.66123045 C30.4432617,5.34228517 30.4432617,3.20712892 29.1272461,1.88818357 L28.247168,1.00810545 Z M11.727832,14.8760742 L22.6787109,3.92490233 L26.2104492,7.45664063 L15.2592773,18.4078125 L11.727832,14.8760742 Z M11.0223633,16.2916992 L13.8439453,19.1135742 L9.94101562,20.1949219 L11.0223633,16.2916992 Z M28.0666992,5.60068358 L27.2712891,6.39609375 L23.7392578,2.8640625 L24.5349609,2.06865232 C25.2670898,1.3365234 26.4541992,1.3365234 27.1863281,2.06865232 L28.0666992,2.94873045 C28.7976562,3.6817383 28.7976562,4.86796875 28.0666992,5.60068358 L28.0666992,5.60068358 Z" id="Shape" fill-rule="nonzero"></path>
                        </g>
                    </g>
                </g>
            </g>
        </g>
    </g>
</svg>