<?xml version="1.0" encoding="UTF-8"?>
<svg width="45px" height="45px" viewBox="0 0 45 45" version="1.1" xmlns="http://www.w3.org/2000/svg" xmlns:xlink="http://www.w3.org/1999/xlink">
    <!-- Generator: Sketch 61 (89581) - https://sketch.com -->
    <title>expand</title>
    <desc>Created with Sketch.</desc>
    <g id="Page-1" stroke="none" stroke-width="1" fill="none" fill-rule="evenodd">
        <g id="Custom-Preset-8" transform="translate(-1825.000000, -32.000000)" fill="#FFFFFF">
            <g id="Control-Group" transform="translate(1684.000000, 17.000000)">
                <g id="expand" transform="translate(141.000000, 15.000000)">
                    <path d="M29.4508301,18.2008301 L41.2499707,6.40168945 L41.2499707,11.25 C41.2499707,12.2855273 42.0894141,13.1249707 43.1249414,13.1249707 C44.1604688,13.1249707 45,12.2855273 45,11.25 L45,1.87514648 C45,1.81335938 44.996748,1.75157227 44.9906836,1.68996094 C44.987959,1.6621875 44.9827734,1.63529297 44.9788184,1.60795898 C44.9740723,1.57482422 44.9702051,1.54160156 44.9637012,1.50864258 C44.9574609,1.47717773 44.9488477,1.44667969 44.9410254,1.41583008 C44.9339062,1.38744141 44.927666,1.35887695 44.9191406,1.33075195 C44.91,1.30042969 44.8985742,1.27116211 44.8879395,1.24154297 C44.877832,1.21350586 44.8686035,1.18520508 44.8571777,1.15751953 C44.845752,1.12983398 44.8322168,1.10337891 44.8195605,1.07639648 C44.8061133,1.04791992 44.793457,1.01917969 44.7785156,0.991230469 C44.7646289,0.965390625 44.7488965,0.94078125 44.7338672,0.915644531 C44.7175195,0.888310547 44.7020508,0.860625 44.684209,0.83390625 C44.6656641,0.806132813 44.6449219,0.780029297 44.6249707,0.753310547 C44.6082715,0.731074219 44.5928027,0.708222656 44.5750488,0.686513672 C44.5361133,0.639140625 44.4951563,0.593525391 44.4518262,0.550195313 C44.4514746,0.54984375 44.4512109,0.549492188 44.4508594,0.549140625 C44.4505078,0.548789063 44.4501563,0.548613281 44.4498926,0.548261719 C44.4064746,0.504931641 44.3609473,0.463886719 44.3134863,0.424951172 C44.2917773,0.407109375 44.2689258,0.391640625 44.2466016,0.374941406 C44.2199707,0.354990234 44.1938672,0.334335938 44.1660937,0.315791016 C44.139375,0.297949219 44.1116895,0.282480469 44.0842676,0.266132813 C44.0591309,0.251103516 44.0346094,0.235371094 44.0087695,0.221484375 C43.9808203,0.206542969 43.952168,0.193886719 43.9236035,0.180439453 C43.8966211,0.167695313 43.8700781,0.154248047 43.8424805,0.142734375 C43.8147949,0.131308594 43.7864941,0.121992188 43.7583691,0.111972656 C43.72875,0.101337891 43.6995703,0.09 43.6693359,0.080859375 C43.6412109,0.0723339844 43.6125586,0.06609375 43.5841699,0.0589746094 C43.5533203,0.0511523438 43.5228223,0.0425390625 43.4914453,0.0362988281 C43.4584863,0.0297949219 43.4252637,0.0258398438 43.3921289,0.02109375 C43.3647949,0.0172265625 43.3379004,0.011953125 43.310127,0.00922851563 C43.2485156,0.00325195313 43.1868164,0 43.1250293,0 L33.7500073,0 C32.7144727,0 31.8750293,0.839443359 31.8750293,1.8749707 C31.8750293,2.91049805 32.7144727,3.74994141 33.7500073,3.74994141 L38.5983105,3.74994141 L26.7991699,15.5491699 C26.0669531,16.2813867 26.0669531,17.4686133 26.7991699,18.2008301 C27.5313867,18.9330469 28.7186133,18.9330469 29.4508301,18.2008301 Z" id="Path"></path>
                    <path d="M15.5491699,26.7991699 L3.7500293,38.5983105 L3.7500293,33.7500073 C3.7500293,32.7144727 2.91058594,31.8750293 1.87505859,31.8750293 C0.839443359,31.8750293 0,32.7144727 0,33.7500073 L0,43.1250293 C0,43.1868164 0.00325195313,43.2485156 0.00931640625,43.3100391 C0.0120410156,43.3377246 0.0172265625,43.3646191 0.0211816406,43.392041 C0.0259277344,43.4251758 0.0297949219,43.4584863 0.0363867188,43.4913574 C0.0426269531,43.5228223 0.0512402344,43.5532324 0.0590625,43.584082 C0.0661816406,43.6125586 0.072421875,43.641123 0.0809472656,43.669248 C0.0900878906,43.6994824 0.101425781,43.72875 0.112060547,43.7582813 C0.122167969,43.7864063 0.131396484,43.814707 0.142822266,43.8423926 C0.154248047,43.8700781 0.167783203,43.8965332 0.180527344,43.9235156 C0.193974609,43.9519922 0.206630859,43.9807324 0.221572266,44.0086816 C0.235458984,44.0345215 0.251191406,44.059043 0.266220703,44.0841797 C0.282568359,44.1115137 0.298037109,44.1392871 0.315878906,44.1660059 C0.334423828,44.1937793 0.355078125,44.2197949 0.375029297,44.2465137 C0.391728516,44.2688379 0.407197266,44.2916895 0.425039063,44.3133984 C0.463974609,44.3608594 0.505019531,44.4064746 0.548349609,44.4498047 C0.548701172,44.4501563 0.548876953,44.4505078 0.549228516,44.4507715 C0.549580078,44.451123 0.549931641,44.4513867 0.550283203,44.4517383 C0.593613281,44.4949805 0.639228516,44.5360254 0.686601563,44.5749609 C0.708310547,44.5928027 0.731162109,44.6082715 0.753398438,44.6248828 C0.780117188,44.644834 0.806220703,44.6655762 0.833994141,44.6841211 C0.860625,44.7019629 0.888310547,44.7174316 0.915732422,44.7337793 C0.940869141,44.7488086 0.965390625,44.764541 0.991318359,44.7784277 C1.01926758,44.7933691 1.04800781,44.8060254 1.07648437,44.8194727 C1.1034668,44.8322168 1.13000977,44.8456641 1.15760742,44.8570898 C1.18529297,44.8685156 1.21350586,44.8777441 1.24163086,44.8878516 C1.27125,44.8984863 1.30051758,44.9098242 1.33083984,44.9190527 C1.35896484,44.9275781 1.3875293,44.9338184 1.41591797,44.9409375 C1.44676758,44.9487598 1.47726563,44.957373 1.50873047,44.9636133 C1.54168945,44.9701172 1.57491211,44.9739844 1.60804688,44.9787305 C1.63538086,44.9825977 1.66236328,44.9878711 1.69004883,44.9905957 C1.75157227,44.9966602 1.81327148,44.9999121 1.8749707,44.9999121 C1.8749707,44.9999121 1.87505859,44.9999121 1.87505859,44.9999121 L11.25,44.9999121 C12.2855273,44.9999121 13.1249707,44.1604688 13.1249707,43.1249414 C13.1249707,42.0894141 12.2855273,41.2499707 11.25,41.2499707 L6.40168945,41.2499707 L18.2008301,29.4508301 C18.9330469,28.7186133 18.9330469,27.5313867 18.2008301,26.7991699 C17.4686133,26.0669531 16.2813867,26.0669531 15.5491699,26.7991699 Z" id="Path"></path>
                    <path d="M44.6252344,44.2463379 C44.6450977,44.2197949 44.665752,44.1937793 44.684209,44.1660938 C44.7021387,44.139375 44.7176074,44.1116016 44.7339551,44.0841797 C44.7488965,44.0591309 44.7646289,44.0346094 44.7784277,44.0088574 C44.7933691,43.9809082 44.8061133,43.9520801 44.8195605,43.9235156 C44.8323047,43.8966211 44.8456641,43.870166 44.8571777,43.8425684 C44.8686035,43.8148828 44.8779199,43.786582 44.8879395,43.758457 C44.8985742,43.7288379 44.9099121,43.6996582 44.9190527,43.6694238 C44.9275781,43.6412988 44.9338184,43.6126465 44.9409375,43.5842578 C44.9487598,43.5534082 44.957373,43.5229102 44.9636133,43.4915332 C44.9701172,43.4585742 44.9739844,43.4253516 44.9788184,43.3922168 C44.9826855,43.3648828 44.987959,43.3379883 44.9906836,43.3102148 C44.996748,43.2486035 45,43.1868164 45,43.1250293 L45,33.7500073 C45,32.7144727 44.1605566,31.8750293 43.1250293,31.8750293 C42.089502,31.8750293 41.2500586,32.7144727 41.2500586,33.7500073 L41.2500586,38.5983105 L29.4508301,26.7991699 C28.7186133,26.0669531 27.5313867,26.0669531 26.7991699,26.7991699 C26.0669531,27.5313867 26.0669531,28.7186133 26.7991699,29.4508301 L38.5983105,41.2499707 L33.7500073,41.2499707 C32.7144727,41.2499707 31.8750293,42.0894141 31.8750293,43.1249414 C31.8750293,44.1604688 32.7144727,45 33.7500073,45 L43.1250293,45 C43.1868164,45 43.2485156,44.996748 43.3100391,44.9906836 C43.3377246,44.987959 43.3646191,44.9827734 43.392041,44.9788184 C43.4251758,44.9740723 43.4584863,44.9702051 43.4913574,44.9636133 C43.5228223,44.957373 43.5532324,44.9487598 43.584082,44.9409375 C43.6125586,44.9338184 43.641123,44.9275781 43.669248,44.9190527 C43.6994824,44.9099121 43.72875,44.8985742 43.7582812,44.8879395 C43.7864062,44.877832 43.814707,44.8686035 43.8423926,44.8571777 C43.8699902,44.845752 43.8964453,44.8323047 43.9233398,44.8195605 C43.9519043,44.8061133 43.9807324,44.793457 44.0086816,44.7784277 C44.0344336,44.7646289 44.0589551,44.7488965 44.0840039,44.7339551 C44.1114258,44.7176074 44.1391992,44.7020508 44.165918,44.684209 C44.1936035,44.6656641 44.2196191,44.6450977 44.2461621,44.6252344 C44.2685742,44.6084473 44.2915137,44.5928906 44.3133105,44.5750488 C44.360332,44.5364648 44.4055957,44.4956836 44.4486621,44.4527051 C44.4493652,44.4520898 44.4500684,44.4514746 44.4506836,44.4508594 C44.4512988,44.4502441 44.4519141,44.4494531 44.4525293,44.4488379 C44.4954199,44.4057715 44.5362012,44.3605957 44.574873,44.3134863 C44.5928906,44.2916895 44.6084473,44.26875 44.6252344,44.2463379 Z" id="Path"></path>
                    <path d="M6.40168945,3.7500293 L11.25,3.7500293 C12.2855273,3.7500293 13.1249707,2.91058594 13.1249707,1.87505859 C13.1249707,0.839443359 12.2855273,0 11.25,0 L1.8749707,0 C1.8749707,0 1.87488281,0 1.87488281,0 C1.81318359,0 1.75139648,0.00325195313 1.68996094,0.00931640625 C1.6621875,0.0120410156 1.63529297,0.0172265625 1.60795898,0.0211816406 C1.57482422,0.0259277344 1.54160156,0.0297949219 1.50864258,0.0362988281 C1.47717773,0.0425390625 1.44667969,0.0511523438 1.41583008,0.0589746094 C1.38744141,0.06609375 1.35887695,0.0723339844 1.33075195,0.080859375 C1.30042969,0.09 1.27116211,0.101425781 1.24154297,0.112060547 C1.21350586,0.122167969 1.18520508,0.131396484 1.15751953,0.142822266 C1.12983398,0.154335938 1.10320312,0.167783203 1.0762207,0.180615234 C1.04783203,0.193974609 1.0190918,0.206630859 0.991230469,0.221572266 C0.965302734,0.235458984 0.940693359,0.251279297 0.91546875,0.266308594 C0.888222656,0.282568359 0.860537109,0.297949219 0.83390625,0.315791016 C0.806044922,0.334423828 0.779853516,0.355166016 0.753046875,0.375205078 C0.730898438,0.391816406 0.708134766,0.407197266 0.686601563,0.424951172 C0.591064453,0.503349609 0.503349609,0.591064453 0.424951172,0.686601563 C0.407197266,0.708134766 0.391816406,0.730898438 0.375205078,0.753134766 C0.355166016,0.779941406 0.334423828,0.806132813 0.315791016,0.833994141 C0.297949219,0.860625 0.282568359,0.888222656 0.266220703,0.915556641 C0.251191406,0.940693359 0.235371094,0.965390625 0.221484375,0.991318359 C0.206542969,1.01917969 0.193974609,1.04783203 0.180527344,1.07630859 C0.167783203,1.10329102 0.154248047,1.12992188 0.142734375,1.15760742 C0.131308594,1.18529297 0.122080078,1.21350586 0.111972656,1.24163086 C0.101337891,1.27125 0.09,1.30051758 0.0807714844,1.33083984 C0.0722460938,1.35896484 0.0660058594,1.3875293 0.0588867187,1.41591797 C0.0510644531,1.44676758 0.0424511719,1.47726563 0.0362109375,1.50873047 C0.0297070313,1.54168945 0.0258398438,1.57491211 0.02109375,1.60804688 C0.0172265625,1.63538086 0.011953125,1.66236328 0.00922851563,1.69004883 C0.00325195312,1.75148438 0,1.81318359 0,1.8749707 L0,11.25 C0,12.2855273 0.839443359,13.1249707 1.8749707,13.1249707 C2.91049805,13.1249707 3.74994141,12.2855273 3.74994141,11.25 L3.74994141,6.40168945 L15.549082,18.2008301 C16.2812988,18.9330469 17.4685254,18.9330469 18.2007422,18.2008301 C18.932959,17.4686133 18.932959,16.2813867 18.2007422,15.5491699 L6.40168945,3.7500293 Z" id="Path"></path>
                </g>
            </g>
        </g>
    </g>
</svg>