<svg width="12" height="23" viewBox="0 0 12 23" fill="none" xmlns="http://www.w3.org/2000/svg">
<path d="M11.5628 0.454287L8.78554 0.449707C5.66544 0.449707 3.64903 2.5748 3.64903 5.86394V8.36026H0.856622C0.615322 8.36026 0.419922 8.56121 0.419922 8.80908V12.426C0.419922 12.6738 0.615552 12.8746 0.856622 12.8746H3.64903V22.0011C3.64903 22.249 3.84443 22.4497 4.08574 22.4497H7.72904C7.97034 22.4497 8.16574 22.2487 8.16574 22.0011V12.8746H11.4307C11.672 12.8746 11.8674 12.6738 11.8674 12.426L11.8687 8.80908C11.8687 8.69007 11.8226 8.57609 11.7408 8.49186C11.6591 8.40764 11.5477 8.36026 11.4318 8.36026H8.16574V6.2441C8.16574 5.22698 8.40164 4.71065 9.69154 4.71065L11.5624 4.70996C11.8034 4.70996 11.9988 4.50901 11.9988 4.26137V0.902877C11.9988 0.655467 11.8037 0.454747 11.5628 0.454287Z" fill="#EE5253"/>
</svg>
