<?xml version="1.0" encoding="UTF-8"?>
<svg width="40px" height="34px" viewBox="0 0 40 34" version="1.1" xmlns="http://www.w3.org/2000/svg" xmlns:xlink="http://www.w3.org/1999/xlink">
    <!-- Generator: Sketch 61 (89581) - https://sketch.com -->
    <title>fast-forward</title>
    <desc>Created with Sketch.</desc>
    <g id="Page-1" stroke="none" stroke-width="1" fill="none" fill-rule="evenodd">
        <g id="Custom-Preset-8" transform="translate(-1863.000000, -452.000000)" fill="#EE5253">
            <g id="Terminal-&amp;-Feedback" transform="translate(1494.000000, 218.000000)">
                <g id="Inactive" transform="translate(351.000000, 137.000000)">
                    <g id="fast-forward" transform="translate(38.000000, 114.000000) scale(-1, 1) translate(-38.000000, -114.000000) translate(18.000000, 97.000000)">
                        <path d="M39.491875,15.7271094 L24.2895312,0.524765625 C23.6120312,-0.15265625 22.515,-0.15265625 21.8375,0.524765625 C21.1600781,1.20164062 21.1600781,2.29992187 21.8375,2.97679687 L35.8139063,16.953125 L21.8375781,30.9294531 C21.1601563,31.6063281 21.1601563,32.7046094 21.8375781,33.3814844 C22.1763281,33.7202344 22.6196875,33.8896094 23.0635938,33.8896094 C23.5075,33.8896094 23.9514844,33.7202344 24.2896094,33.3814844 L39.4919531,18.1791406 C40.169375,17.5022656 40.169375,16.4039844 39.491875,15.7271094 Z" id="Path"></path>
                        <path d="M18.1624219,15.7271094 L2.96007812,0.524765625 C2.28320312,-0.15265625 1.18492188,-0.15265625 0.508046875,0.524765625 C-0.169375,1.20164063 -0.169375,2.29992188 0.508046875,2.97679688 L14.4838281,16.953125 L0.508125,30.9294531 C-0.169296875,31.6063281 -0.169296875,32.7046094 0.508125,33.3814844 C0.84625,33.7202344 1.29023437,33.8896094 1.73414062,33.8896094 C2.17804687,33.8896094 2.62203125,33.7202344 2.96015625,33.3814844 L18.1625,18.1791406 C18.8398437,17.5022656 18.8398437,16.4039844 18.1624219,15.7271094 Z" id="Path"></path>
                    </g>
                </g>
            </g>
        </g>
    </g>
</svg>