<svg id="file-add" xmlns="http://www.w3.org/2000/svg" width="20" height="22" viewBox="0 0 20 22">
  <path id="Path_535" data-name="Path 535" d="M6.333,2A3.317,3.317,0,0,0,3,5.3V20.7A3.317,3.317,0,0,0,6.333,24H19.667A3.317,3.317,0,0,0,23,20.7V9.7A7.739,7.739,0,0,0,15.222,2Zm0,2.2h7.778V9.7h6.667v11a1.106,1.106,0,0,1-1.111,1.1H6.333a1.106,1.106,0,0,1-1.111-1.1V5.3A1.106,1.106,0,0,1,6.333,4.2Zm10,.11A5.554,5.554,0,0,1,20.316,7.5H16.333Z" transform="translate(-3 -2)" fill="#404040" fill-rule="evenodd"/>
</svg>
