<svg xmlns="http://www.w3.org/2000/svg" viewBox="0 0 384.01 511.97"><title>forked</title><g id="Layer_2" data-name="Layer 2"><g id="Capa_1" data-name="Capa 1"><path d="M119.73,118a90.85,90.85,0,0,0,20.78,57.37c14,16.71,32.24,25.91,51.44,25.91s37.46-9.2,51.39-25.9A91,91,0,0,0,264.05,118V100.54c9.74-41.82,6.12-76.15,2.8-86.29a8,8,0,0,0-8.1-5.49,8.08,8.08,0,0,0-1.7.05c-10.49,1.49-23.62-1.13-37.52-3.9-23-4.59-49-9.76-69.35,3.82-22.87,0-39.46,18.16-39.46,43.1,0,18,7.57,50.93,9,57Zm111.32,47.13c-10.84,13-24.72,20.15-39.1,20.15s-28.29-7.16-39.16-20.17A74.63,74.63,0,0,1,135.73,118v-6.94c0-12.2,7.83-29.63,12.53-38.57,29.76-3.22,53.49.19,68.38,3.74a134.65,134.65,0,0,1,24.11,8l7.3,17.07V118A74.66,74.66,0,0,1,231.05,165.13ZM150.27,24.73a8.12,8.12,0,0,0,1.21-.1,8,8,0,0,0,6.05-1.51c14.95-11.27,37.28-6.82,58.87-2.52,11.47,2.29,23.23,4.63,34.14,4.63.8,0,1.59,0,2.38,0,1.42,9.25,2.38,26.4-.19,47.61a8,8,0,0,0-2-1.53c-1.7-.92-42.24-22.43-107.94-14.26a8,8,0,0,0-6.46,4,156.86,156.86,0,0,0-7.12,14.15c-1.41-8.48-2.51-17.06-2.51-23.29C126.72,38.34,134,24.73,150.27,24.73Z"/><path d="M77,288H306.78c11.73,0,21.26-8.76,21.26-19.52V257.55c0-18.9-12.06-41.39-35.11-47.8l-.51-.13-33.82-7-8.68-13c-.09-.14-.18-.27-.28-.4A12.44,12.44,0,0,0,231.88,187l-.15.13-39.85,34.05L152,187.13l-.16-.13a12.44,12.44,0,0,0-17.76,2.15c-.09.13-.19.26-.28.4l-8.67,13-33.82,7-.52.13c-23,6.41-35.11,28.9-35.11,47.8v10.89C55.71,279.2,65.25,288,77,288ZM184,251.1l7.9-8,8.1,8.14V272H184V251.1Zm128,6.45v10.89c0,1.66-2.16,3.52-5.26,3.52H216v-8h.39a8,8,0,0,0,5.8-2.93l34.68-42.43,32,6.64C304.09,229.6,312,244.76,312,257.55ZM239,202l4.85,7.3L215.42,244l-11.79-11.85Zm-94.19,0,35.37,30.23L168.54,244l-28.6-34.75ZM71.71,257.55c0-12.79,8-28,23.15-32.32l32-6.65L161.83,261a8,8,0,0,0,5.82,2.91H168v8H77c-3.1,0-5.26-1.86-5.26-3.52V257.55Z"/><path d="M344,376v48a8,8,0,0,0,16,0V376a40,40,0,0,0-40-40H200V312a8,8,0,0,0-16,0v24H64a40,40,0,0,0-40,40v48a8,8,0,0,0,16,0V376a24,24,0,0,1,24-24H184v72a8,8,0,0,0,16,0V352H320A24,24,0,0,1,344,376Z"/><path d="M192,448a32,32,0,1,0,32,32A32,32,0,0,0,192,448Zm0,48a16,16,0,1,1,16-16A16,16,0,0,1,192,496Z"/><path d="M352,448a32,32,0,1,0,32,32A32,32,0,0,0,352,448Zm0,48a16,16,0,1,1,16-16A16,16,0,0,1,352,496Z"/><path d="M32,448a32,32,0,1,0,32,32A32,32,0,0,0,32,448Zm0,48a16,16,0,1,1,16-16A16,16,0,0,1,32,496Z"/></g></g></svg>