<?xml version="1.0" encoding="UTF-8"?>
<svg width="30px" height="30px" viewBox="0 0 30 30" version="1.1" xmlns="http://www.w3.org/2000/svg" xmlns:xlink="http://www.w3.org/1999/xlink">
    <!-- Generator: Sketch 63.1 (92452) - https://sketch.com -->
    <title>gear</title>
    <desc>Created with Sketch.</desc>
    <g id="Page-1" stroke="none" stroke-width="1" fill="none" fill-rule="evenodd">
        <g id="Project-Page" transform="translate(-808.000000, -234.000000)" fill="#FFFFFF" fill-rule="nonzero">
            <g id="Header" transform="translate(0.000000, 84.000000)">
                <g id="Header-Content" transform="translate(151.000000, 34.000000)">
                    <g id="EDIT-BTN" transform="translate(646.000000, 110.000000)">
                        <g id="gear" transform="translate(11.000000, 6.000000)">
                            <path d="M29.2941284,11.5841675 L26.9883728,11.0829163 C26.7878723,10.4690552 26.5395355,9.87030029 26.2463379,9.29351807 L27.5228119,7.30796812 C27.7507782,6.95320131 27.700653,6.48742676 27.4026489,6.18942258 L23.8105774,2.59735107 C23.5125732,2.29934695 23.0467987,2.24922182 22.6920319,2.47718812 L20.7064819,3.75366211 C20.1296997,3.46046449 19.5309448,3.21212766 18.9170837,3.01162723 L18.4158325,0.705871582 C18.3263397,0.293884277 17.9615021,0 17.5399017,0 L12.4600983,0 C12.0384979,0 11.6736603,0.293884277 11.5841675,0.705871582 L11.0829163,3.01162723 C10.4690552,3.21212766 9.87030029,3.46046449 9.29351807,3.75366211 L7.30796813,2.47718812 C6.95320131,2.24922182 6.48742676,2.29934695 6.18942258,2.59735107 L2.59735107,6.18942258 C2.29934695,6.48742676 2.24922182,6.95320131 2.47718813,7.30796812 L3.75366211,9.29351807 C3.46046449,9.87030029 3.21212766,10.4690552 3.01162723,11.0829163 L0.705871582,11.5841675 C0.293884277,11.6738892 1.42108547e-13,12.0384979 1.42108547e-13,12.4600983 L1.42108547e-13,17.5399017 C1.42108547e-13,17.9615021 0.293884277,18.3261108 0.705871582,18.4158325 L3.01162723,18.9170837 C3.21212766,19.5309448 3.46046449,20.1296997 3.75366211,20.7064819 L2.47718813,22.6920319 C2.24922182,23.0467987 2.29934695,23.5125732 2.59735107,23.8105774 L6.18942258,27.4026489 C6.48742676,27.700653 6.95320131,27.7507782 7.30796813,27.5228119 L9.29351807,26.2463379 C9.87030029,26.5395355 10.4690552,26.7878723 11.0829163,26.9883728 L11.5841675,29.2941284 C11.6736603,29.7061157 12.0384979,30 12.4600983,30 L17.5399017,30 C17.9615021,30 18.3263397,29.7061157 18.4158325,29.2941284 L18.9170837,26.9883728 C19.5309448,26.7878723 20.1296997,26.5395355 20.7064819,26.2463379 L22.6920319,27.5228119 C23.0467987,27.7507782 23.5125732,27.700882 23.8105774,27.4026489 L27.4026489,23.8105774 C27.700653,23.5125732 27.7507782,23.0467987 27.5228119,22.6920319 L26.2463379,20.7064819 C26.5395355,20.1296997 26.7878723,19.5309448 26.9883728,18.9170837 L29.2941284,18.4158325 C29.7061157,18.3261108 30,17.9615021 30,17.5399017 L30,12.4600983 C30,12.0384979 29.7061157,11.6738892 29.2941284,11.5841675 Z M20.3784943,15 C20.3784943,17.9656219 17.9656219,20.3784943 15,20.3784943 C12.0343781,20.3784943 9.62150572,17.9656219 9.62150572,15 C9.62150572,12.0343781 12.0343781,9.62150572 15,9.62150572 C17.9656219,9.62150572 20.3784943,12.0343781 20.3784943,15 Z" id="Shape"></path>
                        </g>
                    </g>
                </g>
            </g>
        </g>
    </g>
</svg>