<?xml version="1.0" encoding="UTF-8"?>
<svg width="11px" height="11px" viewBox="0 0 11 11" version="1.1" xmlns="http://www.w3.org/2000/svg" xmlns:xlink="http://www.w3.org/1999/xlink">
    <!-- Generator: Sketch 53.2 (72643) - https://sketchapp.com -->
    <title>google</title>
    <desc>Created with Sketch.</desc>
    <g id="Home" stroke="none" stroke-width="1" fill="none" fill-rule="evenodd">
        <g id="Desktop-HD" transform="translate(-1116.000000, -4090.000000)" fill="#DBDBDB">
            <g id="Footer" transform="translate(203.000000, 3896.000000)">
                <g id="Our-Address" transform="translate(852.000000, 2.000000)">
                    <g id="Social-Button" transform="translate(0.000000, 178.933333)">
                        <g id="Google" transform="translate(47.647059, 0.000000)">
                            <g id="Icon/Social/Google" transform="translate(13.000000, 13.000000)">
                                <path d="M10.4863186,4.48657761 L5.60727453,4.48657761 C5.60727453,4.99398428 5.60727453,6.00879763 5.60416421,6.5162043 L8.43143857,6.5162043 C8.323096,7.02361097 7.93897237,7.73398031 7.39622278,8.09170202 C7.3957044,8.09119461 7.39518601,8.09474646 7.39414924,8.09423905 C6.67255667,8.57069392 5.72028256,8.67877154 5.01320478,8.53669767 C3.90489664,8.31648317 3.02778843,7.512751 2.67165761,6.49184878 C2.67373115,6.49032656 2.67528631,6.47611917 2.67684147,6.47510436 C2.45393571,5.84186083 2.45393571,4.99398428 2.67684147,4.48657761 L2.67632308,4.48657761 C2.96350863,3.55396415 3.8670545,2.70304316 4.9769178,2.47014349 C5.86957758,2.2808808 6.87680054,2.4858731 7.61757338,3.17899062 C7.71606662,3.08258335 8.98092717,1.84755551 9.07579171,1.74708899 C6.54503384,-0.544866954 2.49281462,0.261402249 0.976537124,3.22110537 L0.976018738,3.22110537 C0.976018738,3.22110537 0.976537124,3.22110537 0.973426811,3.22668684 L0.973426811,3.22668684 C0.223323036,4.68040696 0.254426164,6.39341188 0.978610666,7.77761729 C0.976537124,7.77913951 0.974981967,7.78015432 0.973426811,7.78167654 C1.62970282,9.05526729 2.82406294,10.0320251 4.263101,10.4039542 C5.79181975,10.8048055 7.73732042,10.5308059 9.0405415,9.35210019 C9.04105988,9.3526076 9.04157827,9.35311501 9.04209665,9.35362241 C10.1462577,8.35910533 10.8336368,6.66487445 10.4863186,4.48657761" id="google"></path>
                            </g>
                        </g>
                    </g>
                </g>
            </g>
        </g>
    </g>
</svg>