<?xml version="1.0" encoding="UTF-8"?>
<svg width="21px" height="20px" viewBox="0 0 21 20" version="1.1" xmlns="http://www.w3.org/2000/svg" xmlns:xlink="http://www.w3.org/1999/xlink">
    <!-- Generator: Sketch 64 (93537) - https://sketch.com -->
    <title>happy</title>
    <desc>Created with Sketch.</desc>
    <g id="Page-1" stroke="none" stroke-width="1" fill="none" fill-rule="evenodd">
        <g id="happy" fill="#FFFFFF" fill-rule="nonzero">
            <path d="M13.9167,11.6667 C12.9975,11.6667 12.25,10.9192 12.25,10 C12.25,9.08084 12.9975,8.33334 13.9167,8.33334 C14.8358,8.33334 15.5833,9.08084 15.5833,10 C15.5833,10.9192 14.8358,11.6667 13.9167,11.6667 Z M13.9167,9.16668 C13.4567,9.16668 13.0833,9.54084 13.0833,10 C13.0833,10.4592 13.4567,10.8333 13.9167,10.8333 C14.3767,10.8333 14.75,10.4592 14.75,10 C14.75,9.54084 14.3767,9.16668 13.9167,9.16668 Z" id="Shape"></path>
            <path d="M8.08341,11.6667 C7.16425,11.6667 6.41675,10.9192 6.41675,10 C6.41675,9.08084 7.16425,8.33334 8.08341,8.33334 C9.00257,8.33334 9.75007,9.08084 9.75007,10 C9.75007,10.9192 9.00257,11.6667 8.08341,11.6667 Z M8.08341,9.16668 C7.62341,9.16668 7.25008,9.54084 7.25008,10 C7.25008,10.4592 7.62341,10.8333 8.08341,10.8333 C8.54341,10.8333 8.91674,10.4592 8.91674,10 C8.91674,9.54084 8.54341,9.16668 8.08341,9.16668 Z" id="Shape"></path>
            <path d="M16.4167,20 L5.58333,20 C4.43417,20 3.5,19.065 3.5,17.9167 L3.5,7.91668 C3.5,6.76834 4.43417,5.83334 5.58333,5.83334 L16.4167,5.83334 C17.5658,5.83334 18.5,6.76834 18.5,7.91668 L18.5,17.9167 C18.5,19.065 17.5658,20 16.4167,20 Z M5.58333,6.66668 C4.89417,6.66668 4.33333,7.22751 4.33333,7.91668 L4.33333,17.9167 C4.33333,18.6058 4.89417,19.1667 5.58333,19.1667 L16.4167,19.1667 C17.1058,19.1667 17.6667,18.6058 17.6667,17.9167 L17.6667,7.91668 C17.6667,7.22751 17.1058,6.66668 16.4167,6.66668 L5.58333,6.66668 Z" id="Shape"></path>
            <path d="M3.90922,17.0833 C2.30089,17.0833 0.99255371,15.775 0.99255371,14.1667 L0.99255371,11.6667 C0.99255371,10.0583 2.30089,8.75 3.90922,8.75 L3.90922,9.58333 C2.76005,9.58333 1.825887,10.5183 1.825887,11.6667 L1.825887,14.1667 C1.825887,15.315 2.76005,16.25 3.90922,16.25 L3.90922,17.0833 Z" id="Path"></path>
            <path d="M18.0833,17.0833 L18.0833,16.25 C19.2324,16.25 20.1666,15.315 20.1666,14.1667 L20.1666,11.6667 C20.1666,10.5183 19.2324,9.58333 18.0833,9.58333 L18.0833,8.75 C19.6916,8.75 20.9999,10.0583 20.9999,11.6667 L20.9999,14.1667 C20.9999,15.775 19.6916,17.0833 18.0833,17.0833 Z" id="Path"></path>
            <path d="M11,6.66667 C10.77004,6.66667 10.58337,6.48 10.58337,6.25 L10.58337,3.75001 C10.58337,3.52001 10.77004,3.33334 11,3.33334 C11.23,3.33334 11.4167,3.52001 11.4167,3.75001 L11.4167,6.25 C11.4167,6.48 11.23,6.66667 11,6.66667 Z" id="Path"></path>
            <path d="M10.99995,4.16667 C9.85079,4.16667 8.91663,3.23167 8.91663,2.08333 C8.91663,0.935 9.85079,0 10.99995,0 C12.1491,0 13.0833,0.935 13.0833,2.08333 C13.0833,3.23167 12.1491,4.16667 10.99995,4.16667 Z M10.99995,0.833333 C10.31079,0.833333 9.74996,1.39417 9.74996,2.08333 C9.74996,2.7725 10.31079,3.333333 10.99995,3.333333 C11.6891,3.333333 12.2499,2.7725 12.2499,2.08333 C12.2499,1.39417 11.6891,0.833333 10.99995,0.833333 Z" id="Shape"></path>
            <path d="M14.75,17.5 L7.25,17.5 C6.56083,17.5 6,16.9392 6,16.25 L6,14.5833 C6,13.8942 6.56083,13.3333 7.25,13.3333 L14.75,13.3333 C15.4392,13.3333 16,13.8942 16,14.5833 L16,16.25 C16,16.9392 15.4392,17.5 14.75,17.5 Z M7.25,14.1667 C7.02083,14.1667 6.83333,14.3533 6.83333,14.5833 L6.83333,16.25 C6.83333,16.48 7.02083,16.6667 7.25,16.6667 L14.75,16.6667 C14.9792,16.6667 15.1667,16.48 15.1667,16.25 L15.1667,14.5833 C15.1667,14.3533 14.9792,14.1667 14.75,14.1667 L7.25,14.1667 Z" id="Shape"></path>
            <path d="M9.333295,17.5 C9.10329,17.5 8.91663,17.3134 8.91663,17.0834 L8.91663,13.75 C8.91663,13.52 9.10329,13.3333 9.333295,13.3333 C9.5633,13.3333 9.74996,13.52 9.74996,13.75 L9.74996,17.0834 C9.74996,17.3134 9.5633,17.5 9.333295,17.5 Z" id="Path"></path>
            <path d="M12.6667,17.5 C12.4367,17.5 12.25,17.3134 12.25,17.0834 L12.25,13.75 C12.25,13.52 12.4367,13.3333 12.6667,13.3333 C12.8967,13.3333 13.0833,13.52 13.0833,13.75 L13.0833,17.0834 C13.0833,17.3134 12.8967,17.5 12.6667,17.5 Z" id="Path"></path>
        </g>
    </g>
</svg>