<?xml version="1.0" encoding="UTF-8"?>
<svg width="44px" height="45px" viewBox="0 0 44 45" version="1.1" xmlns="http://www.w3.org/2000/svg" xmlns:xlink="http://www.w3.org/1999/xlink">
    <!-- Generator: Sketch 64 (93537) - https://sketch.com -->
    <title>home</title>
    <desc>Created with Sketch.</desc>
    <g id="UI" stroke="none" stroke-width="1" fill="none" fill-rule="evenodd">
        <g id="Projects" transform="translate(-1765.000000, -660.000000)" fill="#FFFFFF" fill-rule="nonzero">
            <g id="Right" transform="translate(1319.000000, 56.000000)">
                <g id="Code-Buttons" transform="translate(262.000000, 589.000000)">
                    <g id="Reset-Robot" transform="translate(168.774194, 0.000000)">
                        <path d="M58.3445854,35.113495 L54.6910272,31.6034013 L54.6910272,19.9642758 C54.6910272,19.2237102 54.1216185,18.623242 53.4191703,18.623242 L44.6246311,18.623242 C43.9222674,18.623242 43.3527742,19.2236212 43.3527742,19.9642758 L43.3527742,20.7100961 L38.9404268,16.4709261 C38.0887211,15.6525188 36.8043627,15.6526078 35.9529949,16.470837 L16.5488363,35.113584 C15.8666609,35.7690937 15.6412118,36.7790772 15.9745284,37.6865484 C16.3079294,38.5940195 17.119681,39.1803265 18.042679,39.1803265 L21.1417795,39.1803265 L21.1417795,57.8588772 C21.1417795,58.5994427 21.7111882,59.2 22.4136364,59.2 L33.0494412,59.2 C33.7518049,59.2 34.3212981,58.5995318 34.3212981,57.8588772 L34.3212981,46.5178483 L40.5721236,46.5178483 L40.5721236,57.8589663 C40.5721236,58.5995318 41.1415323,59.2 41.8439805,59.2 L52.479363,59.2 C53.1817267,59.2 53.7512199,58.5996209 53.7511354,57.8589663 L53.7511354,39.1804156 L56.8509117,39.1804156 C57.7738251,39.1804156 58.5856612,38.5940195 58.9190623,37.6866374 C59.2522943,36.7790772 59.0269298,35.7690937 58.3445854,35.113495 Z M52.3960427,36.9585468 C51.6975729,36.9585468 51.131237,37.5621523 51.131237,38.3067871 L51.131237,57.0857143 L43.0845128,57.0857143 L43.0845128,45.6836504 C43.0845128,44.9391051 42.5181769,44.3354101 41.8197072,44.3354101 L33.0738412,44.3354101 C32.3753715,44.3354101 31.8090356,44.9390156 31.8090356,45.6836504 L31.8090356,57.0857143 L23.7617234,57.0857143 L23.7617234,38.3067871 C23.7617234,37.5622419 23.1954715,36.9585468 22.4969177,36.9585468 L18.9870968,36.9585468 L37.4468582,19.0285714 L43.7331699,25.134559 C44.103447,25.4941614 44.6379465,25.5868378 45.0960049,25.3713092 C45.5541473,25.1555119 45.8497474,24.6718037 45.8497474,24.1379518 L45.8497474,21.6838625 L52.0660021,21.6838625 L52.0660021,32.6327522 C52.0660021,33.0121435 52.2158601,33.3738053 52.4789518,33.6293594 L55.9064516,36.9585468 L52.3960427,36.9585468 Z" id="home"></path>
                    </g>
                </g>
            </g>
        </g>
    </g>
</svg>