<svg id="Capa_1" enable-background="new 0 0 511 511" height="512" viewBox="0 0 511 511" width="512" xmlns="http://www.w3.org/2000/svg"><g id="XMLID_321_"><path id="XMLID_887_" d="m91.07 185.48-56.94-59.82 21.74-20.68 39.79 41.81 87.07-56.29v-37h-182.73v182.73h182.73v-110.01z"/><path id="XMLID_908_" d="m182.73 90.5v35.72l40.41-26.12-16.28-25.2z"/><path id="XMLID_913_" d="m0 457.5h182.727v-182.728h-182.727zm12.924-148.591 21.213-21.213 57.227 57.227 57.227-57.227 21.213 21.213-57.227 57.227 57.227 57.227-21.213 21.213-57.227-57.227-57.227 57.227-21.213-21.213 57.227-57.227z"/><path id="XMLID_914_" d="m339 129.863h172v30h-172z"/><path id="XMLID_915_" d="m339 351.137h172v30h-172z"/><path id="XMLID_917_" d="m289 129.864c-7.846 0-15.363 6.899-15 15 .364 8.127 6.591 15 15 15 7.846 0 15.363-6.899 15-15-.364-8.127-6.591-15-15-15z"/><path id="XMLID_930_" d="m289 351.136c-7.846 0-15.363 6.899-15 15 .364 8.127 6.591 15 15 15 7.846 0 15.363-6.899 15-15-.364-8.127-6.591-15-15-15z"/></g></svg>