<?xml version="1.0" encoding="UTF-8"?>
<svg width="28px" height="27px" viewBox="0 0 28 27" version="1.1" xmlns="http://www.w3.org/2000/svg" xmlns:xlink="http://www.w3.org/1999/xlink">
    <!-- Generator: Sketch 64 (93537) - https://sketch.com -->
    <title>home-run</title>
    <desc>Created with Sketch.</desc>
    <g id="Page-1" stroke="none" stroke-width="1" fill="none" fill-rule="evenodd">
        <g id="UI" transform="translate(-16.000000, -250.000000)" fill="#FFFFFF">
            <g id="UL">
                <g id="Main]" transform="translate(0.000000, 233.000000)">
                    <g id="li-inactive">
                        <g id="Text" transform="translate(16.000000, 17.000000)">
                            <g id="home-run">
                                <path d="M27.4761326,11.8377778 L14.9379181,0.413013645 C14.3875789,-0.0885302144 13.5576764,-0.0884756335 13.0075556,0.412959064 L0.46928655,11.8378324 C0.0284366472,12.2395478 -0.117185185,12.8584951 0.0981910331,13.4146199 C0.313621832,13.9707446 0.83814425,14.3300507 1.43454971,14.3300507 L3.43712281,14.3300507 L3.43712281,25.7768109 C3.43712281,26.2306511 3.80510721,26.5986901 4.25894737,26.5986901 L11.1314464,26.5986901 C11.5852865,26.5986901 11.953271,26.2307057 11.953271,25.7768109 L11.953271,18.8266979 L15.9923665,18.8266979 L15.9923665,25.7768655 C15.9923665,26.2307057 16.3603509,26.5986901 16.814191,26.5986901 L23.6863626,26.5986901 C24.1402027,26.5986901 24.5081871,26.2307602 24.5081871,25.7768655 L24.5081871,14.3300507 L26.5111423,14.3300507 C27.1074932,14.3300507 27.6320702,13.9706901 27.847501,13.4146199 C28.0626043,12.8584405 27.9169825,12.2395478 27.4761326,11.8377778 Z" id="Path"></path>
                                <path d="M24.2935205,1.67727096 L18.7743548,1.67727096 L25.115345,7.44297856 L25.115345,2.49904094 C25.115345,2.04520078 24.7474152,1.67727096 24.2935205,1.67727096 Z" id="Path"></path>
                            </g>
                        </g>
                    </g>
                </g>
            </g>
        </g>
    </g>
</svg>