<svg xmlns="http://www.w3.org/2000/svg" width="18.323" height="18.205" viewBox="0 0 18.323 18.205">
  <path id="insert" d="M17.759,1.352h-7.7a.564.564,0,0,0-.564.564V5.022H.762A.762.762,0,0,0,0,5.784V18.8a.762.762,0,0,0,.762.762H13.773a.762.762,0,0,0,.762-.762V10.184h3.223a.564.564,0,0,0,.564-.564v-7.7A.564.564,0,0,0,17.759,1.352ZM13.011,18.033H1.525V6.547H9.49v2.2L6.216,12.025l-.82-.82a.326.326,0,0,0-.545.146L3.745,15.48a.326.326,0,0,0,.4.4l4.128-1.106a.326.326,0,0,0,.146-.545l-.82-.82,3.224-3.224h2.188v7.848Z" transform="translate(0 -1.352)" fill="#fff"/>
</svg>
