<svg width="20" height="21" viewBox="0 0 20 21" fill="none" xmlns="http://www.w3.org/2000/svg">
<path fill-rule="evenodd" clip-rule="evenodd" d="M0 10.4497C0 6.25834 0 4.16265 1.05041 2.71689C1.38964 2.24997 1.80026 1.83935 2.26718 1.50012C3.71294 0.449707 5.80863 0.449707 10 0.449707C14.1914 0.449707 16.2871 0.449707 17.7328 1.50012C18.1997 1.83935 18.6104 2.24997 18.9496 2.71689C20 4.16265 20 6.25834 20 10.4497C20 14.6411 20 16.7368 18.9496 18.1825C18.6104 18.6494 18.1997 19.0601 17.7328 19.3993C16.2871 20.4497 14.1914 20.4497 10 20.4497C5.80863 20.4497 3.71294 20.4497 2.26718 19.3993C1.80026 19.0601 1.38964 18.6494 1.05041 18.1825C0 16.7368 0 14.6411 0 10.4497ZM10 5.15559C7.07632 5.15559 4.70588 7.52603 4.70588 10.4497C4.70588 13.3734 7.07632 15.7438 10 15.7438C12.9237 15.7438 15.2941 13.3734 15.2941 10.4497C15.2941 7.52603 12.9237 5.15559 10 5.15559ZM10 13.7585C8.1762 13.7585 6.69118 12.2735 6.69118 10.4497C6.69118 8.62461 8.1762 7.14089 10 7.14089C11.8238 7.14089 13.3088 8.62461 13.3088 10.4497C13.3088 12.2735 11.8238 13.7585 10 13.7585ZM16.3966 4.75854C16.3966 5.14815 16.0808 5.46398 15.6912 5.46398C15.3016 5.46398 14.9857 5.14815 14.9857 4.75854C14.9857 4.36894 15.3016 4.0531 15.6912 4.0531C16.0808 4.0531 16.3966 4.36894 16.3966 4.75854Z" fill="#EE5253"/>
</svg>
