<svg xmlns="http://www.w3.org/2000/svg" viewBox="0 0 512 455.52"><title>liked</title><g id="Layer_2" data-name="Layer 2"><g id="Layer_1-2" data-name="Layer 1"><path d="M256,455.52a30,30,0,0,1-19.79-7.44C215.52,430,195.58,413,178,398l-.09-.07C126.32,354,81.77,316,50.78,278.61,16.14,236.81,0,197.17,0,153.87,0,111.8,14.43,73,40.62,44.58,67.12,15.83,103.49,0,143,0c29.56,0,56.62,9.34,80.45,27.77a164.53,164.53,0,0,1,32.52,34,164.57,164.57,0,0,1,32.53-34C312.35,9.34,339.42,0,369,0c39.54,0,75.91,15.83,102.42,44.58C497.58,73,512,111.8,512,153.87c0,43.3-16.13,82.94-50.78,124.74-31,37.4-75.53,75.35-127.1,119.31-17.63,15-37.6,32-58.33,50.17A30,30,0,0,1,256,455.52ZM143,30C112,30,83.43,42.39,62.66,64.91,41.59,87.76,30,119.36,30,153.87c0,36.42,13.53,69,43.88,105.61,29.33,35.39,73,72.57,123.48,115.62l.09.08c17.66,15.05,37.68,32.11,58.52,50.33,21-18.25,41-35.34,58.7-50.42,50.52-43,94.14-80.22,123.47-115.61C468.48,222.86,482,190.29,482,153.87c0-34.51-11.6-66.11-32.67-89C428.58,42.39,400,30,369,30c-22.76,0-43.65,7.24-62.1,21.5C290.43,64.21,279,80.29,272.26,91.54a18.93,18.93,0,0,1-32.52,0C233,80.29,221.57,64.21,205.13,51.49,186.68,37.23,165.79,30,143,30Z"/></g></g></svg>