<?xml version="1.0" encoding="UTF-8"?>
<svg width="12px" height="15px" viewBox="0 0 12 15" version="1.1" xmlns="http://www.w3.org/2000/svg" xmlns:xlink="http://www.w3.org/1999/xlink">
    <!-- Generator: Sketch 64 (93537) - https://sketch.com -->
    <title>list-doc</title>
    <desc>Created with Sketch.</desc>
    <g id="UI" stroke="none" stroke-width="1" fill="none" fill-rule="evenodd">
        <g id="Projects" transform="translate(-713.000000, -21.000000)" fill="#FFFFFF">
            <g id="top-nav">
                <g id="Documentation-Button" transform="translate(704.000000, 16.000000)">
                    <g id="Active">
                        <g id="Text" transform="translate(9.000000, 5.000000)">
                            <g id="Group">
                                <g id="list-doc">
                                    <path d="M5.41180982,4 C7.59926721,4 7.40022154,4 9.58767894,4 C10.1374404,4 10.1374404,3 9.58767894,3 C7.40022154,3 7.59926721,3 5.41180982,3 C4.86273006,3 4.86273006,4 5.41180982,4 Z" id="Path"></path>
                                    <path d="M9.58746549,6 C7.40023174,6 7.59925706,6 5.41202331,6 C4.8626589,6 4.8626589,7 5.41202331,7 C7.59925706,7 7.40023174,7 9.58746549,7 C10.1375115,7 10.1375115,6 9.58746549,6 Z" id="Path"></path>
                                    <path d="M9.58746549,9 C7.40023174,9 7.59925706,9 5.41202331,9 C4.8626589,9 4.8626589,10 5.41202331,10 C7.59925706,10 7.40023174,10 9.58746549,10 C10.1375115,10 10.1375115,9 9.58746549,9 Z" id="Path"></path>
                                    <path d="M9.58746549,11 C7.40023174,11 7.59925706,11 5.41202331,11 C4.8626589,11 4.8626589,12 5.41202331,12 C7.59925706,12 7.40023174,12 9.58746549,12 C10.1375115,12 10.1375115,11 9.58746549,11 Z" id="Path"></path>
                                    <path d="M3.94190766,3 L3.05809234,3 C3.02612887,3 3,3.01996888 3,3.04460581 L3,3.95565353 C3,3.98003112 3.02587519,4 3.05809234,4 L3.94190766,4 C3.97387113,4 4,3.98003112 4,3.95565353 L4,3.04460581 C4,3.01996888 3.97412481,3 3.94190766,3 Z" id="Path"></path>
                                    <path d="M3.94190766,6 L3.05809234,6 C3.02612887,6 3,6.01996888 3,6.04460581 L3,6.95565353 C3,6.98003112 3.02587519,7 3.05809234,7 L3.94190766,7 C3.97387113,7 4,6.98003112 4,6.95565353 L4,6.04460581 C4,6.01996888 3.97412481,6 3.94190766,6 Z" id="Path"></path>
                                    <path d="M3.94190766,9 L3.05809234,9 C3.02612887,9 3,9.0199637 3,9.04485351 L3,9.95540576 C3,9.9800363 3.02587519,10 3.05809234,10 L3.94190766,10 C3.97387113,10 4,9.9800363 4,9.95540576 L4,9.04485351 C4,9.02022297 3.97412481,9 3.94190766,9 Z" id="Path"></path>
                                    <path d="M3.94190766,11 L3.05809234,11 C3.02612887,11 3,11.0199689 3,11.0446058 L3,11.9559129 C3,11.9802905 3.02587519,12 3.05809234,12 L3.94190766,12 C3.97387113,12 4,11.9802905 4,11.9559129 L4,11.0446058 C4,11.0199689 3.97412481,11 3.94190766,11 Z" id="Path"></path>
                                    <path d="M9.77042566,0 L0,0 L0,15 L12,15 L12,2.08069778 L9.77042566,0 Z M10.9625061,14.0009322 L1.03749388,14.0009322 L1.03749388,0.998734936 L9.23611631,0.998734936 L9.23611631,2.58339437 L10.9625061,2.58339437 L10.9625061,14.0009322 Z" id="Shape" fill-rule="nonzero"></path>
                                </g>
                            </g>
                        </g>
                    </g>
                </g>
            </g>
        </g>
    </g>
</svg>