<svg xmlns="http://www.w3.org/2000/svg" viewBox="0 0 380 512">
  <title>locked</title>
  <g id="Layer_2" data-name="Layer 2">
    <g id="Layer_1-2" data-name="Layer 1">
      <g id="surface1">
        <path d="M340,197V150C340,67.29,272.71,0,190,0S40,67.29,40,150v47A50.08,50.08,0,0,0,0,246v56.77a10,10,0,0,0,20,0V246a30,30,0,0,1,30-30H330a30,30,0,0,1,30,30V462a30,30,0,0,1-20,28.28V430a10,10,0,0,0-20,0v62H50a30,30,0,0,1-30-30V383a10,10,0,0,0-20,0v79a50.06,50.06,0,0,0,50,50H330a50.06,50.06,0,0,0,50-50V246A50.08,50.08,0,0,0,340,197Zm-226-1V150a76,76,0,0,1,152,0v46Zm172,0V150a96,96,0,0,0-192,0v46H60V150C60,78.32,118.32,20,190,20S320,78.32,320,150v46Z"/>
        <path d="M10,352.49a10,10,0,1,0-7.07-17.07A10,10,0,0,0,10,352.49Z"/>
        <path d="M190,458a30,30,0,0,0,30-30V374.9a54,54,0,1,0-60-.17V428A30,30,0,0,0,190,458ZM156.13,329.91a34,34,0,1,1,49.35,30.34,10,10,0,0,0-5.48,8.92V428a10,10,0,0,1-20,0V369a10,10,0,0,0-5.42-8.89A33.9,33.9,0,0,1,156.13,329.91Z"/>
        <path d="M330,399a10,10,0,1,0-7.07-2.93A10.06,10.06,0,0,0,330,399Z"/>
      </g>
    </g>
  </g>
</svg>
