<?xml version="1.0" encoding="UTF-8"?>
<svg width="23px" height="31px" viewBox="0 0 23 31" version="1.1" xmlns="http://www.w3.org/2000/svg" xmlns:xlink="http://www.w3.org/1999/xlink">
    <!-- Generator: Sketch 64 (93537) - https://sketch.com -->
    <title>lock</title>
    <desc>Created with Sketch.</desc>
    <g id="Page-1" stroke="none" stroke-width="1" fill="none" fill-rule="evenodd">
        <g id="Class-Hub--Student-Analytics" transform="translate(-801.000000, -642.000000)" fill="#FFFFFF" fill-rule="nonzero">
            <g id="Table" transform="translate(398.000000, 635.000000)">
                <g id="Group">
                    <g id="Rows" transform="translate(194.000000, 0.000000)">
                        <g id="Cells">
                            <g id="5" transform="translate(196.000000, 0.000000)">
                                <g id="lock" transform="translate(13.000000, 7.000000)">
                                    <path d="M22.3610911,11.625 L20.4444245,11.625 L20.4444245,9.04164648 C20.4444245,4.05603516 16.4320625,0 11.5,0 C6.5679375,0 2.55557552,4.05603516 2.55557552,9.04164648 L2.55557552,11.625 L0.638908854,11.625 C0.285763021,11.625 0,11.9138691 0,12.2708535 L0,28.416707 C0,29.8414355 1.14610677,31 2.55557552,31 L20.4444844,31 C21.8538932,31 23,29.8414355 23,28.4166465 L23,12.2708535 C23,11.9138691 22.714237,11.625 22.3610911,11.625 Z M13.4129531,25.1162363 C13.4328984,25.2984824 13.3749193,25.4813945 13.2538698,25.618291 C13.1328203,25.755127 12.959362,25.8333535 12.7778177,25.8333535 L10.2222422,25.8333535 C10.0406979,25.8333535 9.86723958,25.755127 9.7461901,25.618291 C9.62514062,25.4814551 9.56710156,25.298543 9.58710677,25.1162363 L9.99014583,21.4525449 C9.33566406,20.9713184 8.94448437,20.2100625 8.94448437,19.375 C8.94448437,17.9502715 10.0905911,16.7916465 11.5000599,16.7916465 C12.9095286,16.7916465 14.0556354,17.9502109 14.0556354,19.375 C14.0556354,20.2100625 13.6644557,20.9713184 13.009974,21.4525449 L13.4129531,25.1162363 Z M16.6110911,11.625 L6.38890885,11.625 L6.38890885,9.04164648 C6.38890885,6.19279492 8.68178125,3.875 11.5,3.875 C14.3182188,3.875 16.6110911,6.19279492 16.6110911,9.04164648 L16.6110911,11.625 L16.6110911,11.625 Z" id="Shape"></path>
                                </g>
                            </g>
                        </g>
                    </g>
                </g>
            </g>
        </g>
    </g>
</svg>