<svg width="12" height="16" viewBox="0 0 12 16" fill="none" xmlns="http://www.w3.org/2000/svg">
<path fill-rule="evenodd" clip-rule="evenodd" d="M2.25 4.25V6.5H1.5C0.698738 6.5 0 7.0823 0 7.87497V14.125C0 14.9177 0.698738 15.5 1.5 15.5H10.5C11.3013 15.5 12 14.9177 12 14.125V7.87497C12 7.0823 11.3013 6.5 10.5 6.5H9.75V4.25C9.75 2.17893 8.07105 0.5 6 0.5C3.92893 0.5 2.25 2.17893 2.25 4.25ZM8.25 4.25V6.5H3.75V4.25C3.75 3.00736 4.75732 2 6 2C7.24268 2 8.25 3.00736 8.25 4.25ZM1.5 14V8H10.5V14H1.5ZM6.75 11C6.75 11.4142 6.41422 11.75 6 11.75C5.58578 11.75 5.25 11.4142 5.25 11C5.25 10.5858 5.58578 10.25 6 10.25C6.41422 10.25 6.75 10.5858 6.75 11Z" fill="#EE5253"/>
</svg>
