<?xml version="1.0" encoding="UTF-8"?>
<svg width="28px" height="28px" viewBox="0 0 28 28" version="1.1" xmlns="http://www.w3.org/2000/svg" xmlns:xlink="http://www.w3.org/1999/xlink">
    <!-- Generator: Sketch 64 (93537) - https://sketch.com -->
    <title>logout</title>
    <desc>Created with Sketch.</desc>
    <g id="Page-1" stroke="none" stroke-width="1" fill="none" fill-rule="evenodd">
        <g id="UI" transform="translate(-17.000000, -682.000000)" fill="#FFFFFF">
            <g id="UL">
                <g id="Main]" transform="translate(0.000000, 233.000000)">
                    <g id="li-inactive" transform="translate(0.000000, 432.000000)">
                        <g id="Text" transform="translate(17.000000, 17.000000)">
                            <g id="logout">
                                <path d="M17.4658869,15.1372442 C16.8220029,15.1372442 16.3015656,15.6589608 16.3015656,16.3015656 L16.3015656,20.9592775 C16.3015656,21.6008162 15.7798489,22.123599 15.1370309,22.123599 L11.6438535,22.123599 L11.6438535,4.65771202 C11.6438535,3.6633163 11.0104166,2.77488427 10.0580227,2.44420078 L9.71326757,2.32885601 L15.1370309,2.32885601 C15.7798489,2.32885601 16.3015656,2.85163866 16.3015656,3.49339058 L16.3015656,6.98656797 C16.3015656,7.62917277 16.8220029,8.1508894 17.4658869,8.1508894 C18.109771,8.1508894 18.6302083,7.62917277 18.6302083,6.98656797 L18.6302083,3.49339058 C18.6302083,1.56749513 17.0629264,0.000213206628 15.1370309,0.000213206628 L2.61988304,0.000213206628 C2.57553606,0.000213206628 2.53843808,0.0200414503 2.49537037,0.0257979883 C2.43929701,0.0211074698 2.38578219,0.000213206628 2.32885601,0.000213206628 C1.04449928,0.000213206628 2.84217094e-14,1.04449928 2.84217094e-14,2.32885601 L2.84217094e-14,23.2879203 C2.84217094e-14,24.282316 0.633436904,25.170748 1.58583092,25.5014315 L8.59329312,27.8373233 C8.83080533,27.9106664 9.06703827,27.9456323 9.31521078,27.9456323 C10.5995675,27.9456323 11.6438535,26.9011331 11.6438535,25.6167763 L11.6438535,24.4524549 L15.1370309,24.4524549 C17.0629264,24.4524549 18.6302083,22.885173 18.6302083,20.9592775 L18.6302083,16.3015656 C18.6302083,15.6589608 18.109771,15.1372442 17.4658869,15.1372442 Z" id="Path"></path>
                                <path d="M27.6042885,10.820876 L22.9465765,6.16337719 C22.613761,5.83034841 22.1129386,5.73014133 21.6775706,5.91051411 C21.2432687,6.09110013 20.9590643,6.51602093 20.9590643,6.98656797 L20.9590643,10.4797454 L16.3015656,10.4797454 C15.6587476,10.4797454 15.1370309,11.0012488 15.1370309,11.6440668 C15.1370309,12.2868847 15.6587476,12.8083882 16.3015656,12.8083882 L20.9590643,12.8083882 L20.9590643,16.3015656 C20.9590643,16.7721125 21.2432687,17.1970334 21.6775706,17.3776194 C22.1129386,17.5579922 22.613761,17.4577851 22.9465765,17.1249695 L27.6042885,12.4672576 C28.0594847,12.0120614 28.0594847,11.2760721 27.6042885,10.820876 Z" id="Path"></path>
                            </g>
                        </g>
                    </g>
                </g>
            </g>
        </g>
    </g>
</svg>