<?xml version="1.0" encoding="UTF-8"?>
<svg width="20px" height="16px" viewBox="0 0 20 16" version="1.1" xmlns="http://www.w3.org/2000/svg" xmlns:xlink="http://www.w3.org/1999/xlink">
    <!-- Generator: Sketch 64 (93537) - https://sketch.com -->
    <title>parents</title>
    <desc>Created with Sketch.</desc>
    <g id="Page-1" stroke="none" stroke-width="1" fill="none" fill-rule="evenodd">
        <g id="parents" fill="#000000" fill-rule="nonzero">
            <path d="M4.44547,6.19785 C4.34328,6.19785 4.24117,6.23773 4.16453,6.31702 C4.01461,6.47214 4.01887,6.71945 4.17398,6.86937 C4.6848,7.36304 5.51594,7.36304 6.0268,6.86937 C6.18191,6.71945 6.18617,6.47214 6.03625,6.31702 C5.88637,6.16191 5.63902,6.15769 5.48391,6.30757 C5.27246,6.51191 4.92836,6.51191 4.71691,6.30757 C4.64105,6.23433 4.5432,6.19785 4.44547,6.19785 Z" id="Path"></path>
            <path d="M19.9885,8.3215 C20.0376,8.1233 19.9257,7.92067 19.7318,7.85665 C18.8065,7.55094 17.7035,6.86196 17.7035,5.31537 L17.7035,4.4949 C17.7035,3.25815 17.492,2.34514 17.0571,1.7037 C16.5334,0.93144 15.6799,0.53992 14.5204,0.53992 C13.3612,0.53992 12.5079,0.93144 11.9841,1.70366 C11.5489,2.34534 11.3373,3.25838 11.3373,4.4949 L11.3373,5.31541 C11.3373,6.86165 10.2348,7.55083 9.30989,7.85672 C9.11606,7.92083 9.0043,8.1234 9.0534,8.3215 C9.25473,9.1339 9.56418,9.6047 10.1258,9.8687 C10.0088,9.9816 9.90313,10.1078 9.81074,10.2484 C9.23817,9.3766 8.13676,9.0795 7.19806,8.8266 C7.02431,8.7797 6.85673,8.7346 6.69521,8.6872 L6.69521,8.4284 C7.73903,7.86063 8.44911,6.75356 8.44911,5.48373 L8.44911,3.9324 C8.44911,2.08557 6.94716,0.58308 5.101,0.58308 C3.25425,0.58308 1.75179,2.08557 1.75179,3.9324 L1.75179,5.48369 C1.75179,6.75329 2.46183,7.86016 3.50569,8.4281 L3.50569,8.6872 C3.34428,8.7345 3.17678,8.7797 3.00315,8.8264 C1.68007,9.183 0.0334764,9.6268 0,11.6459 C0,11.6481 0,11.6502 0,11.6524 L0,15.0695 C0,15.2852 0.174882,15.4601 0.390623,15.4601 L3.34479,15.4601 C3.56053,15.4601 3.73541,15.2852 3.73541,15.0695 C3.73541,14.8537 3.56053,14.6788 3.34479,14.6788 L2.87175,14.6788 L2.87175,13.0996 C2.87175,12.8839 2.69686,12.709 2.48112,12.709 C2.26538,12.709 2.0905,12.8839 2.0905,13.0996 L2.0905,14.6788 L0.781247,14.6788 L0.781247,11.6557 C0.804645,10.3239 1.71324,9.9832 3.20635,9.5808 C3.33206,9.5469 3.45975,9.5123 3.58682,9.4765 C3.7976,10.1111 4.39647,10.5703 5.10092,10.5703 C5.8049,10.5703 6.40333,10.1111 6.61396,9.4765 C6.74111,9.5123 6.86888,9.547 6.9947,9.5809 C8.48813,9.9833 9.39692,10.3238 9.41946,11.6556 L9.41946,14.6788 L8.1102,14.6788 L8.1102,13.0996 C8.1102,12.8839 7.93532,12.709 7.71958,12.709 C7.50384,12.709 7.32896,12.8839 7.32896,13.0996 L7.32896,14.6788 L6.85259,14.6788 C6.63685,14.6788 6.46197,14.8537 6.46197,15.0695 C6.46197,15.2852 6.63685,15.4601 6.85259,15.4601 L12.7665,15.4601 C12.9822,15.4601 13.1571,15.2852 13.1571,15.0695 C13.1571,14.8537 12.9822,14.6788 12.7665,14.6788 L12.2923,14.6788 L12.2923,13.0996 C12.2923,12.8839 12.1175,12.709 11.9017,12.709 C11.686,12.709 11.5111,12.8839 11.5111,13.0996 L11.5111,14.6788 L10.2007,14.6788 L10.2007,11.6557 C10.2241,10.3238 11.1331,9.9831 12.6268,9.5807 C12.7526,9.5468 12.8802,9.5123 13.0073,9.4764 C13.218,10.1111 13.8164,10.5703 14.5204,10.5703 C15.2249,10.5703 15.8237,10.1111 16.0345,9.4765 C16.1616,9.5123 16.2893,9.5469 16.415,9.5808 C17.9081,9.9832 18.8167,10.3239 18.8401,11.6557 L18.8401,14.6788 L17.5308,14.6788 L17.5308,13.0996 C17.5308,12.8839 17.3559,12.709 17.1402,12.709 C16.9245,12.709 16.7496,12.8839 16.7496,13.0996 L16.7496,14.6788 L16.2732,14.6788 C16.0575,14.6788 15.8826,14.8537 15.8826,15.0695 C15.8826,15.2852 16.0575,15.4601 16.2732,15.4601 L19.2307,15.4601 C19.4464,15.4601 19.6213,15.2852 19.6213,15.0695 L19.6213,11.6524 C19.6213,11.6502 19.6213,11.6481 19.6213,11.6459 C19.6078,10.828 19.3295,10.2686 18.9153,9.8688 C19.4774,9.6048 19.7871,9.134 19.9885,8.3215 Z M2.53292,3.9324 C2.53292,2.51639 3.68491,1.36433 5.10088,1.36433 C6.51626,1.36433 7.66774,2.51635 7.66774,3.9324 L7.66774,4.33654 C6.64099,4.37088 5.34693,4.249 4.39229,3.59658 C4.22069,3.47936 3.98725,3.51698 3.86123,3.68229 C3.53088,4.11561 3.11604,4.22311 2.53292,4.2924 L2.53292,3.9324 Z M5.91388,8.975 C5.91388,9.4239 5.5492,9.7891 5.10092,9.7891 C4.65205,9.7891 4.28686,9.4239 4.28686,8.975 L4.28686,8.7324 C4.5476,8.7978 4.82022,8.833 5.10092,8.833 C5.38127,8.833 5.65349,8.7979 5.91388,8.7326 L5.91388,8.975 Z M5.10088,8.0518 C3.68487,8.0518 2.53292,6.89974 2.53292,5.48369 L2.53292,5.07865 C3.16116,5.00845 3.75291,4.89381 4.24424,4.42373 C5.31338,5.02826 6.61892,5.15013 7.66774,5.11822 L7.66774,5.48365 C7.66774,6.8997 6.51626,8.0518 5.10088,8.0518 Z M12.6306,2.14222 C13.0054,1.58972 13.6235,1.32112 14.5203,1.32112 C15.4176,1.32112 16.0358,1.58968 16.4104,2.14214 C16.7204,2.59917 16.8865,3.26901 16.9167,4.18205 C16.1928,4.30803 15.3402,4.20732 14.869,3.27549 C14.7275,2.99569 14.3132,2.99573 14.1718,3.27549 C13.7005,4.20732 12.8479,4.30799 12.124,4.18205 C12.1542,3.26924 12.3205,2.5994 12.6306,2.14222 Z M12.9261,8.6872 C12.7647,8.7345 12.5972,8.7796 12.4235,8.8264 C11.9505,8.9538 11.436,9.0925 10.9687,9.3102 C10.3575,9.2061 10.0947,9.0105 9.90789,8.467 C10.5412,8.2031 11.3088,7.72563 11.7527,6.88478 C12.0321,7.37563 12.4381,7.78508 12.9262,8.0688 L12.9262,8.6872 L12.9261,8.6872 Z M15.3344,8.975 C15.3344,9.4239 14.9692,9.7891 14.5203,9.7891 C14.0721,9.7891 13.7074,9.4239 13.7074,8.975 L13.7074,8.3929 C13.967,8.4616 14.2394,8.4986 14.5203,8.4986 C14.8017,8.4986 15.0744,8.4614 15.3344,8.3926 L15.3344,8.975 Z M14.5203,7.71735 C13.1959,7.71735 12.1185,6.63985 12.1185,5.31541 L12.1185,4.97162 C12.2847,4.99482 12.4464,5.00646 12.6032,5.00646 C13.3907,5.00646 14.0515,4.71584 14.5203,4.15971 C14.9892,4.71588 15.6499,5.00646 16.4376,5.00646 C16.5942,5.00646 16.756,4.99478 16.9222,4.97162 L16.9222,5.31541 C16.9222,6.63981 15.8447,7.71735 14.5203,7.71735 Z M18.0721,9.3101 C17.6051,9.0925 17.091,8.9539 16.6182,8.8265 C16.4446,8.7797 16.2771,8.7345 16.1157,8.6872 L16.1157,8.0682 C16.6033,7.7845 17.0088,7.37528 17.2881,6.88478 C17.7321,7.72587 18.5002,8.2033 19.1339,8.4671 C18.947,9.0103 18.6839,9.206 18.0721,9.3101 Z" id="Shape"></path>
        </g>
    </g>
</svg>