<svg id="pen" xmlns="http://www.w3.org/2000/svg" width="20.971" height="20.95" viewBox="0 0 20.971 20.95">
  <path id="Path_966" data-name="Path 966" d="M21.264,2.293a1,1,0,0,0-1.414,0l-.872.872a3,3,0,0,0-3.415.586L4.955,14.358l5.657,5.657L21.219,9.408a3,3,0,0,0,.586-3.415l.872-.872a1,1,0,0,0,0-1.414ZM17,10.8l-6.383,6.383L7.784,14.358l6.383-6.383Zm1.818-1.818.991-.991a1,1,0,0,0,0-1.414L18.39,5.166a1,1,0,0,0-1.414,0l-.991.991Z" transform="translate(-2 -2)" fill="#fff" fill-rule="evenodd"/>
  <path id="Path_967" data-name="Path 967" d="M2,22.95l2.122-7.778,5.656,5.657Z" transform="translate(-2 -2)" fill="#fff"/>
</svg>
