<?xml version="1.0" encoding="UTF-8"?>
<svg width="21px" height="28px" viewBox="0 0 21 28" version="1.1" xmlns="http://www.w3.org/2000/svg" xmlns:xlink="http://www.w3.org/1999/xlink">
    <!-- Generator: Sketch 64 (93537) - https://sketch.com -->
    <title>pin</title>
    <desc>Created with Sketch.</desc>
    <g id="Page-1" stroke="none" stroke-width="1" fill="none" fill-rule="evenodd">
        <g id="Class-Hub--Student-Analytics" transform="translate(-755.000000, -685.000000)" fill="#FFFFFF" fill-rule="nonzero">
            <g id="Table" transform="translate(398.000000, 635.000000)">
                <g id="Group">
                    <g id="Rows" transform="translate(194.000000, 0.000000)">
                        <g id="Cells" transform="translate(0.000000, 42.000000)">
                            <g id="4" transform="translate(148.000000, 0.000000)">
                                <g id="pin" transform="translate(15.000000, 8.000000)">
                                    <path d="M10.5,0 C4.70996094,0 0,4.71050781 0,10.5 C0,18.2462656 9.68767187,27.453125 10.100125,27.841625 C10.2128906,27.9470078 10.3564453,28 10.5,28 C10.6435547,28 10.7871094,27.9470078 10.8999297,27.841625 C11.3123281,27.453125 21,18.2462656 21,10.5 C21,4.71050781 16.2900391,0 10.5,0 Z M10.5,16.3333516 C7.28366406,16.3333516 4.66664844,13.7163359 4.66664844,10.5 C4.66664844,7.28366406 7.28371875,4.66664844 10.5,4.66664844 C13.7162813,4.66664844 16.3333516,7.28371875 16.3333516,10.5 C16.3333516,13.7162813 13.7163359,16.3333516 10.5,16.3333516 Z" id="Shape"></path>
                                </g>
                            </g>
                        </g>
                    </g>
                </g>
            </g>
        </g>
    </g>
</svg>