<svg xmlns="http://www.w3.org/2000/svg" width="22" height="26" viewBox="0 0 22 26">
  <g id="rd-competitions" transform="translate(-57 -419)">
    <path id="Path_1893" data-name="Path 1893" d="M78,421H75v-1a1,1,0,0,0-1-1H62a1,1,0,0,0-1,1v1H58a1,1,0,0,0-1,1v6a1,1,0,0,0,.761.971l3.49.859A7.008,7.008,0,0,0,67,434.92V439H63a1,1,0,0,0-1,1v4a1,1,0,0,0,1,1H73a1,1,0,0,0,1-1v-4a1,1,0,0,0-1-1H69v-4.08a7.008,7.008,0,0,0,5.749-5.09l3.49-.859A1,1,0,0,0,79,428v-6A1,1,0,0,0,78,421Zm-6,22H64v-2h8ZM59,423h2v4.709l-2-.492Zm9,10a5.006,5.006,0,0,1-5-5v-7H73v7A5.006,5.006,0,0,1,68,433Zm9-5.783-2,.492V423h2Z" fill="#fff"/>
    <path id="Path_1894" data-name="Path 1894" d="M68.383,423.076a1,1,0,0,0-1.09.217l-2,2a1,1,0,0,0,1.414,1.414l.293-.293V430a1,1,0,0,0,2,0v-6A1,1,0,0,0,68.383,423.076Z" fill="#fff"/>
  </g>
</svg>
