<svg xmlns="http://www.w3.org/2000/svg" width="26" height="26" viewBox="0 0 26 26">
  <g id="rd-home" transform="translate(-211 -55)">
    <path id="Path_1897" data-name="Path 1897" d="M236.975,65.878a.981.981,0,0,0-.005-.121l-1-4A1,1,0,0,0,235,61h-4V60a1,1,0,0,0-.445-.832l-6-4a1,1,0,0,0-1.11,0l-6,4A1,1,0,0,0,217,60v1h-4a1,1,0,0,0-.97.757l-1,4a.981.981,0,0,0-.005.121A.852.852,0,0,0,211,66V80a1,1,0,0,0,1,1h24a1,1,0,0,0,1-1V66A.852.852,0,0,0,236.975,65.878ZM234.219,63l.5,2H231V63ZM219,60.535l5-3.333,5,3.333V79h-4V74a1,1,0,0,0-2,0v5h-4ZM213,67h4V79h-4Zm4-4v2h-3.719l.5-2Zm18,16h-4V67h4Z" fill="#fff"/>
    <path id="Path_1898" data-name="Path 1898" d="M224,66a3,3,0,1,0-3-3A3,3,0,0,0,224,66Zm0-4a1,1,0,1,1-1,1A1,1,0,0,1,224,62Z" fill="#fff"/>
    <path id="Path_1899" data-name="Path 1899" d="M214.08,70.38a.757.757,0,0,0,.09.18,1.576,1.576,0,0,0,.12.15A1.029,1.029,0,0,0,215,71a1,1,0,0,0,.38-.08,1.169,1.169,0,0,0,.33-.21l.12-.15a.8.8,0,0,0,.09-.18.6.6,0,0,0,.059-.18A1.234,1.234,0,0,0,216,70a1.052,1.052,0,0,0-.29-.71,1.169,1.169,0,0,0-.33-.21,1,1,0,0,0-1.09.21A1.047,1.047,0,0,0,214,70a1.354,1.354,0,0,0,.02.2A.635.635,0,0,0,214.08,70.38Z" fill="#fff"/>
    <path id="Path_1900" data-name="Path 1900" d="M232.29,70.71l.149.12a.782.782,0,0,0,.181.09.636.636,0,0,0,.18.06,1.356,1.356,0,0,0,.2.02,1.2,1.2,0,0,0,.189-.02.609.609,0,0,0,.191-.06.568.568,0,0,0,.17-.09c.059-.04.11-.08.16-.12a1.032,1.032,0,0,0,.21-.33A1,1,0,0,0,234,70a1.234,1.234,0,0,0-.021-.2.6.6,0,0,0-.059-.18.8.8,0,0,0-.09-.18l-.12-.15a1.046,1.046,0,0,0-.91-.27.636.636,0,0,0-.18.06.782.782,0,0,0-.181.09l-.149.12a1.576,1.576,0,0,0-.12.15.757.757,0,0,0-.09.18.635.635,0,0,0-.06.18,1.354,1.354,0,0,0-.02.2,1,1,0,0,0,.08.38A1.032,1.032,0,0,0,232.29,70.71Z" fill="#fff"/>
    <path id="Path_1901" data-name="Path 1901" d="M215.38,73.08a1,1,0,0,0-1.09.21A1,1,0,0,0,215,75a.838.838,0,0,0,.38-.08,1.169,1.169,0,0,0,.33-.21,1.014,1.014,0,0,0,0-1.42A1.169,1.169,0,0,0,215.38,73.08Z" fill="#fff"/>
    <path id="Path_1902" data-name="Path 1902" d="M232.8,73.02a.636.636,0,0,0-.18.06.782.782,0,0,0-.181.09l-.149.12A1.047,1.047,0,0,0,232,74a1,1,0,0,0,.08.38,1.155,1.155,0,0,0,.21.33A1.029,1.029,0,0,0,233,75a1.052,1.052,0,0,0,.71-.29,1.032,1.032,0,0,0,.21-.33A1,1,0,0,0,234,74a.993.993,0,0,0-1.2-.98Z" fill="#fff"/>
  </g>
</svg>
