<svg xmlns="http://www.w3.org/2000/svg" width="26" height="19" viewBox="0 0 26 19">
  <path id="rd-my-class" d="M132.93,11.652a.961.961,0,0,0-.046-.1.993.993,0,0,0-.139-.206.864.864,0,0,0-.07-.078.994.994,0,0,0-.266-.179c-.008,0-.015-.011-.023-.014h0l-12-5a1.007,1.007,0,0,0-.77,0l-12,5a1,1,0,0,0,0,1.846l2.4,1A.7.7,0,0,0,110,14v8.282a1.941,1.941,0,0,0,1.789,1.9l8,.809c.07.007.14.01.21.01s.141,0,.211-.01l8-.809a1.942,1.942,0,0,0,1.789-1.9V14a.7.7,0,0,0-.016-.077L131,13.5V18a1,1,0,0,0,2,0V12A1,1,0,0,0,132.93,11.652ZM120,8.083,129.4,12,120,15.917,110.6,12Zm8,14.109L119.99,23,112,22.188V14.75l7.615,3.173a1,1,0,0,0,.77,0L128,14.75Z" transform="translate(-107 -6)" fill="#fff"/>
</svg>
