<svg xmlns="http://www.w3.org/2000/svg" width="20" height="26" viewBox="0 0 20 26">
  <path id="rd-resources" d="M22.015,471H9.985A3.989,3.989,0,0,0,6,474.984V496a1,1,0,0,0,2,0v-.746A9.619,9.619,0,0,1,10.43,495H21.57a9.619,9.619,0,0,1,2.43.254V496a1,1,0,0,0,2,0V474.984A3.989,3.989,0,0,0,22.015,471ZM15,485v4H14v-3H12v3H11v-3H9v3H8v-7H24v7H17v-4ZM9.985,473h12.03A1.988,1.988,0,0,1,24,474.984V480H23v-3H21v3H20v-3H18v3H17v-4H15v4H8v-5.016A1.988,1.988,0,0,1,9.985,473ZM21.57,493H10.43a12.627,12.627,0,0,0-2.43.2V491H24v2.2A12.627,12.627,0,0,0,21.57,493Z" transform="translate(-6 -471)" fill="#fff"/>
</svg>
