<svg xmlns="http://www.w3.org/2000/svg" width="24.827" height="27.511" viewBox="0 0 24.827 27.511">
  <g id="rd-sign-out" transform="translate(-16.05 -375.251)">
    <path id="Path_1905" data-name="Path 1905" d="M165.7,169.229a1.678,1.678,0,1,0-2.227,2.509,9.059,9.059,0,1,1-11.969-.044,1.678,1.678,0,0,0-2.208-2.526,12.413,12.413,0,1,0,16.4.061Z" transform="translate(-129 211.833)" fill="#fff"/>
    <path id="Path_1906" data-name="Path 1906" d="M242.727,133.352a1.678,1.678,0,0,0,1.678-1.678v-8.947a1.678,1.678,0,1,0-3.355,0v8.947A1.677,1.677,0,0,0,242.727,133.352Z" transform="translate(-214.264 254.201)" fill="#fff"/>
  </g>
</svg>
