<?xml version="1.0" encoding="UTF-8"?>
<svg width="55px" height="55px" viewBox="0 0 55 55" version="1.1" xmlns="http://www.w3.org/2000/svg" xmlns:xlink="http://www.w3.org/1999/xlink">
    <!-- Generator: Sketch 61 (89581) - https://sketch.com -->
    <title>reset</title>
    <desc>Created with Sketch.</desc>
    <g id="Page-1" stroke="none" stroke-width="1" fill="none" fill-rule="evenodd">
        <g id="Custom-Preset-8" transform="translate(-1490.000000, -934.000000)" fill="#FFFFFF">
            <g id="Code-Buttons" transform="translate(1470.000000, 906.000000)">
                <g id="Reset-Code" transform="translate(0.000000, 8.000000)">
                    <path d="M47.4495464,20 C40.1011694,20.0132403 33.4292036,22.9089459 28.503377,27.616325 L24.5431552,23.6561032 C22.8665423,21.9794903 20,23.1668693 20,25.5378572 L20,40.4032705 C20,41.873079 21.1914819,43.0645608 22.6612903,43.0645608 L37.5267036,43.0645608 C39.8976915,43.0645608 41.0850706,40.1980185 39.4085685,38.5214056 L34.7790323,33.8918693 C38.2014516,30.6873431 42.6299496,28.9122625 47.3347782,28.8716778 C57.5805242,28.7831899 66.2169657,37.0747725 66.1283669,47.6606092 C66.0443145,57.7026556 57.9029839,66.129077 47.5,66.129077 C42.9395464,66.129077 38.6293649,64.5014762 35.2325605,61.5210528 C34.706623,61.0596516 33.9123387,61.087706 33.4175605,61.5823733 L29.0195565,65.9803774 C28.4793145,66.5206193 28.5060383,67.4013955 29.073004,67.9134721 C33.949375,72.3180185 40.4114315,75.0000447 47.5,75.0000447 C62.6877621,75.0000447 75,62.6879177 75,47.5002665 C75,32.3299137 62.6198992,19.9728774 47.4495464,20 Z" id="reset"></path>
                </g>
            </g>
        </g>
    </g>
</svg>