<?xml version="1.0" encoding="UTF-8"?>
<svg width="20px" height="30px" viewBox="0 0 20 30" version="1.1" xmlns="http://www.w3.org/2000/svg" xmlns:xlink="http://www.w3.org/1999/xlink">
    <!-- Generator: Sketch 63.1 (92452) - https://sketch.com -->
    <title>restaurant</title>
    <desc>Created with Sketch.</desc>
    <g id="Page-1" stroke="none" stroke-width="1" fill="none" fill-rule="evenodd">
        <g id="Project-Page" transform="translate(-672.000000, -234.000000)" fill="#FFFFFF">
            <g id="Header" transform="translate(0.000000, 84.000000)">
                <g id="Header-Content" transform="translate(151.000000, 34.000000)">
                    <g id="FORK-BTN" transform="translate(494.000000, 110.000000)">
                        <g id="restaurant" transform="translate(27.000000, 6.000000)">
                            <path d="M9.80907755,8.09501953 L8.67411662,0.5325 C8.62911662,0.225 8.36532755,0 8.05659709,0 C8.05032755,0 8.04282755,0 8.03532755,0 C7.71780802,0.0100195313 7.45905802,0.256230469 7.43409709,0.572519531 L6.88659709,7.13876953 C6.85284709,7.54376953 6.13407755,7.54376953 6.10032755,7.13876953 L5.55411662,0.572519531 C5.52657755,0.248730469 5.25657755,0 4.93161662,0 C4.60659709,0 4.33536662,0.248730469 4.30911662,0.572519531 L3.76161662,7.13876953 C3.72786662,7.54376953 3.00909709,7.54376953 2.97534709,7.13876953 L2.42907755,0.572519531 C2.40282755,0.257519531 2.14407755,0.01125 1.82655802,0 C1.81905802,0 1.81278849,0 1.80657755,0 C1.49784709,0 1.23405802,0.225 1.18905802,0.5325 L0.0553275545,8.09501953 C-0.278422446,10.3112695 0.924097086,12.43125 2.95155802,13.3150195 L1.98657755,26.8400391 C1.92909709,27.6537891 2.21409709,28.4625586 2.77032755,29.0600391 C3.32532755,29.6575195 4.11159709,30 4.92909709,30 L4.93407755,30 C5.75034709,30 6.53784709,29.6575195 7.09407755,29.0599805 C7.65030802,28.4625 7.93530802,27.6537305 7.87782755,26.8399805 L6.91284709,13.3150195 C8.94036662,12.43125 10.1428276,10.3112695 9.80907755,8.09501953 Z" id="Path"></path>
                            <path d="M18.985,0.11403357 C18.82,-0.00344689901 18.6074805,-0.0309859615 18.4162305,0.0352835697 C18.3625,0.0540335697 13,2.02401404 13,8.12403357 C13,12.5152836 14.42875,14.732764 15.2324805,15.632764 L14.4325,16.4327445 C14.3300195,16.535225 14.2662695,16.6689945 14.2525,16.812725 L13.2637305,26.701475 C13.1787109,27.5427054 13.4549805,28.385225 14.0224609,29.0127054 C14.59,29.6402445 15.40375,29.999014 16.2487891,29.999014 C17.9025391,29.999014 19.2488004,28.652764 19.2488004,26.999014 L19.2488004,0.62403357 C19.2500195,0.420244507 19.1512891,0.231514038 18.985,0.11403357 Z" id="Path"></path>
                        </g>
                    </g>
                </g>
            </g>
        </g>
    </g>
</svg>