<?xml version="1.0" encoding="UTF-8"?>
<svg width="25px" height="25px" viewBox="0 0 25 25" version="1.1" xmlns="http://www.w3.org/2000/svg" xmlns:xlink="http://www.w3.org/1999/xlink">
    <!-- Generator: Sketch 63.1 (92452) - https://sketch.com -->
    <title>right-arrow</title>
    <desc>Created with Sketch.</desc>
    <g id="Page-1" stroke="none" stroke-width="1" fill="none" fill-rule="evenodd">
        <g id="Learning" transform="translate(-881.000000, -601.000000)" fill="#FFFFFF">
            <g id="Popup" transform="translate(474.000000, 262.000000)">
                <g id="Group-6" transform="translate(251.000000, 329.000000)">
                    <g id="right-arrow" transform="translate(156.000000, 10.000000)">
                        <path d="M12.2919049,0 C6.37310967,0 1.41377558,3.9859375 0,9.375 L12.2919049,9.375 L12.2919049,6.265625 C12.2919049,5.95 12.4857034,5.665625 12.7811666,5.54375 C13.0766298,5.4265625 13.4197484,5.4875 13.6469056,5.7109375 L20.0009531,11.9296875 C20.1502732,12.0765625 20.2344644,12.2765625 20.2344644,12.484375 C20.2344644,12.6921875 20.1502732,12.890625 20.0025416,13.0375 L13.6484941,19.2875 C13.495997,19.4359375 13.2926674,19.515625 13.0861609,19.515625 C12.9844961,19.515625 12.8812429,19.4953125 12.7827551,19.45625 C12.4857034,19.3359375 12.2919049,19.05 12.2919049,18.734375 L12.2919049,15.625 L0,15.625 C1.41377558,21.0140625 6.37310967,25 12.2919049,25 C19.3099504,25 25,19.403125 25,12.5 C25,5.596875 19.3099504,0 12.2919049,0 Z" id="Path"></path>
                    </g>
                </g>
            </g>
        </g>
    </g>
</svg>