<?xml version="1.0" encoding="UTF-8"?>
<svg width="25px" height="44px" viewBox="0 0 25 44" version="1.1" xmlns="http://www.w3.org/2000/svg" xmlns:xlink="http://www.w3.org/1999/xlink">
    <!-- Generator: Sketch 53.2 (72643) - https://sketchapp.com -->
    <title>robot</title>
    <desc>Created with Sketch.</desc>
    <g id="Home" stroke="none" stroke-width="1" fill="none" fill-rule="evenodd">
        <g id="Desktop-HD" transform="translate(-303.000000, -1930.000000)" fill="#FFFFFF" fill-rule="nonzero">
            <g id="Answer-Section-Copy" transform="translate(256.000000, 1708.000000)">
                <g id="Features" transform="translate(0.000000, 92.000000)">
                    <g id="Graphics">
                        <g id="Block-2" transform="translate(0.000000, 108.000000)">
                            <g id="Icon/Support" transform="translate(28.000000, 13.000000)">
                                <g id="robot" transform="translate(19.694118, 9.482353)">
                                    <path d="M6.65518358,32.0941176 L9.39187524,32.0941176 C9.84529896,32.0941176 10.2117647,31.7050101 10.2117647,31.223572 L10.2117647,30.776428 C10.2117647,30.2963089 9.84529896,29.9058824 9.39187524,29.9058824 L6.65518358,29.9058824 C6.20175986,29.9058824 5.83529412,30.2963089 5.83529412,30.776428 L5.83529412,31.223572 C5.83529412,31.7036911 6.20175986,32.0941176 6.65518358,32.0941176 Z" id="Shape"></path>
                                    <path d="M5.83529412,34.140694 C5.83529412,34.6224225 6.20175986,35.0117647 6.65518358,35.0117647 L9.39187524,35.0117647 C9.84529896,35.0117647 10.2117647,34.6224225 10.2117647,34.140694 L10.2117647,33.6946002 C10.2117647,33.2128716 9.84529896,32.8235294 9.39187524,32.8235294 L6.65518358,32.8235294 C6.20175986,32.8235294 5.83529412,33.2128716 5.83529412,33.6946002 L5.83529412,34.140694 Z" id="Shape"></path>
                                    <path d="M5.83529412,36.3294543 C5.83529412,36.8095734 6.20175986,37.2 6.65518358,37.2 L9.39187524,37.2 C9.84529896,37.2 10.2117647,36.8095734 10.2117647,36.3294543 L10.2117647,35.8836294 C10.2117647,35.4021913 9.84529896,35.0117647 9.39187524,35.0117647 L6.65518358,35.0117647 C6.20175986,35.0117647 5.83529412,35.4021913 5.83529412,35.8836294 L5.83529412,36.3294543 Z" id="Shape"></path>
                                    <path d="M5.83529412,38.518214 C5.83529412,38.9993622 6.20175986,39.3882353 6.65518358,39.3882353 L9.39187524,39.3882353 C9.84529896,39.3882353 10.2117647,38.9993622 10.2117647,38.518214 L10.2117647,38.0726577 C10.2117647,37.5915096 9.84529896,37.2 9.39187524,37.2 L6.65518358,37.2 C6.20175986,37.2 5.83529412,37.5915096 5.83529412,38.0726577 L5.83529412,38.518214 Z" id="Shape"></path>
                                    <path d="M2.76993296,16.7764706 L0.875951668,16.7764706 C0.392182114,16.7764706 0,17.1660605 0,17.6466324 L0,18.0933776 C0,18.575116 0.392182114,18.9647059 0.875951668,18.9647059 L2.77110716,18.9647059 C3.25487671,18.9647059 3.64705882,18.575116 3.64705882,18.0933776 L3.64705882,17.6466324 C3.64705882,17.1660605 3.25487671,16.7764706 2.76993296,16.7764706 Z" id="Shape"></path>
                                    <path d="M2.76993296,18.9647059 L0.875951668,18.9647059 C0.392182114,18.9647059 0,19.355254 0,19.8355699 L0,20.2820772 C0,20.7635589 0.392182114,21.1529412 0.875951668,21.1529412 L2.77110716,21.1529412 C3.25487671,21.1529412 3.64705882,20.7635589 3.64705882,20.2820772 L3.64705882,19.8355699 C3.64705882,19.355254 3.25487671,18.9647059 2.76993296,18.9647059 Z" id="Shape"></path>
                                    <path d="M2.76993296,21.8823529 L0.875951668,21.8823529 C0.392182114,21.8823529 0,22.2721506 0,22.7529788 L0,23.1987953 C0,23.6807906 0.392182114,24.0705882 0.875951668,24.0705882 L2.77110716,24.0705882 C3.25487671,24.0705882 3.64705882,23.6807906 3.64705882,23.1987953 L3.64705882,22.7529788 C3.64705882,22.2721506 3.25487671,21.8823529 2.76993296,21.8823529 Z" id="Shape"></path>
                                    <path d="M2.76993296,24.0705882 L0.875951668,24.0705882 C0.392182114,24.0705882 0,24.4613445 0,24.9419165 L0,25.3874953 C0,25.8692337 0.392182114,26.2588235 0.875951668,26.2588235 L2.77110716,26.2588235 C3.25487671,26.2588235 3.64705882,25.8692337 3.64705882,25.3874953 L3.64705882,24.9419165 C3.64705882,24.4613445 3.25487671,24.0705882 2.76993296,24.0705882 Z" id="Shape"></path>
                                    <path d="M8.53290548,39.3882353 L6.7859131,39.3882353 C5.45515045,39.3882353 4.37647059,40.6154826 4.37647059,42.1308662 L4.37647059,43.0352941 L10.9411765,43.0352941 L10.9411755,42.1281983 C10.942348,40.6141486 9.86366813,39.3882353 8.53290548,39.3882353 Z" id="Shape"></path>
                                    <circle id="Oval" cx="1.45882353" cy="29.1764706" r="1.45882353"></circle>
                                    <path d="M2.81657588,1.25114065 C2.86562849,1.25114065 2.91234526,1.24532139 2.95789412,1.23484672 L6.29814332,6.18819984 C5.81929641,6.60485877 5.51446947,7.2170448 5.51446947,7.90022578 L5.51446947,10.8564093 C5.51446947,12.1110415 6.53639886,13.1294118 7.79658379,13.1294118 L11.6705721,13.1294118 L11.6740759,13.1294118 L15.5480642,13.1294118 C16.8082491,13.1294118 17.8278427,12.1110415 17.8278427,10.8564093 L17.8278427,7.90022578 C17.8278427,7.2170448 17.5241837,6.60485877 17.0453368,6.18819984 L20.384418,1.23484672 C20.4299669,1.24532139 20.4766837,1.25114065 20.5257363,1.25114065 C20.8714404,1.25114065 21.1529089,0.970652372 21.1529089,0.624988398 C21.1564127,0.280488275 20.8737762,0 20.5280721,0 C20.182368,0 19.8997315,0.280488275 19.8997315,0.62615225 C19.8997315,0.711113429 19.9172503,0.792583052 19.9487841,0.867069565 L16.5723294,5.87163216 C16.2639987,5.71683987 15.9171267,5.62838714 15.5480642,5.62838714 L11.6752438,5.62838714 L11.6705721,5.62838714 L7.79775171,5.62838714 C7.42868921,5.62838714 7.08181718,5.71800372 6.7746544,5.87163216 L3.39819969,0.867069565 C3.42739768,0.792583052 3.44491646,0.709949577 3.44491646,0.62615225 C3.44491646,0.280488275 3.16461583,1.29213503e-16 2.8177438,1.29213503e-16 C2.47087177,0 2.18823529,0.280488275 2.18823529,0.62615225 C2.18823529,0.970652372 2.47087177,1.25114065 2.81657588,1.25114065 Z M13.9550223,8.56245744 C14.5331423,8.56245744 15.001478,9.029162 15.001478,9.60526862 C15.001478,10.1813752 14.5343103,10.6480798 13.9550223,10.6480798 C13.3757343,10.6480798 12.9085666,10.1813752 12.9085666,9.60526862 C12.9085666,9.03032585 13.3757343,8.56245744 13.9550223,8.56245744 Z M9.38962572,8.56245744 C9.96774578,8.56245744 10.4360814,9.029162 10.4360814,9.60526862 C10.4360814,10.1813752 9.96774578,10.6480798 9.38962572,10.6480798 C8.81150567,10.6480798 8.34317002,10.1813752 8.34317002,9.60526862 C8.34317002,9.03032585 8.81267358,8.56245744 9.38962572,8.56245744 Z" id="Shape"></path>
                                    <path d="M14.0181648,24.3330942 C13.968274,24.3858011 13.9032999,24.4140828 13.8383257,24.4140828 C13.7733516,24.4140828 13.7095378,24.3870866 13.6596469,24.3330942 C13.5598653,24.2225383 13.5598653,24.0438491 13.6596469,23.9332932 L14.1133055,23.4306496 C13.6039548,22.966572 12.9669765,22.6696137 12.269665,22.6117647 L12.269665,23.3702295 C12.269665,23.5180659 12.1687231,23.636335 12.0387749,23.6504759 L12.0387749,23.6517614 L12.0376146,23.6517614 C12.0364544,23.6517614 12.0364544,23.6517614 12.0352941,23.6517614 L12.0352941,23.6504759 C11.9053459,23.636335 11.804404,23.5180659 11.804404,23.3702295 L11.804404,22.6117647 C11.1082528,22.6696137 10.4712744,22.9652864 9.96192377,23.4306496 L10.4155823,23.9332932 C10.5142037,24.0438491 10.5142037,24.2225383 10.4155823,24.3330942 C10.3656915,24.3858011 10.3007174,24.4140828 10.234583,24.4140828 C10.1696089,24.4140828 10.1046348,24.3870866 10.0547439,24.3330942 L9.59644439,23.8240229 C9.07433098,24.4706463 8.75294118,25.3229551 8.75294118,26.2588235 L11.8020835,26.2588235 L11.8020835,25.3216695 C11.8020835,25.1751187 11.9030254,25.0555641 12.0329736,25.0427087 L12.0329736,25.0414232 C12.0329736,25.0414232 12.0329736,25.0414232 12.0341339,25.0414232 C12.0352941,25.0414232 12.0364544,25.0414232 12.0364544,25.0414232 L12.0364544,25.0427087 C12.1664026,25.0555641 12.2673445,25.1751187 12.2673445,25.3216695 L12.2673445,26.2588235 L15.3176471,26.2588235 C15.3176471,25.3229551 14.9974175,24.4719318 14.4753041,23.8240229 L14.0181648,24.3330942 Z" id="Shape"></path>
                                    <path d="M16.7123729,14.5882353 L11.6734724,14.5882353 L11.668857,14.5882353 L6.62995644,14.5882353 C5.38494301,14.5882353 4.37647059,15.6377178 4.37647059,16.9306803 L4.37647059,27.562238 C4.37647059,28.8563998 5.38494301,29.9058824 6.62995644,29.9058824 L11.668857,29.9058824 L11.6723185,29.9058824 L16.711219,29.9058824 C17.9562325,29.9058824 18.9647049,28.8563998 18.9647049,27.562238 L18.9647049,16.9306803 C18.9658588,15.6377178 17.9573863,14.5882353 16.7123729,14.5882353 Z M13.9258044,16.4581133 C14.2465771,16.4581133 14.508503,16.7291796 14.508503,17.0638146 C14.508503,17.3984496 14.2465771,17.669516 13.9258044,17.669516 C13.6050317,17.669516 13.3431058,17.3984496 13.3431058,17.0638146 C13.3431058,16.7291796 13.6038778,16.4581133 13.9258044,16.4581133 Z M13.9258044,17.9945557 C14.2465771,17.9945557 14.508503,18.2668214 14.508503,18.600257 C14.508503,18.934892 14.2465771,19.2059584 13.9258044,19.2059584 C13.6050317,19.2059584 13.3431058,18.934892 13.3431058,18.600257 C13.3431058,18.2668214 13.6038778,17.9945557 13.9258044,17.9945557 Z M10.5796144,16.9894513 C10.5796144,16.7351767 10.7780781,16.5300778 11.0226961,16.5300778 L11.6700108,16.5300778 L11.6734724,16.5300778 L12.3207871,16.5300778 C12.5665589,16.5300778 12.7638688,16.7351767 12.7638688,16.9894513 L12.7638688,18.6758198 C12.7638688,18.9300944 12.5665589,19.1363927 12.3207871,19.1363927 L11.6734724,19.1363927 L11.668857,19.1363927 L11.0226961,19.1363927 C10.779232,19.1363927 10.5796144,18.9312938 10.5796144,18.6758198 L10.5796144,16.9894513 Z M9.4153711,16.4569139 C9.73729765,16.4569139 9.9980697,16.7291796 9.9980697,17.0638146 C9.9980697,17.3984496 9.73614379,17.669516 9.4153711,17.669516 C9.09459841,17.669516 8.83267251,17.3984496 8.83267251,17.0638146 C8.83382637,16.7291796 9.09459841,16.4569139 9.4153711,16.4569139 Z M9.4153711,17.9945557 C9.73729765,17.9945557 9.9980697,18.2668214 9.9980697,18.600257 C9.9980697,18.934892 9.73614379,19.2059584 9.4153711,19.2059584 C9.09459841,19.2059584 8.83267251,18.934892 8.83267251,18.600257 C8.83382637,18.2668214 9.09459841,17.9945557 9.4153711,17.9945557 Z M7.79189205,16.4569139 C8.1138186,16.4569139 8.37459064,16.7291796 8.37459064,17.0638146 C8.37459064,17.3984496 8.11266474,17.669516 7.79189205,17.669516 C7.47111936,17.669516 7.20919346,17.3984496 7.20919346,17.0638146 C7.20919346,16.7291796 7.46881164,16.4569139 7.79189205,16.4569139 Z M7.2080396,18.6014564 C7.2080396,18.2668214 7.4699655,17.9957551 7.79073819,17.9957551 C8.11151088,17.9957551 8.37343679,18.2680208 8.37343679,18.6014564 C8.37343679,18.9360914 8.11151088,19.2071578 7.79073819,19.2071578 C7.46881164,19.2071578 7.2080396,18.9360914 7.2080396,18.6014564 Z M15.8262095,26.9673313 L11.6677031,26.9673313 L11.6677031,26.9673313 L7.51381213,26.9673313 C7.43765746,26.6338957 7.39496469,26.2872666 7.39496469,25.9286435 C7.39496469,23.4734541 9.30921611,21.4764388 11.668857,21.4608465 L11.668857,21.4608465 C11.6700108,21.4608465 11.6711647,21.4608465 11.6723185,21.4608465 L11.6723185,21.4608465 C14.0308055,21.47404 15.9462108,23.4734541 15.9462108,25.9286435 C15.9462108,26.2860672 15.903518,26.6326963 15.8262095,26.9673313 Z M15.5515911,19.2071578 C15.2296646,19.2071578 14.9677387,18.9360914 14.9677387,18.6014564 C14.9677387,18.2680208 15.2296646,17.9957551 15.5515911,17.9957551 C15.8735177,17.9957551 16.1342897,18.2680208 16.1342897,18.6014564 C16.1342897,18.9360914 15.87121,19.2071578 15.5515911,19.2071578 Z M15.5515911,17.669516 C15.2296646,17.669516 14.9677387,17.3984496 14.9677387,17.0638146 C14.9677387,16.7291796 15.2296646,16.4581133 15.5515911,16.4581133 C15.8735177,16.4581133 16.1342897,16.7291796 16.1342897,17.0638146 C16.1342897,17.3984496 15.87121,17.669516 15.5515911,17.669516 Z" id="Shape"></path>
                                    <path d="M13.948836,32.0941176 L16.683975,32.0941176 C17.1371414,32.0941176 17.5058824,31.7050101 17.5058824,31.223572 L17.5058824,30.776428 C17.5058824,30.2963089 17.1371414,29.9058824 16.683975,29.9058824 L13.948836,29.9058824 C13.4969111,29.9058824 13.1294118,30.2963089 13.1294118,30.776428 L13.1294118,31.223572 C13.1294118,31.7036911 13.4969111,32.0941176 13.948836,32.0941176 Z" id="Shape"></path>
                                    <path d="M13.1294118,34.140694 C13.1294118,34.6224225 13.4969111,35.0117647 13.948836,35.0117647 L16.683975,35.0117647 C17.1371414,35.0117647 17.5058824,34.6224225 17.5058824,34.140694 L17.5058824,33.6946002 C17.5058824,33.2128716 17.1371414,32.8235294 16.683975,32.8235294 L13.948836,32.8235294 C13.4969111,32.8235294 13.1294118,33.2128716 13.1294118,33.6946002 L13.1294118,34.140694 Z" id="Shape"></path>
                                    <path d="M13.1294118,36.3294543 C13.1294118,36.8095734 13.4969111,37.2 13.948836,37.2 L16.683975,37.2 C17.1371414,37.2 17.5058824,36.8095734 17.5058824,36.3294543 L17.5058824,35.8836294 C17.5058824,35.4021913 17.1371414,35.0117647 16.683975,35.0117647 L13.948836,35.0117647 C13.4969111,35.0117647 13.1294118,35.4021913 13.1294118,35.8836294 L13.1294118,36.3294543 Z" id="Shape"></path>
                                    <path d="M13.1294118,38.518214 C13.1294118,38.9993622 13.4969111,39.3882353 13.948836,39.3882353 L16.683975,39.3882353 C17.1371414,39.3882353 17.5058824,38.9993622 17.5058824,38.518214 L17.5058824,38.0726577 C17.5058824,37.5915096 17.1371414,37.2 16.683975,37.2 L13.948836,37.2 C13.4969111,37.2 13.1294118,37.5915096 13.1294118,38.0726577 L13.1294118,38.518214 Z" id="Shape"></path>
                                    <path d="M22.4631591,16.7764706 L20.5697874,16.7764706 C20.0861735,16.7764706 19.6941176,17.1660605 19.6941176,17.6466324 L19.6941176,18.0933776 C19.6941176,18.575116 20.0861735,18.9647059 20.5697874,18.9647059 L22.4631591,18.9647059 C22.9491206,18.9647059 23.3411765,18.575116 23.3411765,18.0933776 L23.3411765,17.6466324 C23.3411765,17.1660605 22.9491206,16.7764706 22.4631591,16.7764706 Z" id="Shape"></path>
                                    <path d="M22.4631591,18.9647059 L20.5697874,18.9647059 C20.0861735,18.9647059 19.6941176,19.3540882 19.6941176,19.8355699 L19.6941176,20.2820772 C19.6941176,20.7635589 20.0861735,21.1529412 20.5697874,21.1529412 L22.4631591,21.1529412 C22.9491206,21.1529412 23.3411765,20.7635589 23.3411765,20.2820772 L23.3411765,19.8355699 C23.3411765,19.355254 22.9491206,18.9647059 22.4631591,18.9647059 Z" id="Shape"></path>
                                    <path d="M22.4631591,21.8823529 L20.5697874,21.8823529 C20.0861735,21.8823529 19.6941176,22.2719428 19.6941176,22.7536812 L19.6941176,23.19926 C19.6941176,23.6809984 20.0861735,24.0705882 20.5697874,24.0705882 L22.4631591,24.0705882 C22.9491206,24.0705882 23.3411765,23.6809984 23.3411765,23.19926 L23.3411765,22.7536812 C23.3411765,22.2719428 22.9491206,21.8823529 22.4631591,21.8823529 Z" id="Shape"></path>
                                    <path d="M22.4631591,24.0705882 L20.5697874,24.0705882 C20.0861735,24.0705882 19.6941176,24.4613445 19.6941176,24.9419165 L19.6941176,25.3874953 C19.6941176,25.8692337 20.0861735,26.2588235 20.5697874,26.2588235 L22.4631591,26.2588235 C22.9491206,26.2588235 23.3411765,25.8692337 23.3411765,25.3874953 L23.3411765,24.9419165 C23.3411765,24.4613445 22.9491206,24.0705882 22.4631591,24.0705882 Z" id="Shape"></path>
                                    <path d="M16.5564355,39.3882353 L14.8094429,39.3882353 C13.47868,39.3882353 12.4,40.6154826 12.4,42.1308662 L12.4,43.0352941 L18.9647059,43.0352941 L18.9647059,42.1281983 C18.9635334,40.6141486 17.8848534,39.3882353 16.5564355,39.3882353 Z" id="Shape"></path>
                                    <circle id="Oval" cx="21.1529412" cy="29.1764706" r="1.45882353"></circle>
                                </g>
                            </g>
                        </g>
                    </g>
                </g>
            </g>
        </g>
    </g>
</svg>