<svg width="30" height="30" viewBox="0 0 30 30" fill="none" xmlns="http://www.w3.org/2000/svg">
<path d="M23.4375 11.7188H21.5625C20.9522 11.7188 20.4366 12.112 20.2425 12.6562H19.147L18.3398 7.81453C18.2648 7.36078 17.8758 7.03125 17.4155 7.03125H15.4688V5.15625C15.4688 4.63922 15.0483 4.21875 14.5312 4.21875H13.5938C13.0767 4.21875 12.6562 4.63922 12.6562 5.15625H11.1637C10.9697 4.61203 10.4541 4.21875 9.84375 4.21875C9.06844 4.21875 8.4375 4.84969 8.4375 5.625C8.4375 6.40031 9.06844 7.03125 9.84375 7.03125C10.4541 7.03125 10.9697 6.63797 11.1637 6.09375H12.6562V7.46438L11.7933 13.0748L8.90625 14.0372V11.25C8.90625 9.95766 7.85484 8.90625 6.5625 8.90625H6.09375V14.9747L5.15625 15.2873V14.5312C5.15625 14.0142 4.73578 13.5938 4.21875 13.5938H3.28125C2.76422 13.5938 2.34375 14.0142 2.34375 14.5312V15.4688H1.875C1.09969 15.4688 0.46875 16.0997 0.46875 16.875C0.46875 17.6503 1.09969 18.2812 1.875 18.2812H2.34375V19.2188C2.34375 19.7358 2.76422 20.1562 3.28125 20.1562H4.21875C4.73578 20.1562 5.15625 19.7358 5.15625 19.2188V18.5339L6.09375 18.9506V24.8438H6.5625C7.85484 24.8438 8.90625 23.7923 8.90625 22.5V20.2003L13.0256 22.0312H25.3125C27.6384 22.0312 29.5312 20.1389 29.5312 17.8125C29.5312 14.4525 26.7975 11.7188 23.4375 11.7188ZM9.84375 6.09375C9.58547 6.09375 9.375 5.88328 9.375 5.625C9.375 5.36672 9.58547 5.15625 9.84375 5.15625C10.102 5.15625 10.3125 5.36672 10.3125 5.625C10.3125 5.88328 10.102 6.09375 9.84375 6.09375ZM1.875 17.3438C1.61672 17.3438 1.40625 17.1337 1.40625 16.875C1.40625 16.6163 1.61672 16.4062 1.875 16.4062H2.34375V17.3438H1.875ZM21.0938 15.4688H22.9688V17.3438H21.0938V15.4688ZM23.9062 15.4688H25.7812V17.3438H23.9062V15.4688ZM23.9062 12.6802C24.5766 12.7411 25.2089 12.9319 25.7812 13.2258V14.5312H23.9062V12.6802ZM26.7188 15.4688H28.0247C28.3181 16.0411 28.5094 16.6734 28.5703 17.3438H26.7188V15.4688ZM27.412 14.5312H26.7188V13.838C26.9709 14.047 27.203 14.2791 27.412 14.5312ZM21.5625 12.6562H22.9688V14.5312H21.0938V13.125C21.0938 12.8667 21.3042 12.6562 21.5625 12.6562ZM17.8842 10.7812H16.4062V9.84375H17.7281L17.8842 10.7812ZM17.5716 8.90625H15.4688V11.7188H18.0403L18.1964 12.6562H13.5056C13.2628 12.6562 13.0242 12.6961 12.7908 12.7575L13.5272 7.96875H17.4155L17.5716 8.90625ZM10.7812 14.4005L12.6562 13.7756V15.4688H10.7812V14.4005ZM14.5312 5.15625V7.03125H13.5938V5.15625H14.5312ZM9.84375 14.7127V16.4062H13.5938V13.5938H20.1562V17.3438H8.90625V15.0253L9.84375 14.7127ZM7.03125 9.92391C7.57688 10.1175 7.96875 10.6388 7.96875 11.25V14.3498L7.03125 14.6625V9.92391ZM3.28125 19.2188V14.5312H4.21875L4.21922 19.2188H3.28125ZM5.15625 16.275L7.96875 15.3375V18.7575L5.15625 17.5073V16.275ZM7.96875 22.5C7.96875 23.1112 7.57688 23.6325 7.03125 23.8261V19.3673L7.96875 19.7841V22.5ZM25.3125 21.0938H13.2244L8.90625 19.1742V18.2812H28.5562C28.3275 19.8684 26.962 21.0938 25.3125 21.0938Z" fill="#1D66BB"/>
<path d="M16.4062 14.5312H17.3438V15.4688H16.4062V14.5312Z" fill="#1D66BB"/>
<path d="M18.2812 14.5312H19.2188V15.4688H18.2812V14.5312Z" fill="#1D66BB"/>
<path d="M14.5312 14.5312H15.4688V15.4688H14.5312V14.5312Z" fill="#1D66BB"/>
</svg>
