<svg width="24" height="24" viewBox="0 0 24 24" fill="none" xmlns="http://www.w3.org/2000/svg">
	<path d="M12.5952 11.408C12.4119 11.2247 12.1153 11.2247 11.932 11.408C11.7492 11.5908 11.7492 11.8875 11.932 12.0708C12.1153 12.2536 12.4119 12.2536 12.5952 12.0708C12.778 11.8875 12.778 11.5908 12.5952 11.408Z" fill="black"/>
	<path d="M18.5661 5.43889C17.6502 4.523 16.1675 4.52295 15.2515 5.43889C14.338 6.35243 14.338 7.8393 15.2517 8.7536C16.1655 9.66691 17.6523 9.66729 18.5661 8.75351C19.4819 7.83766 19.4821 6.35487 18.5661 5.43889ZM17.9032 8.09055C17.3551 8.63871 16.4629 8.63871 15.9146 8.09065C15.3664 7.54212 15.3663 6.6499 15.9145 6.10179C16.464 5.55228 17.3536 5.55218 17.9032 6.10179C18.4527 6.65126 18.4528 7.54099 17.9032 8.09055Z" fill="black"/>
	<path d="M23.8618 0.137301C23.7697 0.0452858 23.6441 -0.00458915 23.5135 0.000332718C23.4075 0.00412959 20.884 0.105567 17.8842 1.16583C15.4805 2.01455 13.4769 3.22969 11.9292 4.7775C11.5823 5.12432 11.2448 5.4921 10.9219 5.87418C9.39154 4.97334 8.1652 5.25581 7.38993 5.6707C5.60489 6.62601 4.5 9.21988 4.5 11.0752C4.50014 11.2647 4.61437 11.4357 4.7895 11.5082C4.84748 11.5323 4.90842 11.5439 4.9688 11.5439C5.09081 11.5439 5.21067 11.4963 5.30034 11.4066C6.24173 10.4653 7.40287 10.5241 7.78218 10.574L7.94634 10.7382C7.62327 11.5069 7.36303 12.2713 7.17215 13.0148C7.10324 13.2839 7.12649 13.5686 7.22892 13.829C6.7776 14.037 6.34218 14.3424 5.96306 14.7215C4.75645 15.9282 4.51144 18.8688 4.50159 18.9934C4.49081 19.1302 4.54041 19.2648 4.63739 19.3618C4.72566 19.45 4.84505 19.4991 4.9688 19.4991C4.98108 19.4991 4.99341 19.4986 5.00573 19.4976C5.13033 19.4878 8.07107 19.2428 9.27768 18.0362C9.65666 17.6572 9.962 17.2218 10.17 16.7706C10.4457 16.8791 10.7295 16.8924 10.9847 16.827C11.7278 16.6362 12.4922 16.376 13.261 16.0529L13.4252 16.2171C13.475 16.5964 13.5339 17.7576 12.5925 18.6989C12.4585 18.8329 12.4184 19.0345 12.491 19.2097C12.5635 19.3848 12.7344 19.499 12.924 19.499C14.7793 19.499 17.3731 18.3941 18.3284 16.6091C18.7433 15.8339 19.0258 14.6076 18.1249 13.0772C18.5068 12.7544 18.8747 12.4169 19.2216 12.0699C20.7694 10.5221 21.9845 8.51854 22.8332 6.11498C23.8936 3.11508 23.9949 0.591519 23.9987 0.485582C24.0034 0.355504 23.9538 0.229364 23.8618 0.137301ZM5.54803 10.067C5.83922 8.65775 6.68498 7.1114 7.83248 6.49724C8.5993 6.0869 9.43747 6.12712 10.3287 6.61495C9.56943 7.61347 8.90938 8.68925 8.35921 9.82527C8.35223 9.82096 8.26785 9.71488 8.1111 9.67953C8.04665 9.66496 6.80639 9.39819 5.54803 10.067ZM8.61477 17.3733C7.97024 18.0178 6.45829 18.3577 5.50265 18.4965C5.6415 17.5408 5.98148 16.0289 6.62596 15.3844C6.9869 15.0235 7.4054 14.7499 7.82606 14.5957L9.40349 16.1732C9.24937 16.5938 8.97576 17.0123 8.61477 17.3733ZM10.7518 15.9189C10.6161 15.9536 10.459 15.9026 10.3422 15.786C9.73579 15.1796 9.49855 14.9423 9.42411 14.8679C9.28761 14.7314 8.95288 14.3967 8.21352 13.6573C8.09662 13.5402 8.04562 13.3831 8.08026 13.2477C8.2304 12.6629 8.42676 12.063 8.66554 11.4574L12.5419 15.3337C11.9361 15.5725 11.3363 15.7688 10.7518 15.9189ZM17.502 16.1667C16.8878 17.3142 15.3415 18.16 13.9324 18.4511C14.3817 17.6057 14.4807 16.5294 14.3165 15.8767C14.2784 15.7251 14.1795 15.6489 14.174 15.64C15.3099 15.0898 16.3856 14.4297 17.3843 13.6705C17.8721 14.5618 17.9123 15.4001 17.502 16.1667ZM18.5588 11.407C18.1364 11.8294 17.6816 12.2374 17.2069 12.6198C16.0659 13.5385 14.81 14.3167 13.4702 14.9362L9.06299 10.5291C9.68249 9.18917 10.4607 7.9333 11.3794 6.79241C11.762 6.31743 12.17 5.86256 12.5922 5.4404C13.9809 4.05168 15.7731 2.94647 17.9206 2.15091L21.8483 6.07865C21.0528 8.22604 19.9476 10.0183 18.5588 11.407ZM22.1856 5.09001L18.9092 1.81364C20.6942 1.25921 22.2472 1.0516 23.0223 0.976972C22.9476 1.75224 22.74 3.30515 22.1856 5.09001Z" fill="black"/>
	<path d="M11.2723 19.3619C11.0891 19.1788 10.7923 19.1789 10.6093 19.3619L9.2837 20.6881C9.10071 20.8712 9.10075 21.168 9.2838 21.351C9.46694 21.534 9.76375 21.534 9.94675 21.3509L11.2724 20.0248C11.4554 19.8417 11.4553 19.5449 11.2723 19.3619Z" fill="black"/>
	<path d="M4.64011 12.732C4.4571 12.549 4.16033 12.549 3.97718 12.7319L2.65103 14.0574C2.46793 14.2404 2.46788 14.5372 2.65089 14.7202C2.83385 14.9032 3.13063 14.9034 3.31382 14.7203L4.63997 13.3949C4.82307 13.2119 4.82312 12.9151 4.64011 12.732Z" fill="black"/>
	<path d="M7.95405 20.0269C7.7711 19.8439 7.47424 19.8439 7.29115 20.0269L4.11584 23.2017C3.93275 23.3848 3.93275 23.6816 4.11579 23.8646C4.29875 24.0477 4.59561 24.0478 4.7787 23.8647L7.95401 20.6898C8.1371 20.5068 8.1371 20.21 7.95405 20.0269Z" fill="black"/>
	<path d="M4.20405 20.0269C4.02105 19.8439 3.72419 19.8439 3.54115 20.0269L0.365842 23.2017C0.182748 23.3848 0.182748 23.6816 0.365795 23.8646C0.548747 24.0477 0.845606 24.0478 1.0287 23.8647L4.20401 20.6898C4.3871 20.5068 4.3871 20.21 4.20405 20.0269Z" fill="black"/>
	<path d="M3.97502 16.0454C3.79202 15.8625 3.49516 15.8625 3.31212 16.0455L0.137279 19.2205C-0.0457675 19.4036 -0.0457675 19.7003 0.137326 19.8834C0.320372 20.0664 0.617184 20.0664 0.800231 19.8834L3.97507 16.7083C4.15811 16.5253 4.15811 16.2285 3.97502 16.0454Z" fill="black"/>
	<path d="M14.5877 9.41853C14.4047 9.23549 14.108 9.23549 13.9249 9.41853L13.2623 10.0813C13.0792 10.2644 13.0792 10.5612 13.2623 10.7443C13.4453 10.9273 13.742 10.9273 13.9251 10.7443L14.5877 10.0815C14.7707 9.89844 14.7707 9.60163 14.5877 9.41853Z" fill="black"/>
</svg>
