<svg height="496pt" viewBox="-15 0 495 496" width="496pt" xmlns="http://www.w3.org/2000/svg"><path d="m224.5 0h16v48h-16zm0 0"/><path d="m62.796875 73.613281 11.3125-11.3125 33.9375 33.933594-11.316406 11.3125zm0 0"/><path d="m.5 224h48v16h-48zm0 0"/><path d="m416.5 224h48v16h-48zm0 0"/><path d="m356.945312 96.234375 33.9375-33.933594 11.3125 11.3125-33.933593 33.933594zm0 0"/><path d="m342.804688 358.527344c36.664062-31.917969 57.695312-78.03125 57.695312-126.527344 0-46.550781-18.609375-89.839844-52.390625-121.894531-33.761719-32.035157-78.023437-48.25-124.679687-45.867188-87.226563 4.59375-157.019532 76.664063-158.890626 164.082031-1.054687 49.441407 19.617188 96.589844 56.714844 129.390626 3.757813 3.328124 7.070313 6.984374 9.980469 10.914062-10.703125 2.40625-18.734375 11.949219-18.734375 23.375 0 6.167969 2.40625 11.742188 6.238281 16-3.839843 4.257812-6.238281 9.832031-6.238281 16 0 13.230469 10.769531 24 24 24h17.601562c14.957032 29.351562 45.078126 48 78.398438 48 33.207031 0 63.390625-18.679688 78.367188-48h17.632812c13.230469 0 24-10.769531 24-24 0-6.167969-2.40625-11.742188-6.238281-16 3.839843-4.257812 6.238281-9.832031 6.238281-16 0-11.503906-8.144531-21.128906-18.96875-23.449219 2.730469-3.640625 5.808594-7 9.273438-10.023437zm-262.265626-129.863282c1.6875-79.089843 64.832032-144.296874 143.738282-148.449218 42.191406-2.207032 82.277344 12.503906 112.824218 41.496094 30.566407 29 47.398438 68.160156 47.398438 110.289062 0 43.855469-19.023438 85.574219-52.199219 114.472656-7.039062 6.136719-12.800781 13.398438-17.335937 21.527344h-165.160156c-4.679688-8.304688-10.648438-15.816406-17.953126-22.273438-33.566406-29.671874-52.273437-72.34375-51.3125-117.0625zm151.960938 251.335938c-24.359375 0-46.503906-12.273438-59.710938-32h119.445313c-13.214844 19.71875-35.445313 32-59.734375 32zm96-48h-192c-4.40625 0-8-3.585938-8-8s3.59375-8 8-8h192c4.40625 0 8 3.585938 8 8s-3.59375 8-8 8zm8-40c0 4.414062-3.59375 8-8 8h-192c-4.40625 0-8-3.585938-8-8s3.59375-8 8-8h192c4.40625 0 8 3.585938 8 8zm0 0"/><path d="m136.5 264c0 13.230469 10.769531 24 24 24h24v-15.144531c0-4.304688 2.894531-8.144531 6.601562-8.742188 2.429688-.410156 4.757813.238281 6.574219 1.78125 1.800781 1.53125 2.824219 3.753907 2.824219 6.105469v16h136c13.230469 0 24-10.769531 24-24v-24h-24c-2.351562 0-4.574219-1.03125-6.097656-2.824219-1.542969-1.824219-2.175782-4.160156-1.789063-6.574219.605469-3.707031 4.445313-6.601562 8.742188-6.601562h23.144531v-24c0-13.230469-10.769531-24-24-24h-16v-7.144531c0-12.128907-8.609375-22.679688-20.023438-24.535157-7.007812-1.136718-14.144531.824219-19.511718 5.390626-5.386719 4.570312-8.464844 11.234374-8.464844 18.289062v8h-72v15.152344c0 4.296875-2.894531 8.136718-6.601562 8.734375-2.421876.417969-4.757813-.238281-6.574219-1.78125-1.800781-1.53125-2.824219-3.753907-2.824219-6.105469v-16h-24c-13.230469 0-24 10.769531-24 24v8h-7.144531c-12.128907 0-22.671875 8.609375-24.527344 20.03125-1.144531 7.03125.824219 14.144531 5.390625 19.511719 4.570312 5.367187 11.234375 8.457031 18.28125 8.457031h8zm112-72h40v-24c0-2.351562 1.023438-4.574219 2.824219-6.105469 1.816406-1.542969 4.136719-2.191406 6.574219-1.78125 3.707031.605469 6.601562 4.4375 6.601562 8.742188v23.144531h32c4.40625 0 8 3.585938 8 8v8h-7.144531c-12.128907 0-22.671875 8.609375-24.527344 20.03125-1.144531 7.03125.824219 14.144531 5.390625 19.511719 4.570312 5.367187 11.234375 8.457031 18.28125 8.457031h8v8c0 4.414062-3.59375 8-8 8h-88v-16h8c7.046875 0 13.710938-3.078125 18.289062-8.457031 4.574219-5.375 6.535157-12.488281 5.390626-19.519531-1.863282-11.414063-12.40625-20.023438-24.535157-20.023438h-7.144531zm-120 48c-2.351562 0-4.574219-1.03125-6.097656-2.824219-1.542969-1.824219-2.175782-4.160156-1.789063-6.574219.605469-3.707031 4.445313-6.601562 8.742188-6.601562h23.144531v-24c0-4.414062 3.59375-8 8-8h8c0 7.054688 3.078125 13.71875 8.457031 18.289062 5.367188 4.566407 12.503907 6.519532 19.511719 5.390626 11.152344-1.824219 19.625-11.910157 20.007812-23.679688h16.023438v32h23.144531c4.296875 0 8.136719 2.894531 8.742188 6.59375.394531 2.429688-.238281 4.765625-1.789063 6.582031-1.523437 1.792969-3.746094 2.824219-6.097656 2.824219h-24v32h-16c0-7.054688-3.078125-13.71875-8.464844-18.289062-5.367187-4.566407-12.488281-6.535157-19.511718-5.390626-11.152344 1.824219-19.617188 11.910157-20.007813 23.679688h-8.015625c-4.40625 0-8-3.585938-8-8v-24zm0 0"/></svg>