<?xml version="1.0" encoding="UTF-8"?>
<svg width="46px" height="43px" viewBox="0 0 46 43" version="1.1" xmlns="http://www.w3.org/2000/svg" xmlns:xlink="http://www.w3.org/1999/xlink">
    <!-- Generator: Sketch 53.2 (72643) - https://sketchapp.com -->
    <title>teacher</title>
    <desc>Created with Sketch.</desc>
    <g id="Home" stroke="none" stroke-width="1" fill="none" fill-rule="evenodd">
        <g id="Desktop-HD" transform="translate(-539.000000, -2108.000000)">
            <g id="Answer-Section-Copy" transform="translate(256.000000, 1708.000000)">
                <g id="Features" transform="translate(0.000000, 92.000000)">
                    <g id="Graphics">
                        <g id="Block-3" transform="translate(245.000000, 288.000000)">
                            <g id="Icon/Support" transform="translate(28.000000, 10.000000)">
                                <g id="teacher" transform="translate(11.670588, 10.941176)">
                                    <path d="M35.4372549,7.29411765 L3.22156863,7.29411765 C1.44165196,7.29411765 0,8.74046303 0,10.5243697 L0,29.9058824 L38.6588235,29.9058824 L38.6588235,10.5243697 C38.6588235,8.74046303 37.2163662,7.29411765 35.4372549,7.29411765 Z" id="Path" stroke="#FFFFFF" stroke-width="2"></path>
                                    <polygon id="Fill-15" stroke="#FFFFFF" points="7.29411765 7.29411765 32.0941176 7.29411765 32.0941176 0 7.29411765 0"></polygon>
                                    <path d="M6.56470588,7.25121107 L6.56470588,28.4470588 M32.0941176,28.4470588 L32.0941176,0.729411765 L30.4985294,0.729411765 M15.3404412,22.2958163 L12.1492647,22.2958163 M25.2253049,22.2958163 L17.1306133,22.2958163 M25.4603623,17.03391 L21.917378,17.03391 M19.6960078,17.03391 L12.1492647,17.03391" id="Stroke-16" stroke="#FFFFFF" stroke-width="2"></path>
                                    <path d="M22.1254902,37.2 L15.8039216,37.2 L12.6431373,40.1176471 L25.2862745,40.1176471 L22.1254902,37.2 Z M9.48235294,40.1176471 L28.4470588,40.1176471 L9.48235294,40.1176471 Z" id="Stroke-18" stroke="#FFFFFF" stroke-width="2"></path>
                                    <polygon id="Fill-19" fill="#FFFFFF" points="9.48235294 37.2 28.4470588 37.2 28.4470588 34.2823529 9.48235294 34.2823529"></polygon>
                                    <path d="M0,29.1764706 L0,32.4588235 C0,34.2723235 1.44165196,35.7411765 3.22156863,35.7411765 L35.4372549,35.7411765 C37.2163662,35.7411765 38.6588235,34.2723235 38.6588235,32.4588235 L38.6588235,29.1764706 L0,29.1764706 Z" id="Fill-20"></path>
                                    <path d="M0,29.1764706 L0,32.4588235 C0,34.2723235 1.44165196,35.7411765 3.22156863,35.7411765 L35.4372549,35.7411765 C37.2163662,35.7411765 38.6588235,34.2723235 38.6588235,32.4588235 L38.6588235,29.1764706 L0,29.1764706 Z" id="Stroke-21" stroke="#FFFFFF" stroke-width="2"></path>
                                    <path d="M16.0470588,32.8235294 L22.6117647,32.8235294" id="Stroke-22" stroke="#FFFFFF" stroke-width="2"></path>
                                    <path d="M26.2588235,15.3176471 C24.2449176,15.3176471 22.6117647,13.6844941 22.6117647,11.6705882 C22.6117647,9.65668235 24.2449176,8.02352941 26.2588235,8.02352941 C28.2734588,8.02352941 29.9058824,9.65668235 29.9058824,11.6705882 C29.9058824,13.6844941 28.2734588,15.3176471 26.2588235,15.3176471 Z" id="Fill-23" fill="#FFFFFF"></path>
                                    <path d="M22.6117647,7.29411765 C22.6117647,8.90549244 21.3054924,10.2117647 19.6941176,10.2117647 C18.0827429,10.2117647 16.7764706,8.90549244 16.7764706,7.29411765 C16.7764706,5.68274286 18.0827429,4.37647059 19.6941176,4.37647059 C21.3054924,4.37647059 22.6117647,5.68274286 22.6117647,7.29411765" id="Fill-24" fill="#FFFFFF"></path>
                                    <path d="M25.5911584,25.5294118 C25.3417254,25.5294118 25.1018553,25.3986583 24.9488484,25.1785291 C24.8611882,25.0519134 24.7312918,24.7879238 24.8436562,24.4370412 L26.593672,18.9859464 L39.2565823,5.83529412 L43.7647059,10.5175917 L31.1017956,23.6674164 L25.8517482,25.4847239 C25.7648849,25.5145158 25.6772248,25.5294118 25.5911584,25.5294118" id="Fill-26" fill="#FFFFFF"></path>
                                </g>
                            </g>
                        </g>
                    </g>
                </g>
            </g>
        </g>
    </g>
</svg>