<svg width="26" height="26" viewBox="0 0 26 26" fill="none" xmlns="http://www.w3.org/2000/svg">
<path d="M9.75 3.65625C9.50895 3.65625 9.27332 3.72773 9.0729 3.86165C8.87248 3.99556 8.71627 4.18591 8.62402 4.4086C8.53178 4.6313 8.50764 4.87635 8.55467 5.11276C8.60169 5.34918 8.71777 5.56634 8.88821 5.73678C9.05866 5.90723 9.27582 6.0233 9.51223 6.07033C9.74865 6.11735 9.9937 6.09322 10.2164 6.00098C10.4391 5.90873 10.6294 5.75252 10.7634 5.5521C10.8973 5.35168 10.9687 5.11604 10.9687 4.875C10.9687 4.55177 10.8403 4.24177 10.6118 4.01321C10.3832 3.78465 10.0732 3.65625 9.75 3.65625ZM9.75 5.28125C9.66965 5.28125 9.59111 5.25742 9.5243 5.21278C9.45749 5.16814 9.40542 5.1047 9.37467 5.03046C9.34393 4.95623 9.33588 4.87455 9.35156 4.79574C9.36723 4.71694 9.40592 4.64455 9.46274 4.58774C9.51955 4.53092 9.59194 4.49223 9.67074 4.47655C9.74955 4.46088 9.83123 4.46892 9.90546 4.49967C9.9797 4.53042 10.0431 4.58249 10.0878 4.6493C10.1324 4.71611 10.1562 4.79465 10.1562 4.875C10.1562 4.98274 10.1134 5.08607 10.0373 5.16226C9.96107 5.23845 9.85774 5.28125 9.75 5.28125Z" fill="#EE5253"/>
<path d="M16.25 3.65625C16.009 3.65625 15.7733 3.72773 15.5729 3.86165C15.3725 3.99556 15.2163 4.18591 15.124 4.4086C15.0318 4.6313 15.0076 4.87635 15.0547 5.11276C15.1017 5.34918 15.2178 5.56634 15.3882 5.73678C15.5587 5.90723 15.7758 6.0233 16.0122 6.07033C16.2487 6.11735 16.4937 6.09322 16.7164 6.00098C16.9391 5.90873 17.1294 5.75252 17.2634 5.5521C17.3973 5.35168 17.4688 5.11604 17.4688 4.875C17.4688 4.55177 17.3404 4.24177 17.1118 4.01321C16.8832 3.78465 16.5732 3.65625 16.25 3.65625ZM16.25 5.28125C16.1697 5.28125 16.0911 5.25742 16.0243 5.21278C15.9575 5.16814 15.9054 5.1047 15.8747 5.03046C15.8439 4.95623 15.8359 4.87455 15.8516 4.79574C15.8672 4.71694 15.9059 4.64455 15.9627 4.58774C16.0196 4.53092 16.0919 4.49223 16.1707 4.47655C16.2496 4.46088 16.3312 4.46892 16.4055 4.49967C16.4797 4.53042 16.5432 4.58249 16.5878 4.6493C16.6324 4.71611 16.6563 4.79465 16.6563 4.875C16.6563 4.98274 16.6135 5.08607 16.5373 5.16226C16.4611 5.23845 16.3577 5.28125 16.25 5.28125Z" fill="#EE5253"/>
<path d="M11.7812 5.28125H14.2188V6.09375H11.7812V5.28125Z" fill="#EE5253"/>
<path d="M23.9688 2.4375V0.8125H23.1562V2.22016L22.3438 2.7625L21.5312 2.22016V0.8125H20.7188V2.4375C20.7187 2.50437 20.7352 2.5702 20.7668 2.62916C20.7983 2.68812 20.8439 2.73839 20.8995 2.7755L21.5089 3.18175C21.277 3.39827 21.1398 3.69755 21.1273 4.01459C21.1147 4.33164 21.2278 4.64083 21.4419 4.875C21.239 5.09708 21.1261 5.38671 21.125 5.6875V9.34375H18.2812V8.53125C18.2812 8.42351 18.2384 8.32017 18.1623 8.24399C18.0861 8.1678 17.9827 8.125 17.875 8.125H14.625V7.3125H18.6875C18.7952 7.3125 18.8986 7.2697 18.9748 7.19351C19.0509 7.11733 19.0938 7.01399 19.0938 6.90625V2.84375C19.0938 2.73601 19.0509 2.63267 18.9748 2.55649C18.8986 2.4803 18.7952 2.4375 18.6875 2.4375H17.875V1.625C17.875 1.51726 17.8322 1.41392 17.756 1.33774C17.6798 1.26155 17.5765 1.21875 17.4688 1.21875H15.0312C14.9235 1.21875 14.8202 1.26155 14.744 1.33774C14.6678 1.41392 14.625 1.51726 14.625 1.625V2.4375H11.375V1.625C11.375 1.51726 11.3322 1.41392 11.256 1.33774C11.1798 1.26155 11.0765 1.21875 10.9688 1.21875H8.53125C8.42351 1.21875 8.32017 1.26155 8.24399 1.33774C8.1678 1.41392 8.125 1.51726 8.125 1.625V2.4375H7.3125C7.20476 2.4375 7.10142 2.4803 7.02524 2.55649C6.94905 2.63267 6.90625 2.73601 6.90625 2.84375V6.90625C6.90625 7.01399 6.94905 7.11733 7.02524 7.19351C7.10142 7.2697 7.20476 7.3125 7.3125 7.3125H11.375V8.125H8.125C8.01726 8.125 7.91392 8.1678 7.83774 8.24399C7.76155 8.32017 7.71875 8.42351 7.71875 8.53125V9.34375H4.875V5.6875C4.87394 5.38671 4.76099 5.09708 4.55813 4.875C4.7728 4.64097 4.88636 4.33164 4.87411 4.01431C4.86186 3.69697 4.72479 3.39731 4.49272 3.18053L5.10209 2.77428C5.15724 2.7371 5.20242 2.68695 5.23366 2.62823C5.2649 2.56951 5.28124 2.50401 5.28125 2.4375V0.8125H4.46875V2.22016L3.65625 2.7625L2.84375 2.22016V0.8125H2.03125V2.4375C2.03124 2.50437 2.04773 2.5702 2.07927 2.62916C2.11081 2.68812 2.15641 2.73839 2.21203 2.7755L2.82141 3.18175C2.58947 3.39827 2.45234 3.69755 2.43979 4.01459C2.42723 4.33164 2.54028 4.64083 2.75438 4.875C2.55151 5.09708 2.43856 5.38671 2.4375 5.6875V9.49894C2.16478 9.80732 2.01996 10.2081 2.03257 10.6196C2.04519 11.0311 2.21429 11.4223 2.50539 11.7134C2.79649 12.0045 3.18766 12.1736 3.59915 12.1862C4.01063 12.1988 4.41143 12.054 4.71981 11.7812H7.71875V13H4.875C4.33648 13.0006 3.8202 13.2149 3.4394 13.5957C3.05861 13.9764 2.8444 14.4927 2.84375 15.0312V23.1562C2.8444 23.6948 3.05861 24.2111 3.4394 24.5918C3.8202 24.9726 4.33648 25.1869 4.875 25.1875H21.125C21.6635 25.1869 22.1798 24.9726 22.5606 24.5918C22.9414 24.2111 23.1556 23.6948 23.1562 23.1562V15.0312C23.1556 14.4927 22.9414 13.9764 22.5606 13.5957C22.1798 13.2149 21.6635 13.0006 21.125 13H18.2812V11.7812H21.2802C21.5886 12.054 21.9894 12.1988 22.4009 12.1862C22.8123 12.1736 23.2035 12.0045 23.4946 11.7134C23.7857 11.4223 23.9548 11.0311 23.9674 10.6196C23.98 10.2081 23.8352 9.80732 23.5625 9.49894V5.6875C23.5614 5.38671 23.4485 5.09708 23.2456 4.875C23.4603 4.64097 23.5739 4.33164 23.5616 4.01431C23.5494 3.69697 23.4123 3.39731 23.1802 3.18053L23.7896 2.77428C23.8447 2.7371 23.8899 2.68695 23.9212 2.62823C23.9524 2.56951 23.9687 2.50401 23.9688 2.4375ZM22.3438 4.46875C22.2634 4.46875 22.1849 4.44492 22.118 4.40028C22.0512 4.35565 21.9992 4.2922 21.9684 4.21797C21.9377 4.14373 21.9296 4.06205 21.9453 3.98324C21.961 3.90444 21.9997 3.83205 22.0565 3.77524C22.1133 3.71842 22.1857 3.67973 22.2645 3.66406C22.3433 3.64838 22.425 3.65643 22.4992 3.68717C22.5734 3.71792 22.6369 3.76999 22.6815 3.8368C22.7262 3.90361 22.75 3.98215 22.75 4.0625C22.75 4.17024 22.7072 4.27358 22.631 4.34976C22.5548 4.42595 22.4515 4.46875 22.3438 4.46875ZM22.75 5.6875V8.99519C22.4846 8.91827 22.2029 8.91827 21.9375 8.99519V5.6875C21.9375 5.57976 21.9803 5.47642 22.0565 5.40024C22.1327 5.32405 22.236 5.28125 22.3438 5.28125C22.4515 5.28125 22.5548 5.32405 22.631 5.40024C22.7072 5.47642 22.75 5.57976 22.75 5.6875ZM15.4375 2.03125H17.0625V2.4375H15.4375V2.03125ZM8.9375 2.03125H10.5625V2.4375H8.9375V2.03125ZM7.71875 3.25H18.2812V6.5H7.71875V3.25ZM12.1875 7.3125H13.8125V8.125H12.1875V7.3125ZM3.65625 5.28125C3.76399 5.28125 3.86733 5.32405 3.94351 5.40024C4.0197 5.47642 4.0625 5.57976 4.0625 5.6875V8.99519C3.93012 8.9586 3.79358 8.93922 3.65625 8.9375C3.51892 8.93922 3.38238 8.9586 3.25 8.99519V5.6875C3.25 5.57976 3.2928 5.47642 3.36899 5.40024C3.44517 5.32405 3.54851 5.28125 3.65625 5.28125ZM3.25 4.0625C3.25 3.98215 3.27383 3.90361 3.31847 3.8368C3.3631 3.76999 3.42655 3.71792 3.50078 3.68717C3.57502 3.65643 3.6567 3.64838 3.73551 3.66406C3.81431 3.67973 3.8867 3.71842 3.94351 3.77524C4.00033 3.83205 4.03902 3.90444 4.05469 3.98324C4.07037 4.06205 4.06232 4.14373 4.03158 4.21797C4.00083 4.2922 3.94876 4.35565 3.88195 4.40028C3.81514 4.44492 3.7366 4.46875 3.65625 4.46875C3.54851 4.46875 3.44517 4.42595 3.36899 4.34976C3.2928 4.27358 3.25 4.17024 3.25 4.0625ZM3.65625 11.375C3.49555 11.375 3.33846 11.3273 3.20485 11.2381C3.07123 11.1488 2.96709 11.0219 2.9056 10.8734C2.8441 10.725 2.82801 10.5616 2.85936 10.404C2.89071 10.2464 2.9681 10.1016 3.08173 9.98798C3.19536 9.87435 3.34013 9.79696 3.49774 9.76561C3.65535 9.73426 3.81872 9.75035 3.96718 9.81185C4.11565 9.87334 4.24254 9.97748 4.33182 10.1111C4.4211 10.2447 4.46875 10.4018 4.46875 10.5625C4.46875 10.778 4.38315 10.9847 4.23077 11.137C4.0784 11.2894 3.87174 11.375 3.65625 11.375ZM5.22356 10.9688C5.30048 10.7034 5.30048 10.4216 5.22356 10.1562H7.71875V10.9688H5.22356ZM3.65625 23.1562V15.0312C3.65625 14.708 3.78465 14.398 4.01321 14.1695C4.24177 13.9409 4.55177 13.8125 4.875 13.8125H6.90625V24.375H4.875C4.55177 24.375 4.24177 24.2466 4.01321 24.018C3.78465 23.7895 3.65625 23.4795 3.65625 23.1562ZM22.3438 15.0312V23.1562C22.3438 23.4795 22.2153 23.7895 21.9868 24.018C21.7582 24.2466 21.4482 24.375 21.125 24.375H7.71875V13.8125H21.125C21.4482 13.8125 21.7582 13.9409 21.9868 14.1695C22.2153 14.398 22.3438 14.708 22.3438 15.0312ZM8.53125 13V8.9375H17.4688V13H8.53125ZM18.2812 10.1562H20.7764C20.6995 10.4216 20.6995 10.7034 20.7764 10.9688H18.2812V10.1562ZM22.3438 11.375C22.1831 11.375 22.026 11.3273 21.8923 11.2381C21.7587 11.1488 21.6546 11.0219 21.5931 10.8734C21.5316 10.725 21.5155 10.5616 21.5469 10.404C21.5782 10.2464 21.6556 10.1016 21.7692 9.98798C21.8829 9.87435 22.0276 9.79696 22.1852 9.76561C22.3428 9.73426 22.5062 9.75035 22.6547 9.81185C22.8031 9.87334 22.93 9.97748 23.0193 10.1111C23.1086 10.2447 23.1562 10.4018 23.1562 10.5625C23.1562 10.778 23.0706 10.9847 22.9183 11.137C22.7659 11.2894 22.5592 11.375 22.3438 11.375Z" fill="#EE5253"/>
<path d="M5.28125 17.875C5.0402 17.875 4.80457 17.9465 4.60415 18.0804C4.40373 18.2143 4.24752 18.4047 4.15527 18.6274C4.06303 18.8501 4.03889 19.0951 4.08592 19.3315C4.13294 19.5679 4.24902 19.7851 4.41946 19.9555C4.58991 20.126 4.80707 20.2421 5.04348 20.2891C5.2799 20.3361 5.52495 20.312 5.74764 20.2197C5.97034 20.1275 6.16068 19.9713 6.2946 19.7709C6.42852 19.5704 6.5 19.3348 6.5 19.0938C6.5 18.7705 6.37159 18.4605 6.14303 18.232C5.91447 18.0034 5.60448 17.875 5.28125 17.875ZM5.28125 19.5C5.2009 19.5 5.12236 19.4762 5.05555 19.4315C4.98874 19.3869 4.93667 19.3235 4.90592 19.2492C4.87518 19.175 4.86713 19.0933 4.88281 19.0145C4.89848 18.9357 4.93717 18.8633 4.99399 18.8065C5.0508 18.7497 5.12319 18.711 5.20199 18.6953C5.2808 18.6796 5.36248 18.6877 5.43671 18.7184C5.51095 18.7492 5.57439 18.8012 5.61903 18.8681C5.66367 18.9349 5.6875 19.0134 5.6875 19.0938C5.6875 19.2015 5.6447 19.3048 5.56851 19.381C5.49232 19.4572 5.38899 19.5 5.28125 19.5Z" fill="#EE5253"/>
<path d="M11.4939 18.9747L12.0684 18.4003L11.1369 17.4687L12.0684 16.5372L11.4939 15.9628L10.2752 17.1815C10.199 17.2577 10.1562 17.361 10.1562 17.4687C10.1562 17.5765 10.199 17.6798 10.2752 17.756L11.4939 18.9747Z" fill="#EE5253"/>
<path d="M15.3186 18.9747L16.5373 17.756C16.6135 17.6798 16.6563 17.5765 16.6563 17.4687C16.6563 17.361 16.6135 17.2577 16.5373 17.1815L15.3186 15.9628L14.7441 16.5372L15.6757 17.4687L14.7441 18.4003L15.3186 18.9747Z" fill="#EE5253"/>
<path d="M12.6162 18.5481L13.4282 16.1096L14.1993 16.3664L13.3873 18.8048L12.6162 18.5481Z" fill="#EE5253"/>
<path d="M11.375 20.3125H13V21.125H11.375V20.3125Z" fill="#EE5253"/>
<path d="M13.8125 20.3125H17.0625V21.125H13.8125V20.3125Z" fill="#EE5253"/>
<path d="M12.1875 21.9375H14.625V22.75H12.1875V21.9375Z" fill="#EE5253"/>
<path d="M15.4375 21.9375H17.0625V22.75H15.4375V21.9375Z" fill="#EE5253"/>
</svg>
