<svg width="30" height="30" viewBox="0 0 30 30" fill="none" xmlns="http://www.w3.org/2000/svg">
<path d="M20.0994 11.1794L19.5681 10.4583C19.4282 10.2685 19.1609 10.2281 18.9711 10.3679C18.7812 10.5078 18.7408 10.7751 18.8806 10.9649L19.4119 11.6859C19.4957 11.7995 19.625 11.8597 19.756 11.8597C19.844 11.8597 19.9327 11.8325 20.009 11.7764C20.1988 11.6365 20.2393 11.3692 20.0994 11.1794Z" fill="#1A97BF"/>
<path d="M21.5364 11.1794L21.0051 10.4583C20.8652 10.2685 20.598 10.2281 20.4081 10.3679C20.2183 10.5077 20.1777 10.775 20.3176 10.9649L20.8489 11.6859C20.9326 11.7995 21.0619 11.8597 21.1929 11.8597C21.2809 11.8597 21.3696 11.8325 21.4459 11.7764C21.6357 11.6365 21.6762 11.3692 21.5364 11.1794Z" fill="#1A97BF"/>
<path d="M18.5628 11.1794L18.0315 10.4583C17.8916 10.2685 17.6242 10.2281 17.4345 10.3679C17.2446 10.5078 17.2041 10.7751 17.344 10.9649L17.8753 11.6859C17.959 11.7995 18.0884 11.8597 18.2194 11.8597C18.3073 11.8597 18.3961 11.8325 18.4723 11.7764C18.6622 11.6365 18.7027 11.3692 18.5628 11.1794Z" fill="#1A97BF"/>
<path d="M11.029 10.368C10.8392 10.2282 10.5719 10.2687 10.432 10.4584L9.90063 11.1794C9.76077 11.3692 9.80126 11.6365 9.9911 11.7764C10.0673 11.8326 10.1561 11.8597 10.2441 11.8597C10.3751 11.8597 10.5044 11.7995 10.5881 11.686L11.1194 10.9649C11.2592 10.7752 11.2188 10.5079 11.029 10.368Z" fill="#1A97BF"/>
<path d="M9.59188 10.368C9.40204 10.2282 9.13479 10.2687 8.99487 10.4584L8.46361 11.1794C8.32374 11.3693 8.36429 11.6366 8.55407 11.7764C8.63036 11.8326 8.71907 11.8597 8.80702 11.8597C8.93804 11.8597 9.06735 11.7995 9.15108 11.686L9.68235 10.9649C9.82221 10.7751 9.78166 10.5078 9.59188 10.368Z" fill="#1A97BF"/>
<path d="M12.5656 10.368C12.3759 10.2282 12.1085 10.2687 11.9686 10.4584L11.4373 11.1794C11.2974 11.3692 11.3379 11.6365 11.5277 11.7764C11.604 11.8326 11.6927 11.8597 11.7807 11.8597C11.9117 11.8597 12.041 11.7995 12.1247 11.686L12.6561 10.9649C12.7959 10.7752 12.7555 10.5079 12.5656 10.368Z" fill="#1A97BF"/>
<path d="M14.9996 17.438C14.3404 17.438 13.8042 17.9743 13.8042 18.6334C13.8042 19.2925 14.3404 19.8288 14.9996 19.8288C15.6588 19.8288 16.195 19.2925 16.195 18.6334C16.195 17.9742 15.6587 17.438 14.9996 17.438ZM14.9996 18.975C14.8113 18.975 14.6581 18.8217 14.6581 18.6334C14.6581 18.4451 14.8113 18.2919 14.9996 18.2919C15.1879 18.2919 15.3412 18.4451 15.3412 18.6334C15.3412 18.8217 15.1879 18.975 14.9996 18.975Z" fill="#1A97BF"/>
<path d="M28.9753 9.62664C29.5403 9.62664 30 9.16697 30 8.60195C30 8.03693 29.5403 7.57727 28.9753 7.57727H25.7643C25.1994 7.57727 24.7396 8.03693 24.7396 8.60195C24.7396 9.16697 25.1993 9.62664 25.7643 9.62664H26.9429V9.91363H24.9926L18.1226 7.63545C17.8215 7.53549 17.5078 7.48486 17.1902 7.48486H12.8098C12.4923 7.48486 12.1787 7.53549 11.8775 7.63539L5.00736 9.91363H3.05713V9.62664H4.23568C4.80064 9.62664 5.26037 9.16697 5.26037 8.60195C5.26037 8.03693 4.8007 7.57727 4.23568 7.57727H1.02469C0.459668 7.57738 0 8.03699 0 8.60201C0 9.16703 0.459668 9.6267 1.02469 9.6267H2.20324V9.91369H1.90148C1.21301 9.91369 0.652969 10.4738 0.652969 11.1622V11.8013C0.652969 12.602 1.30441 13.2535 2.10516 13.2535H6.54387V15.9322C6.54387 16.168 6.735 16.3592 6.97084 16.3592C7.20668 16.3592 7.39781 16.168 7.39781 15.9322V13.2535H8.15455L7.65375 21.6613H7.51348C7.44973 21.6613 7.39787 21.6095 7.39787 21.5457V18.1098C7.39787 17.8739 7.20674 17.6828 6.9709 17.6828C6.73506 17.6828 6.54393 17.8739 6.54393 18.1098V21.5457C6.54393 22.0803 6.97887 22.5152 7.51342 22.5152H8.05594C8.28188 22.5152 8.46873 22.3392 8.48209 22.1137L9.00984 13.2535H9.29467C9.5083 13.2535 9.69697 13.382 9.77531 13.5807C9.98303 14.1081 10.4835 14.4489 11.0505 14.4489H11.7837V14.5875C11.7837 15.2755 12.3434 15.8352 13.0314 15.8352H13.2733V16.4608H12.9415C12.5019 16.4608 12.1443 16.8184 12.1443 17.258V20.0089C12.1443 20.4486 12.5019 20.8062 12.9415 20.8062H17.0586C17.4983 20.8062 17.8559 20.4486 17.8559 20.0089V17.258C17.8559 16.8184 17.4983 16.4608 17.0586 16.4608H16.7268V15.8352H16.9687C17.6567 15.8352 18.2164 15.2755 18.2164 14.5875V14.4489H18.9496C19.5166 14.4489 20.0171 14.1081 20.2247 13.5807C20.3031 13.3819 20.4918 13.2535 20.7054 13.2535H20.9903L21.518 22.1137C21.5314 22.3392 21.7182 22.5152 21.9442 22.5152H22.4867C23.0212 22.5152 23.4562 22.0803 23.4562 21.5457V18.1215C23.4562 17.8857 23.2651 17.6945 23.0292 17.6945C22.7934 17.6945 22.6022 17.8857 22.6022 18.1215V21.5457C22.6022 21.6095 22.5504 21.6613 22.4866 21.6613H22.3464L21.8456 13.2535H22.6023V15.9322C22.6023 16.168 22.7934 16.3592 23.0293 16.3592C23.2651 16.3592 23.4563 16.168 23.4563 15.9322V13.2535H27.895C28.6957 13.2535 29.3471 12.602 29.3471 11.8013V11.1621C29.3471 10.4737 28.7871 9.91363 28.0986 9.91363H27.7969V9.62664H28.9753ZM1.02469 8.77275C0.930527 8.77275 0.853887 8.69617 0.853887 8.60195C0.853887 8.50773 0.930469 8.43115 1.02469 8.43115H4.23568C4.32984 8.43115 4.40648 8.50773 4.40648 8.60195C4.40648 8.69617 4.3299 8.77275 4.23568 8.77275H1.02469ZM17.0019 17.3147V19.9523H12.9981V17.3147H17.0019ZM14.1271 16.4608V15.8352H15.8728V16.4608H14.1271ZM17.3625 14.5874C17.3624 14.8046 17.1858 14.9812 16.9686 14.9812H13.0314C12.8143 14.9812 12.6376 14.8046 12.6376 14.5874V14.4488H17.3625V14.5874ZM28.0985 10.7676C28.3161 10.7676 28.4931 10.9446 28.4931 11.1622V11.8013C28.4931 12.1312 28.2247 12.3996 27.8948 12.3996H20.7054C20.1386 12.3996 19.6381 12.7404 19.4302 13.2678C19.3519 13.4666 19.1633 13.595 18.9496 13.595H11.0504C10.8367 13.595 10.6481 13.4666 10.5697 13.2678C10.362 12.7404 9.86145 12.3996 9.29461 12.3996H2.1051C1.77521 12.3996 1.5068 12.1312 1.5068 11.8013V11.1621C1.5068 10.9446 1.68387 10.7675 1.90143 10.7675H5.07621C5.12186 10.7675 5.16727 10.7602 5.21057 10.7458L12.1462 8.44586C12.3605 8.37479 12.5838 8.33875 12.8097 8.33875H17.1902C17.4162 8.33875 17.6394 8.37479 17.8538 8.44592L24.7893 10.7458C24.8326 10.7602 24.878 10.7675 24.9237 10.7675H28.0985V10.7676ZM25.7644 8.77275C25.6702 8.77275 25.5936 8.69617 25.5936 8.60195C25.5936 8.50773 25.6702 8.43115 25.7644 8.43115H28.9754C29.0695 8.43115 29.1462 8.50773 29.1462 8.60195C29.1462 8.69617 29.0696 8.77275 28.9754 8.77275H25.7644Z" fill="#1A97BF"/>
</svg>
