<svg width="22" height="17" viewBox="0 0 22 17" fill="none" xmlns="http://www.w3.org/2000/svg">
<path d="M21.5 2.22204C20.7271 2.54997 19.8978 2.77237 19.0264 2.87167C19.9161 2.36151 20.5972 1.55233 20.92 0.591101C20.0854 1.06353 19.1642 1.40658 18.1826 1.59255C17.3966 0.789651 16.2785 0.289551 15.0384 0.289551C12.6593 0.289551 10.7303 2.13661 10.7303 4.4134C10.7303 4.73631 10.7683 5.05169 10.8418 5.35328C7.26201 5.18111 4.08768 3.53887 1.96314 1.04343C1.59176 1.65159 1.38049 2.36023 1.38049 3.11667C1.38049 4.54785 2.14161 5.81063 3.2964 6.54945C2.5904 6.52685 1.92639 6.34086 1.34508 6.03175V6.08327C1.34508 8.08115 2.83056 9.74845 4.80024 10.128C4.43936 10.221 4.05882 10.2725 3.66514 10.2725C3.38696 10.2725 3.11794 10.2461 2.85417 10.1959C3.40267 11.8356 4.99315 13.028 6.87756 13.0606C5.40388 14.1664 3.54573 14.8236 1.52749 14.8236C1.17976 14.8236 0.83724 14.8034 0.5 14.767C2.40671 15.9394 4.67036 16.6229 7.10327 16.6229C15.028 16.6229 19.3597 10.3379 19.3597 4.88712L19.3453 4.35311C20.1917 3.77507 20.9239 3.04882 21.5 2.22204Z" fill="#EE5253"/>
</svg>
