<svg xmlns="http://www.w3.org/2000/svg" viewBox="0 0 461.12 512">
  <title>unlocked</title>
  <g id="Layer_2" data-name="Layer 2">
    <g id="Layer_1-2" data-name="Layer 1">
      <path d="M450.91,263.81H245.65v-141A122.83,122.83,0,1,0,0,122.83V274a10.2,10.2,0,0,0,10.2,10.2H51.36A10.2,10.2,0,0,0,61.56,274V124.62a61.27,61.27,0,0,1,122.53,0V263.81H162.74a10.2,10.2,0,0,0-10.2,10.2V501.8a10.2,10.2,0,0,0,10.2,10.2H450.92a10.2,10.2,0,0,0,10.2-10.2V274A10.21,10.21,0,0,0,450.91,263.81ZM122.83,43a81.76,81.76,0,0,0-81.67,81.66V263.81H20.4v-141a102.43,102.43,0,1,1,204.85,0v141H204.49V124.62A81.75,81.75,0,0,0,122.83,43ZM440.72,491.6H172.93V284.21H440.72V491.6Z"/>
      <path d="M306.82,316.79a51.51,51.51,0,0,0-27.15,95.29v42a10.2,10.2,0,0,0,10.2,10.2h33.91a10.2,10.2,0,0,0,10.2-10.2v-42a51.51,51.51,0,0,0-27.16-95.29Zm12.77,79.9a10.19,10.19,0,0,0-6,9.3v37.94H300.07V406a10.2,10.2,0,0,0-6-9.3,31.13,31.13,0,1,1,25.53,0Z"/>
      <path d="M196.64,342.21a10.2,10.2,0,0,0-10.2,10.2V469a10.2,10.2,0,0,0,20.4,0V352.41A10.2,10.2,0,0,0,196.64,342.21Z"/>
      <path d="M196.64,305.13a10.2,10.2,0,0,0-10.2,10.2v5.3a10.2,10.2,0,0,0,20.4,0v-5.3A10.2,10.2,0,0,0,196.64,305.13Z"/>
    </g>
  </g>
</svg>
