<svg width="12" height="18" viewBox="0 0 12 18" fill="none" xmlns="http://www.w3.org/2000/svg">
<path fill-rule="evenodd" clip-rule="evenodd" d="M2.25 8.25V4.5C2.25 2.42893 3.92893 0.75 6 0.75C8.07105 0.75 9.75 2.42893 9.75 4.5V6H8.25V4.5C8.25 3.25736 7.24268 2.25 6 2.25C4.75732 2.25 3.75 3.25736 3.75 4.5V8.25H10.5C11.3284 8.25 12 8.92155 12 9.75V15.75C12 16.5784 11.3284 17.25 10.5 17.25H1.5C0.671572 17.25 0 16.5784 0 15.75V9.75C0 8.92155 0.671572 8.25 1.5 8.25H2.25ZM1.5 15.75V9.75H10.5V15.75H1.5ZM6.75 12.75C6.75 13.1642 6.41422 13.5 6 13.5C5.58578 13.5 5.25 13.1642 5.25 12.75C5.25 12.3358 5.58578 12 6 12C6.41422 12 6.75 12.3358 6.75 12.75Z" fill="#3EAF5E"/>
</svg>
