<?xml version="1.0" encoding="UTF-8"?>
<svg width="24px" height="31px" viewBox="0 0 24 31" version="1.1" xmlns="http://www.w3.org/2000/svg" xmlns:xlink="http://www.w3.org/1999/xlink">
    <!-- Generator: Sketch 64 (93537) - https://sketch.com -->
    <title>lock (1)</title>
    <desc>Created with Sketch.</desc>
    <g id="Page-1" stroke="none" stroke-width="1" fill="none" fill-rule="evenodd">
        <g id="Class-Hub--Student-Analytics" transform="translate(-943.000000, -642.000000)" fill="#FFFFFF" fill-rule="nonzero">
            <g id="Table" transform="translate(398.000000, 635.000000)">
                <g id="Group">
                    <g id="Rows" transform="translate(194.000000, 0.000000)">
                        <g id="Cells">
                            <g id="8-(ACTIVE)" transform="translate(336.000000, 0.000000)">
                                <g id="lock-(1)" transform="translate(15.000000, 7.000000)">
                                    <path d="M23.3333125,11.625 L21.3333125,11.625 L21.3333125,9.04164648 C21.3333125,4.05603516 17.1465,0 12,0 C6.8535,0 2.6666875,4.05603516 2.6666875,9.04164648 L2.6666875,9.6875 C2.6666875,10.0444844 2.964875,10.3333535 3.333375,10.3333535 L6,10.3333535 C6.3685,10.3333535 6.6666875,10.0444844 6.6666875,9.6875 L6.6666875,9.04164648 C6.6666875,6.19279492 9.05925,3.875 12,3.875 C14.94075,3.875 17.3333125,6.19279492 17.3333125,9.04164648 L17.3333125,11.625 L0.6666875,11.625 C0.2981875,11.625 0,11.9138691 0,12.2708535 L0,28.416707 C0,29.8414355 1.1959375,31 2.6666875,31 L21.333375,31 C22.8040625,31 24,29.8414355 24,28.4166465 L24,12.2708535 C24,11.9138691 23.7018125,11.625 23.3333125,11.625 Z M13.996125,25.1162363 C14.0169375,25.2984824 13.9564375,25.4813945 13.830125,25.618291 C13.7038125,25.755127 13.5228125,25.8333535 13.333375,25.8333535 L10.6666875,25.8333535 C10.47725,25.8333535 10.29625,25.755127 10.1699375,25.618291 C10.043625,25.4814551 9.9830625,25.298543 10.0039375,25.1162363 L10.4245,21.4525449 C9.7415625,20.9713184 9.333375,20.2100625 9.333375,19.375 C9.333375,17.9502715 10.5293125,16.7916465 12.0000625,16.7916465 C13.4708125,16.7916465 14.66675,17.9502109 14.66675,19.375 C14.66675,20.2100625 14.2585625,20.9713184 13.575625,21.4525449 L13.996125,25.1162363 Z" id="Shape"></path>
                                </g>
                            </g>
                        </g>
                    </g>
                </g>
            </g>
        </g>
    </g>
</svg>